<svg width="18" height="18" viewBox="0 0 18 18" fill="none" xmlns="http://www.w3.org/2000/svg">
<g clip-path="url(#clip0_54_484)">
<path d="M15.1875 0H2.8125C2.06685 0.00089317 1.352 0.297496 0.824749 0.824749C0.297496 1.352 0.00089317 2.06685 0 2.8125L0 15.1875C0.00089317 15.9331 0.297496 16.648 0.824749 17.1753C1.352 17.7025 2.06685 17.9991 2.8125 18H15.1875C15.9331 17.9991 16.648 17.7025 17.1753 17.1753C17.7025 16.648 17.9991 15.9331 18 15.1875V2.8125C17.9991 2.06685 17.7025 1.352 17.1753 0.824749C16.648 0.297496 15.9331 0.00089317 15.1875 0ZM16.875 15.1875C16.875 15.6351 16.6972 16.0643 16.3807 16.3807C16.0643 16.6972 15.6351 16.875 15.1875 16.875H2.8125C2.36495 16.875 1.93572 16.6972 1.61926 16.3807C1.30279 16.0643 1.125 15.6351 1.125 15.1875V2.8125C1.125 2.36495 1.30279 1.93572 1.61926 1.61926C1.93572 1.30279 2.36495 1.125 2.8125 1.125H15.1875C15.6351 1.125 16.0643 1.30279 16.3807 1.61926C16.6972 1.93572 16.875 2.36495 16.875 2.8125V15.1875Z" fill="black"/>
<path d="M9.5625 3.375H8.4375V8.4375H3.375V9.5625H8.4375V14.625H9.5625V9.5625H14.625V8.4375H9.5625V3.375Z" fill="black"/>
</g>
<defs>
<clipPath id="clip0_54_484">
<rect width="18" height="18" fill="white"/>
</clipPath>
</defs>
</svg>
