<svg width="26" height="26" viewBox="0 0 26 26" fill="none" xmlns="http://www.w3.org/2000/svg">
<path d="M20.5833 19.5H15.7083C15.5647 19.5 15.4269 19.4429 15.3253 19.3413C15.2237 19.2398 15.1667 19.102 15.1667 18.9583C15.1667 18.8147 15.2237 18.6769 15.3253 18.5753C15.4269 18.4737 15.5647 18.4167 15.7083 18.4167H20.5833C20.727 18.4167 20.8648 18.4737 20.9664 18.5753C21.0679 18.6769 21.125 18.8147 21.125 18.9583C21.125 19.102 21.0679 19.2398 20.9664 19.3413C20.8648 19.4429 20.727 19.5 20.5833 19.5Z" fill="#232323"/>
<path d="M11.375 13.5417H4.87499C4.73134 13.5417 4.59356 13.4846 4.49198 13.383C4.3904 13.2814 4.33333 13.1437 4.33333 13C4.33333 12.8563 4.3904 12.7186 4.49198 12.617C4.59356 12.5154 4.73134 12.4583 4.87499 12.4583H11.375C11.5187 12.4583 11.6564 12.5154 11.758 12.617C11.8596 12.7186 11.9167 12.8563 11.9167 13C11.9167 13.1437 11.8596 13.2814 11.758 13.383C11.6564 13.4846 11.5187 13.5417 11.375 13.5417ZM11.375 16.25H4.87499C4.73134 16.25 4.59356 16.1929 4.49198 16.0914C4.3904 15.9898 4.33333 15.852 4.33333 15.7083C4.33333 15.5647 4.3904 15.4269 4.49198 15.3253C4.59356 15.2237 4.73134 15.1667 4.87499 15.1667H11.375C11.5187 15.1667 11.6564 15.2237 11.758 15.3253C11.8596 15.4269 11.9167 15.5647 11.9167 15.7083C11.9167 15.852 11.8596 15.9898 11.758 16.0914C11.6564 16.1929 11.5187 16.25 11.375 16.25ZM11.375 18.9583H4.87499C4.73134 18.9583 4.59356 18.9013 4.49198 18.7997C4.3904 18.6981 4.33333 18.5603 4.33333 18.4167C4.33333 18.273 4.3904 18.1352 4.49198 18.0337C4.59356 17.9321 4.73134 17.875 4.87499 17.875H11.375C11.5187 17.875 11.6564 17.9321 11.758 18.0337C11.8596 18.1352 11.9167 18.273 11.9167 18.4167C11.9167 18.5603 11.8596 18.6981 11.758 18.7997C11.6564 18.9013 11.5187 18.9583 11.375 18.9583Z" fill="#4179D1"/>
<path d="M21.125 19.5C20.2633 19.4991 19.4372 19.1565 18.8279 18.5472C18.2185 17.9378 17.8759 17.1117 17.875 16.25V10.2917C17.875 9.86069 17.7038 9.44737 17.399 9.14262C17.0943 8.83787 16.681 8.66667 16.25 8.66667H11.9167C11.773 8.66667 11.6352 8.6096 11.5337 8.50802C11.4321 8.40644 11.375 8.26866 11.375 8.125V2.16667C11.375 2.02301 11.4321 1.88524 11.5337 1.78365C11.6352 1.68207 11.773 1.625 11.9167 1.625C12.4147 1.62239 12.8945 1.81195 13.2562 2.15421C13.3394 2.24381 13.4402 2.31527 13.5523 2.36415C13.6643 2.41302 13.7853 2.43824 13.9076 2.43824C14.0298 2.43824 14.1508 2.41302 14.2629 2.36415C14.3749 2.31527 14.4757 2.24381 14.5589 2.15421C14.9203 1.81543 15.3971 1.6269 15.8925 1.6269C16.3879 1.6269 16.8647 1.81543 17.2261 2.15421C17.3092 2.24345 17.4098 2.31461 17.5216 2.36327C17.6335 2.41193 17.7541 2.43704 17.8761 2.43704C17.998 2.43704 18.1187 2.41193 18.2305 2.36327C18.3423 2.31461 18.443 2.24345 18.5261 2.15421C18.8876 1.81512 19.3646 1.6264 19.8602 1.6264C20.3558 1.6264 20.8329 1.81512 21.1943 2.15421C21.2775 2.24345 21.3781 2.31461 21.4899 2.36327C21.6017 2.41193 21.7224 2.43704 21.8443 2.43704C21.9663 2.43704 22.0869 2.41193 22.1988 2.36327C22.3106 2.31461 22.4112 2.24345 22.4943 2.15421C22.8554 1.81116 23.3353 1.62146 23.8333 1.625C23.977 1.625 24.1148 1.68207 24.2164 1.78365C24.3179 1.88524 24.375 2.02301 24.375 2.16667V16.25C24.3741 17.1117 24.0315 17.9378 23.4221 18.5472C22.8128 19.1565 21.9867 19.4991 21.125 19.5ZM12.4583 7.58334H16.25C16.968 7.5842 17.6564 7.86981 18.1641 8.37754C18.6719 8.88526 18.9575 9.57364 18.9583 10.2917V16.25C18.9583 16.8246 19.1866 17.3757 19.5929 17.7821C19.9993 18.1884 20.5504 18.4167 21.125 18.4167C21.6996 18.4167 22.2507 18.1884 22.6571 17.7821C23.0634 17.3757 23.2917 16.8246 23.2917 16.25V2.90604C23.2581 2.93204 23.2234 2.96021 23.1833 2.99163C22.821 3.33164 22.3428 3.52088 21.846 3.52088C21.3491 3.52088 20.8709 3.33164 20.5086 2.99163C20.426 2.90229 20.3258 2.83101 20.2143 2.78225C20.1028 2.7335 19.9824 2.70833 19.8608 2.70833C19.7391 2.70833 19.6187 2.7335 19.5072 2.78225C19.3957 2.83101 19.2955 2.90229 19.2129 2.99163C18.8506 3.33164 18.3724 3.52088 17.8755 3.52088C17.3787 3.52088 16.9005 3.33164 16.5382 2.99163C16.4556 2.90229 16.3554 2.83101 16.2439 2.78225C16.1324 2.7335 16.012 2.70833 15.8903 2.70833C15.7687 2.70833 15.6483 2.7335 15.5368 2.78225C15.4253 2.83101 15.3251 2.90229 15.2425 2.99163C14.8801 3.33108 14.4022 3.51997 13.9057 3.51997C13.4091 3.51997 12.9312 3.33108 12.5688 2.99163C12.5282 2.95859 12.4914 2.92825 12.4562 2.90117L12.4583 7.58334Z" fill="#232323"/>
<path d="M14.0833 24.375C13.8267 24.3741 13.5731 24.3199 13.3386 24.2157C13.104 24.1116 12.8937 23.9598 12.721 23.77C12.4843 23.5533 12.3679 23.4542 12.0949 23.4542C11.8219 23.4542 11.7054 23.5511 11.4687 23.7705C11.2966 23.9609 11.0865 24.1131 10.8519 24.2172C10.6174 24.3214 10.3636 24.3752 10.107 24.3752C9.85032 24.3752 9.59653 24.3214 9.36198 24.2172C9.12742 24.1131 8.91731 23.9609 8.74521 23.7705C8.50904 23.5538 8.39313 23.4547 8.12121 23.4547C7.84929 23.4547 7.73283 23.5517 7.49721 23.7705C7.32534 23.961 7.1154 24.1133 6.88097 24.2175C6.64654 24.3217 6.39283 24.3756 6.13627 24.3756C5.87971 24.3756 5.62601 24.3217 5.39157 24.2175C5.15714 24.1133 4.9472 23.961 4.77533 23.7705C4.53971 23.5538 4.42379 23.4547 4.15188 23.4547C3.87996 23.4547 3.7635 23.5517 3.52788 23.7705C3.35535 23.9602 3.14523 24.1119 2.91088 24.216C2.67653 24.3201 2.42308 24.3742 2.16667 24.375C2.02301 24.375 1.88523 24.3179 1.78365 24.2164C1.68207 24.1148 1.625 23.977 1.625 23.8333V11.375C1.62615 10.3697 2.02599 9.40598 2.73682 8.69516C3.44765 7.98433 4.41141 7.58448 5.41667 7.58334H16.25C16.3937 7.58334 16.5314 7.6404 16.633 7.74199C16.7346 7.84357 16.7917 7.98134 16.7917 8.125C16.7917 8.26866 16.7346 8.40644 16.633 8.50802C16.5314 8.6096 16.3937 8.66667 16.25 8.66667C15.819 8.66667 15.4057 8.83787 15.101 9.14262C14.7962 9.44737 14.625 9.86069 14.625 10.2917V23.8333C14.625 23.977 14.5679 24.1148 14.4664 24.2164C14.3648 24.3179 14.227 24.375 14.0833 24.375ZM8.12121 22.3708C8.3776 22.3716 8.63101 22.4258 8.86528 22.53C9.09955 22.6342 9.30955 22.786 9.48187 22.9759C9.71804 23.1925 9.83396 23.2917 10.1064 23.2917C10.3789 23.2917 10.4953 23.1947 10.732 22.9759C10.9042 22.7854 11.1145 22.6331 11.3492 22.5289C11.5839 22.4247 11.8378 22.3708 12.0946 22.3708C12.3514 22.3708 12.6053 22.4247 12.84 22.5289C13.0747 22.6331 13.285 22.7854 13.4572 22.9759L13.5417 23.0528V10.2917C13.5406 9.70549 13.7308 9.13497 14.0833 8.66667H5.41667C4.69864 8.66753 4.01026 8.95315 3.50254 9.46087C2.99481 9.9686 2.70919 10.657 2.70833 11.375V23.0517C2.73433 23.0279 2.7625 23.003 2.79067 22.9759C2.96253 22.7854 3.17247 22.6331 3.40691 22.5289C3.64134 22.4246 3.89504 22.3708 4.1516 22.3708C4.40817 22.3708 4.66187 22.4246 4.8963 22.5289C5.13073 22.6331 5.34068 22.7854 5.51254 22.9759C5.74817 23.1925 5.86408 23.2917 6.13654 23.2917C6.409 23.2917 6.52437 23.1947 6.76 22.9759C6.93239 22.786 7.14247 22.6341 7.37685 22.5299C7.61122 22.4257 7.86473 22.3716 8.12121 22.3708Z" fill="#232323"/>
<path d="M13 20.6818C4.72727 31.9091 10.0455 2.95455 13 2.36364C15.9545 1.77272 25.7125 5.60066 24.8182 17.1364C24.8182 17.1364 21.2727 9.45455 13 20.6818Z" fill="#4179D1" fill-opacity="0.34"/>
</svg>
