<svg width="26" height="20" viewBox="0 0 26 20" fill="none" xmlns="http://www.w3.org/2000/svg">
<g clip-path="url(#clip0_57_445)">
<path d="M25.3195 5.70707H23.9166V2.12121C23.9166 1.71717 23.616 1.41414 23.2151 1.41414H3.4239C3.02307 1.41414 2.72244 1.71717 2.72244 2.12121V5.70707H1.31952V2.12121C1.31952 0.959596 2.2715 0 3.4239 0H23.2151C24.3675 0 25.3195 0.959596 25.3195 2.12121V5.70707ZM21.7621 20H4.77672C3.62432 20 2.67234 19.0404 2.67234 17.8788V5.75758H4.07526V17.8788C4.07526 18.2828 4.37589 18.5859 4.77672 18.5859H21.7621C22.1629 18.5859 22.4636 18.2828 22.4636 17.8788V5.75758H23.8665V17.8788C23.9166 19.0404 22.9646 20 21.7621 20Z" fill="black"/>
<path d="M16.1195 10H10.4695C10.0695 10 9.76952 9.68142 9.76952 9.25664C9.76952 8.83186 10.0695 8.51327 10.4695 8.51327H16.1195C16.5195 8.51327 16.8195 8.83186 16.8195 9.25664C16.8195 9.68142 16.5195 10 16.1195 10ZM1.31952 4H25.3195V5.48673H1.31952V4Z" fill="black"/>
<path d="M13.8195 19.5C9.14045 12.0826 10.6434 8.03366 20.3195 1H5.81952L0.319515 3.5C0.319515 3.5 -1.18046 4.5 2.31952 13.5C5.81949 22.5 9.32849 17.1569 13.8195 19.5Z" fill="#4179D1" fill-opacity="0.34"/>
</g>
<defs>
<clipPath id="clip0_57_445">
<rect width="26" height="20" fill="white"/>
</clipPath>
</defs>
</svg>
