<svg width="29" height="28" viewBox="0 0 29 28" fill="none" xmlns="http://www.w3.org/2000/svg">
<g clip-path="url(#clip0_75_263)">
<path d="M22.9584 4.66667H20.5417V3.5C20.5417 3.19058 20.4144 2.89384 20.1878 2.67504C19.9612 2.45625 19.6539 2.33333 19.3334 2.33333C19.0129 2.33333 18.7056 2.45625 18.479 2.67504C18.2524 2.89384 18.1251 3.19058 18.1251 3.5V4.66667H10.8751V3.5C10.8751 3.19058 10.7478 2.89384 10.5212 2.67504C10.2946 2.45625 9.98722 2.33333 9.66675 2.33333C9.34628 2.33333 9.03893 2.45625 8.81233 2.67504C8.58572 2.89384 8.45842 3.19058 8.45842 3.5V4.66667H6.04175C5.08034 4.66667 4.15831 5.03542 3.47849 5.69179C2.79867 6.34817 2.41675 7.23841 2.41675 8.16667V22.1667C2.41675 23.0949 2.79867 23.9852 3.47849 24.6415C4.15831 25.2979 5.08034 25.6667 6.04175 25.6667H22.9584C23.9198 25.6667 24.8419 25.2979 25.5217 24.6415C26.2015 23.9852 26.5834 23.0949 26.5834 22.1667V8.16667C26.5834 7.23841 26.2015 6.34817 25.5217 5.69179C24.8419 5.03542 23.9198 4.66667 22.9584 4.66667ZM24.1667 22.1667C24.1667 22.4761 24.0394 22.7728 23.8128 22.9916C23.5862 23.2104 23.2789 23.3333 22.9584 23.3333H6.04175C5.72128 23.3333 5.41393 23.2104 5.18733 22.9916C4.96072 22.7728 4.83341 22.4761 4.83341 22.1667V14H24.1667V22.1667ZM24.1667 11.6667H4.83341V8.16667C4.83341 7.85725 4.96072 7.5605 5.18733 7.34171C5.41393 7.12292 5.72128 7 6.04175 7H8.45842V8.16667C8.45842 8.47609 8.58572 8.77283 8.81233 8.99162C9.03893 9.21042 9.34628 9.33333 9.66675 9.33333C9.98722 9.33333 10.2946 9.21042 10.5212 8.99162C10.7478 8.77283 10.8751 8.47609 10.8751 8.16667V7H18.1251V8.16667C18.1251 8.47609 18.2524 8.77283 18.479 8.99162C18.7056 9.21042 19.0129 9.33333 19.3334 9.33333C19.6539 9.33333 19.9612 9.21042 20.1878 8.99162C20.4144 8.77283 20.5417 8.47609 20.5417 8.16667V7H22.9584C23.2789 7 23.5862 7.12292 23.8128 7.34171C24.0394 7.5605 24.1667 7.85725 24.1667 8.16667V11.6667Z" fill="black"/>
<path d="M12.5002 19.5C10.9857 11.988 11.8557 8.68966 17.5002 5C18.7217 -3.05808 20.6373 -2.36378 25.5002 5V13C29.8119 22.5836 28.7771 24.1921 25.5002 25.5C23.626 30.6431 22.5235 33.3126 17.5002 25.5C12.4768 17.6874 10.8642 22.9466 12.5002 19.5Z" fill="#4179D1" fill-opacity="0.34"/>
</g>
<defs>
<clipPath id="clip0_75_263">
<rect width="29" height="28" fill="white"/>
</clipPath>
</defs>
</svg>
