<svg width="18" height="18" viewBox="0 0 18 18" fill="none" xmlns="http://www.w3.org/2000/svg">
<g clip-path="url(#clip0_73_929)">
<path d="M13.6125 6.85856L13.3875 13.6688C13.3684 14.252 13.1227 14.8048 12.7026 15.2099C12.2825 15.615 11.7211 15.8404 11.1375 15.8383H6.86255C6.27936 15.8404 5.71828 15.6153 5.29826 15.2107C4.87823 14.8061 4.63228 14.2539 4.61255 13.671L4.38755 6.85856C4.38262 6.70938 4.43716 6.56435 4.53917 6.45538C4.64118 6.34641 4.7823 6.28243 4.93148 6.2775C5.08067 6.27258 5.2257 6.32712 5.33467 6.42913C5.44364 6.53114 5.50762 6.67226 5.51255 6.82144L5.73755 13.6333C5.74875 13.9241 5.8722 14.1993 6.08198 14.401C6.29176 14.6027 6.57153 14.7152 6.86255 14.715H11.1375C11.4289 14.7152 11.709 14.6023 11.9189 14.4001C12.1287 14.198 12.2519 13.9223 12.2625 13.6311L12.4875 6.82144C12.4925 6.67226 12.5565 6.53114 12.6654 6.42913C12.7744 6.32712 12.9194 6.27258 13.0686 6.2775C13.2178 6.28243 13.3589 6.34641 13.4609 6.45538C13.5629 6.56435 13.6175 6.70938 13.6125 6.85856ZM14.3567 4.59225C14.3567 4.74144 14.2975 4.88451 14.192 4.99C14.0865 5.09549 13.9434 5.15475 13.7942 5.15475H4.20642C4.05724 5.15475 3.91416 5.09549 3.80867 4.99C3.70318 4.88451 3.64392 4.74144 3.64392 4.59225C3.64392 4.44307 3.70318 4.29999 3.80867 4.1945C3.91416 4.08902 4.05724 4.02975 4.20642 4.02975H5.95017C6.1284 4.03023 6.30043 3.96439 6.43278 3.84503C6.56514 3.72567 6.64836 3.56133 6.66623 3.384C6.70774 2.96803 6.90263 2.5824 7.21292 2.30226C7.52322 2.02212 7.92669 1.86754 8.34473 1.86863H9.65536C10.0734 1.86754 10.4769 2.02212 10.7872 2.30226C11.0975 2.5824 11.2923 2.96803 11.3339 3.384C11.3517 3.56133 11.435 3.72567 11.5673 3.84503C11.6997 3.96439 11.8717 4.03023 12.0499 4.02975H13.7937C13.9429 4.02975 14.0859 4.08902 14.1914 4.1945C14.2969 4.29999 14.3562 4.44307 14.3562 4.59225H14.3567ZM7.64273 4.02975H10.3585C10.2846 3.86086 10.2362 3.68189 10.215 3.49875C10.2011 3.3601 10.1362 3.23156 10.0329 3.13803C9.92961 3.0445 9.79527 2.99264 9.65592 2.9925H8.3453C8.20595 2.99264 8.07161 3.0445 7.96831 3.13803C7.86501 3.23156 7.80011 3.3601 7.78617 3.49875C7.76481 3.68192 7.71684 3.86089 7.64273 4.02975ZM8.20917 12.5522V7.7625C8.20917 7.61332 8.14991 7.47024 8.04442 7.36476C7.93893 7.25927 7.79586 7.2 7.64667 7.2C7.49749 7.2 7.35441 7.25927 7.24892 7.36476C7.14343 7.47024 7.08417 7.61332 7.08417 7.7625V12.5544C7.08417 12.7036 7.14343 12.8467 7.24892 12.9522C7.35441 13.0577 7.49749 13.1169 7.64667 13.1169C7.79586 13.1169 7.93893 13.0577 8.04442 12.9522C8.14991 12.8467 8.20917 12.7036 8.20917 12.5544V12.5522ZM10.917 12.5522V7.7625C10.917 7.61332 10.8578 7.47024 10.7523 7.36476C10.6468 7.25927 10.5037 7.2 10.3545 7.2C10.2054 7.2 10.0623 7.25927 9.9568 7.36476C9.85131 7.47024 9.79205 7.61332 9.79205 7.7625V12.5544C9.79205 12.7036 9.85131 12.8467 9.9568 12.9522C10.0623 13.0577 10.2054 13.1169 10.3545 13.1169C10.5037 13.1169 10.6468 13.0577 10.7523 12.9522C10.8578 12.8467 10.917 12.7036 10.917 12.5544V12.5522Z" fill="black"/>
<path d="M14 13.5C17.5 9.49999 4.31433 7.78803 1.49999 9.49999C-0.351672 12.5327 0.699593 14.1828 7.99999 17C13.054 18.6255 15 20.5 15.5 17C16 13.5 10.5 17.5 14 13.5Z" fill="#4179D1" fill-opacity="0.34"/>
</g>
<defs>
<clipPath id="clip0_73_929">
<rect width="18" height="18" fill="white"/>
</clipPath>
</defs>
</svg>
