<svg width="20" height="20" viewBox="0 0 20 20" fill="none" xmlns="http://www.w3.org/2000/svg">
<path d="M17.5001 11.6667C17.2791 11.6667 17.0671 11.7545 16.9108 11.9108C16.7545 12.067 16.6667 12.279 16.6667 12.5V15.8334C16.6667 16.0544 16.5789 16.2663 16.4227 16.4226C16.2664 16.5789 16.0544 16.6667 15.8334 16.6667H4.16675C3.94573 16.6667 3.73377 16.5789 3.57749 16.4226C3.42121 16.2663 3.33341 16.0544 3.33341 15.8334V12.5C3.33341 12.279 3.24562 12.067 3.08934 11.9108C2.93306 11.7545 2.72109 11.6667 2.50008 11.6667C2.27907 11.6667 2.06711 11.7545 1.91083 11.9108C1.75455 12.067 1.66675 12.279 1.66675 12.5V15.8334C1.66675 16.4964 1.93014 17.1323 2.39898 17.6011C2.86782 18.07 3.50371 18.3334 4.16675 18.3334H15.8334C16.4965 18.3334 17.1323 18.07 17.6012 17.6011C18.07 17.1323 18.3334 16.4964 18.3334 15.8334V12.5C18.3334 12.279 18.2456 12.067 18.0893 11.9108C17.9331 11.7545 17.7211 11.6667 17.5001 11.6667ZM9.40841 13.0917C9.48767 13.1676 9.58112 13.227 9.68341 13.2667C9.78316 13.3108 9.89102 13.3335 10.0001 13.3335C10.1091 13.3335 10.217 13.3108 10.3167 13.2667C10.419 13.227 10.5125 13.1676 10.5917 13.0917L13.9251 9.75835C14.082 9.60143 14.1702 9.3886 14.1702 9.16669C14.1702 8.94477 14.082 8.73194 13.9251 8.57502C13.7682 8.4181 13.5553 8.32994 13.3334 8.32994C13.1115 8.32994 12.8987 8.4181 12.7417 8.57502L10.8334 10.4917V2.50002C10.8334 2.27901 10.7456 2.06704 10.5893 1.91076C10.4331 1.75448 10.2211 1.66669 10.0001 1.66669C9.77907 1.66669 9.5671 1.75448 9.41082 1.91076C9.25454 2.06704 9.16675 2.27901 9.16675 2.50002V10.4917L7.25841 8.57502C7.18072 8.49732 7.08847 8.43569 6.98696 8.39364C6.88544 8.35159 6.77663 8.32994 6.66675 8.32994C6.55686 8.32994 6.44806 8.35159 6.34654 8.39364C6.24502 8.43569 6.15278 8.49732 6.07508 8.57502C5.99738 8.65272 5.93575 8.74496 5.8937 8.84648C5.85165 8.948 5.83 9.0568 5.83 9.16669C5.83 9.27657 5.85165 9.38538 5.8937 9.48689C5.93575 9.58841 5.99738 9.68065 6.07508 9.75835L9.40841 13.0917Z" fill="black"/>
</svg>
