<svg width="15" height="15" viewBox="0 0 15 15" fill="none" xmlns="http://www.w3.org/2000/svg">
<g clip-path="url(#clip0_73_926)">
<path d="M2.1875 15H11.5625C12.1436 14.9983 12.7002 14.7662 13.1103 14.3546C13.5205 13.943 13.7505 13.3854 13.75 12.8044V8.09375C13.75 7.92799 13.6842 7.76902 13.5669 7.65181C13.4497 7.5346 13.2908 7.46875 13.125 7.46875C12.9592 7.46875 12.8003 7.5346 12.6831 7.65181C12.5658 7.76902 12.5 7.92799 12.5 8.09375V12.8044C12.5008 13.054 12.4026 13.2938 12.2268 13.4711C12.0511 13.6484 11.8121 13.7487 11.5625 13.75H2.1875C1.93786 13.7487 1.69894 13.6484 1.52318 13.4711C1.34742 13.2938 1.24917 13.054 1.25 12.8044V3.44563C1.24917 3.19598 1.34742 2.95621 1.52318 2.77892C1.69894 2.60163 1.93786 2.50132 2.1875 2.5H6.875C7.04076 2.5 7.19973 2.43415 7.31694 2.31694C7.43415 2.19973 7.5 2.04076 7.5 1.875C7.5 1.70924 7.43415 1.55027 7.31694 1.43306C7.19973 1.31585 7.04076 1.25 6.875 1.25H2.1875C1.60644 1.25166 1.04977 1.48377 0.639662 1.8954C0.229551 2.30704 -0.000498182 2.86456 8.10068e-07 3.44563V12.8044C-0.000498182 13.3854 0.229551 13.943 0.639662 14.3546C1.04977 14.7662 1.60644 14.9983 2.1875 15Z" fill="black"/>
<path d="M5.90943 6.59L5.4163 8.84875C5.39398 8.9512 5.3978 9.05762 5.42739 9.15821C5.45699 9.25881 5.51143 9.35034 5.58568 9.42437C5.66095 9.49655 5.75251 9.54951 5.85261 9.57878C5.9527 9.60805 6.05838 9.61275 6.16068 9.5925L8.41443 9.09812C8.53145 9.07242 8.63862 9.01363 8.72318 8.92875L14.4194 3.2325C14.5936 3.05838 14.7317 2.85167 14.826 2.62417C14.9202 2.39666 14.9687 2.15282 14.9687 1.90656C14.9687 1.66031 14.9202 1.41646 14.826 1.18896C14.7317 0.96145 14.5936 0.754738 14.4194 0.580624C14.0624 0.239459 13.5876 0.0490723 13.0938 0.0490723C12.6 0.0490723 12.1252 0.239459 11.7682 0.580624L6.08068 6.2825C5.99531 6.36648 5.93587 6.47321 5.90943 6.59ZM12.6519 1.465C12.7708 1.35109 12.9291 1.28749 13.0938 1.28749C13.2585 1.28749 13.4168 1.35109 13.5357 1.465C13.6513 1.58289 13.7161 1.74143 13.7161 1.90656C13.7161 2.07169 13.6513 2.23023 13.5357 2.34812L13.0938 2.79L12.2101 1.90625L12.6519 1.465ZM7.08943 7.03625L11.3232 2.79187L12.1982 3.67125L7.96255 7.91687L6.84068 8.16312L7.08943 7.03625Z" fill="black"/>
<path d="M5.00002 9.99998C6.62039 7.25498 0 4 7.50002 -1.50204e-05C15 -4.00003 9.63319 2.43789 11 3.99999C14.6114 4.75639 15.4172 6.26954 14 11.5C10.0875 17.2395 8.3963 19.0044 7.50002 16C7.57522 13.6928 7.23443 12.3861 5.00002 9.99998Z" fill="#4179D1" fill-opacity="0.34"/>
</g>
<defs>
<clipPath id="clip0_73_926">
<rect width="15" height="15" fill="white"/>
</clipPath>
</defs>
</svg>
