<svg width="21" height="18" viewBox="0 0 21 18" fill="none" xmlns="http://www.w3.org/2000/svg">
<path d="M16.3011 1.5H5.01079C4.36913 1.5 3.75376 1.73705 3.30004 2.15901C2.84633 2.58097 2.59143 3.15326 2.59143 3.75V4.6275C2.59132 4.93721 2.65995 5.2436 2.79304 5.5275V5.5725C2.90698 5.81323 3.06836 6.032 3.26885 6.2175L8.23659 10.8075V15.75C8.23632 15.8775 8.27098 16.0029 8.33729 16.1144C8.40361 16.226 8.4994 16.3199 8.61562 16.3875C8.74396 16.4615 8.89206 16.5005 9.04304 16.5C9.16929 16.4993 9.29359 16.471 9.40595 16.4175L12.6318 14.9175C12.7647 14.8552 12.8766 14.7598 12.9549 14.642C13.0332 14.5242 13.0749 14.3885 13.0753 14.25V10.8075L18.0108 6.2175C18.2113 6.032 18.3727 5.81323 18.4866 5.5725V5.5275C18.6308 5.24582 18.7104 4.93933 18.7205 4.6275V3.75C18.7205 3.15326 18.4656 2.58097 18.0119 2.15901C17.5581 1.73705 16.9428 1.5 16.3011 1.5ZM11.6963 9.9675C11.6215 10.0376 11.5624 10.1207 11.5223 10.2121C11.4821 10.3034 11.4618 10.4013 11.4624 10.5V13.785L9.8495 14.535V10.5C9.85011 10.4013 9.82977 10.3034 9.78963 10.2121C9.7495 10.1207 9.69037 10.0376 9.61562 9.9675L5.34143 6H15.9705L11.6963 9.9675ZM17.1076 4.5H4.20433V3.75C4.20433 3.55109 4.2893 3.36032 4.44054 3.21967C4.59178 3.07902 4.7969 3 5.01079 3H16.3011C16.515 3 16.7201 3.07902 16.8714 3.21967C17.0226 3.36032 17.1076 3.55109 17.1076 3.75V4.5Z" fill="black"/>
<path d="M8.50536 17.5C8.50536 17.5 3.12902 15 4.74192 11C6.35482 7 1.51611 2 1.51611 2H8.50536L11.7312 4C11.7312 4 13.7712 6.21345 12.4435 6.86842C12.6896 8.80131 12.405 11 9.83665 11L8.50536 17.5Z" fill="#4179D1" fill-opacity="0.34"/>
</svg>
