<svg width="22" height="22" viewBox="0 0 22 22" fill="none" xmlns="http://www.w3.org/2000/svg">
<path d="M15.8125 8.9375V3.4375C15.8125 2.89049 15.5952 2.36589 15.2084 1.97909C14.8216 1.5923 14.297 1.375 13.75 1.375H4.125C3.57799 1.375 3.05339 1.5923 2.66659 1.97909C2.2798 2.36589 2.0625 2.89049 2.0625 3.4375V18.5625C2.0625 19.1095 2.2798 19.6341 2.66659 20.0209C3.05339 20.4077 3.57799 20.625 4.125 20.625H13.75C14.297 20.625 14.8216 20.4077 15.2084 20.0209C15.5952 19.6341 15.8125 19.1095 15.8125 18.5625V13.75C15.4478 13.75 15.0981 13.8949 14.8402 14.1527C14.5824 14.4106 14.4375 14.7603 14.4375 15.125V18.5625C14.4375 18.7448 14.3651 18.9197 14.2361 19.0486C14.1072 19.1776 13.9323 19.25 13.75 19.25H4.125C3.94266 19.25 3.7678 19.1776 3.63886 19.0486C3.50993 18.9197 3.4375 18.7448 3.4375 18.5625V3.4375C3.4375 3.25516 3.50993 3.0803 3.63886 2.95136C3.7678 2.82243 3.94266 2.75 4.125 2.75H13.75C13.9323 2.75 14.1072 2.82243 14.2361 2.95136C14.3651 3.0803 14.4375 3.25516 14.4375 3.4375V10.3125C14.8022 10.3125 15.1519 10.1676 15.4098 9.90977C15.6676 9.65191 15.8125 9.30217 15.8125 8.9375Z" fill="#171938"/>
<path d="M12.375 4.8125H5.5C5.31766 4.8125 5.1428 4.88493 5.01386 5.01386C4.88493 5.1428 4.8125 5.31766 4.8125 5.5C4.8125 5.68234 4.88493 5.8572 5.01386 5.98614C5.1428 6.11507 5.31766 6.1875 5.5 6.1875H12.375C12.5573 6.1875 12.7322 6.11507 12.8611 5.98614C12.9901 5.8572 13.0625 5.68234 13.0625 5.5C13.0625 5.31766 12.9901 5.1428 12.8611 5.01386C12.7322 4.88493 12.5573 4.8125 12.375 4.8125ZM13.0625 8.25C13.0625 8.06766 12.9901 7.8928 12.8611 7.76386C12.7322 7.63493 12.5573 7.5625 12.375 7.5625H5.5C5.31766 7.5625 5.1428 7.63493 5.01386 7.76386C4.88493 7.8928 4.8125 8.06766 4.8125 8.25C4.8125 8.43234 4.88493 8.6072 5.01386 8.73614C5.1428 8.86507 5.31766 8.9375 5.5 8.9375H12.375C12.5573 8.9375 12.7322 8.86507 12.8611 8.73614C12.9901 8.6072 13.0625 8.43234 13.0625 8.25ZM5.5 10.3125C5.31766 10.3125 5.1428 10.3849 5.01386 10.5139C4.88493 10.6428 4.8125 10.8177 4.8125 11C4.8125 11.1823 4.88493 11.3572 5.01386 11.4861C5.1428 11.6151 5.31766 11.6875 5.5 11.6875H8.25C8.43234 11.6875 8.6072 11.6151 8.73614 11.4861C8.86507 11.3572 8.9375 11.1823 8.9375 11C8.9375 10.8177 8.86507 10.6428 8.73614 10.5139C8.6072 10.3849 8.43234 10.3125 8.25 10.3125H5.5Z" fill="#171938"/>
<path d="M9.90953 17.875C9.80726 17.875 9.70629 17.8521 9.61398 17.8081C9.52167 17.764 9.44034 17.7 9.37593 17.6205C9.31151 17.5411 9.26563 17.4483 9.24162 17.3489C9.21761 17.2495 9.21609 17.146 9.23716 17.0459L9.75416 14.5839C9.78168 14.4537 9.84641 14.3343 9.94047 14.2402L16.4167 7.76463C16.8097 7.38962 17.332 7.18039 17.8753 7.18039C18.4185 7.18039 18.9408 7.38962 19.3338 7.76463C19.5253 7.95616 19.6773 8.18354 19.781 8.4338C19.8846 8.68406 19.938 8.95229 19.938 9.22317C19.938 9.49405 19.8846 9.76227 19.781 10.0125C19.6773 10.2628 19.5253 10.4902 19.3338 10.6817L12.8562 17.1559C12.7623 17.2504 12.6428 17.3154 12.5124 17.3429L10.0505 17.8606C10.0041 17.8701 9.95687 17.8749 9.90953 17.875ZM11.0611 15.0673L10.8026 16.2979L12.0312 16.0394L18.3617 9.7082C18.4905 9.57927 18.5629 9.40443 18.5629 9.22213C18.5629 9.03983 18.4905 8.865 18.3617 8.73607C18.2309 8.61061 18.0568 8.54055 17.8756 8.54055C17.6944 8.54055 17.5202 8.61061 17.3895 8.73607L11.0611 15.0673Z" fill="#4179D1"/>
</svg>
