<svg width="22" height="22" viewBox="0 0 22 22" fill="none" xmlns="http://www.w3.org/2000/svg">
<path d="M20.625 11C20.6251 12.8818 20.0312 14.7156 18.9281 16.2401C17.8249 17.7645 16.2687 18.9019 14.4812 19.4901C12.6937 20.0783 10.7662 20.0873 8.97331 19.5159C7.18041 18.9444 5.61363 17.8216 4.49625 16.3075L5.60312 15.4894C6.61294 16.8609 8.05615 17.8514 9.69903 18.3004C11.3419 18.7494 13.0883 18.6308 14.6553 17.9636C16.2223 17.2965 17.5183 16.1199 18.3333 14.6244C19.1483 13.129 19.4347 11.4022 19.146 9.72365C18.8573 8.04515 18.0105 6.51324 16.7427 5.37598C15.4749 4.23873 13.8603 3.56273 12.1604 3.45745C10.4605 3.35217 8.77488 3.82377 7.37642 4.79589C5.97796 5.76802 4.94859 7.18373 4.455 8.81378L5.1425 8.36691L5.9125 9.50816L3.85 10.8832C3.72847 10.9651 3.58394 11.006 3.4375 11C3.32489 11.0002 3.21395 10.9727 3.11445 10.92C3.01496 10.8672 2.92994 10.7908 2.86687 10.6975L1.49187 8.63503L2.63312 7.86503L3.10062 8.55253C3.69712 6.48604 5.01883 4.70398 6.82321 3.53335C8.62759 2.36272 10.7936 1.88205 12.9238 2.17956C15.054 2.47707 17.0054 3.53279 18.42 5.15299C19.8346 6.77319 20.6175 8.84919 20.625 11ZM11 6.18753V11C10.9995 11.0905 11.0168 11.1802 11.051 11.264C11.0852 11.3477 11.1357 11.4239 11.1994 11.4882L13.2619 13.5507L14.2381 12.5744L12.375 10.7182V6.18753H11Z" fill="black"/>
</svg>
