<svg width="25" height="26" viewBox="0 0 25 26" fill="none" xmlns="http://www.w3.org/2000/svg">
<g clip-path="url(#clip0_57_23)">
<path d="M17.04 5.53C17.04 5.76869 16.9452 5.99761 16.7764 6.16639C16.6076 6.33518 16.3787 6.43 16.14 6.43H10.326C10.0873 6.43 9.85839 6.33518 9.6896 6.16639C9.52082 5.99761 9.426 5.76869 9.426 5.53C9.426 5.2913 9.52082 5.06238 9.6896 4.8936C9.85839 4.72482 10.0873 4.63 10.326 4.63H16.14C16.3787 4.63 16.6076 4.72482 16.7764 4.8936C16.9452 5.06238 17.04 5.2913 17.04 5.53ZM7.1724 4.63H6.2454C6.00671 4.63 5.77779 4.72482 5.609 4.8936C5.44022 5.06238 5.3454 5.2913 5.3454 5.53C5.3454 5.76869 5.44022 5.99761 5.609 6.16639C5.77779 6.33518 6.00671 6.43 6.2454 6.43H7.1724C7.4111 6.43 7.64001 6.33518 7.8088 6.16639C7.97758 5.99761 8.0724 5.76869 8.0724 5.53C8.0724 5.2913 7.97758 5.06238 7.8088 4.8936C7.64001 4.72482 7.4111 4.63 7.1724 4.63ZM16.14 8.23H10.326C10.0873 8.23 9.85839 8.32482 9.6896 8.4936C9.52082 8.66238 9.426 8.8913 9.426 9.13C9.426 9.36869 9.52082 9.59761 9.6896 9.76639C9.85839 9.93518 10.0873 10.03 10.326 10.03H16.14C16.3787 10.03 16.6076 9.93518 16.7764 9.76639C16.9452 9.59761 17.04 9.36869 17.04 9.13C17.04 8.8913 16.9452 8.66238 16.7764 8.4936C16.6076 8.32482 16.3787 8.23 16.14 8.23ZM7.1724 8.23H6.2454C6.00671 8.23 5.77779 8.32482 5.609 8.4936C5.44022 8.66238 5.3454 8.8913 5.3454 9.13C5.3454 9.36869 5.44022 9.59761 5.609 9.76639C5.77779 9.93518 6.00671 10.03 6.2454 10.03H7.1724C7.4111 10.03 7.64001 9.93518 7.8088 9.76639C7.97758 9.59761 8.0724 9.36869 8.0724 9.13C8.0724 8.8913 7.97758 8.66238 7.8088 8.4936C7.64001 8.32482 7.4111 8.23 7.1724 8.23ZM16.14 11.83H10.326C10.0873 11.83 9.85839 11.9248 9.6896 12.0936C9.52082 12.2624 9.426 12.4913 9.426 12.73C9.426 12.9687 9.52082 13.1976 9.6896 13.3664C9.85839 13.5352 10.0873 13.63 10.326 13.63H16.14C16.3787 13.63 16.6076 13.5352 16.7764 13.3664C16.9452 13.1976 17.04 12.9687 17.04 12.73C17.04 12.4913 16.9452 12.2624 16.7764 12.0936C16.6076 11.9248 16.3787 11.83 16.14 11.83ZM7.1724 11.83H6.2454C6.00671 11.83 5.77779 11.9248 5.609 12.0936C5.44022 12.2624 5.3454 12.4913 5.3454 12.73C5.3454 12.9687 5.44022 13.1976 5.609 13.3664C5.77779 13.5352 6.00671 13.63 6.2454 13.63H7.1724C7.4111 13.63 7.64001 13.5352 7.8088 13.3664C7.97758 13.1976 8.0724 12.9687 8.0724 12.73C8.0724 12.4913 7.97758 12.2624 7.8088 12.0936C7.64001 11.9248 7.4111 11.83 7.1724 11.83ZM23.0682 20.7562C23.0678 21.7733 22.7659 22.7675 22.2005 23.613C21.6351 24.4585 20.8317 25.1173 19.8919 25.5062C18.9521 25.8951 17.9181 25.9966 16.9206 25.7978C15.9231 25.5991 15.0069 25.1089 14.288 24.3895C13.569 23.67 13.0795 22.7535 12.8815 21.7559C12.6834 20.7583 12.7856 19.7243 13.1751 18.7847C13.5647 17.8452 14.2241 17.0423 15.07 16.4775C15.9159 15.9127 16.9103 15.6114 17.9274 15.6118C19.2909 15.6137 20.5979 16.1564 21.5617 17.1209C22.5254 18.0853 23.0672 19.3927 23.0682 20.7562ZM21.2682 20.7562C21.2682 20.095 21.0721 19.4487 20.7047 18.899C20.3374 18.3492 19.8152 17.9208 19.2043 17.6679C18.5935 17.4149 17.9213 17.3488 17.2728 17.478C16.6244 17.6071 16.0288 17.9256 15.5614 18.3933C15.094 18.8609 14.7758 19.4567 14.647 20.1052C14.5182 20.7537 14.5847 21.4259 14.838 22.0366C15.0912 22.6474 15.5199 23.1693 16.0699 23.5363C16.6198 23.9034 17.2662 24.0992 17.9274 24.0988C18.8133 24.0974 19.6625 23.7447 20.2888 23.1181C20.915 22.4915 21.2672 21.6421 21.2682 20.7562ZM10.344 17.941H3.63C3.39131 17.941 3.16239 17.8462 2.9936 17.6774C2.82482 17.5086 2.73 17.2797 2.73 17.041V2.803C2.73 2.5643 2.82482 2.33538 2.9936 2.1666C3.16239 1.99782 3.39131 1.903 3.63 1.903H18.786C19.0247 1.903 19.2536 1.99782 19.4224 2.1666C19.5912 2.33538 19.686 2.5643 19.686 2.803V13.405C19.686 13.6437 19.7808 13.8726 19.9496 14.0414C20.1184 14.2102 20.3473 14.305 20.586 14.305C20.8247 14.305 21.0536 14.2102 21.2224 14.0414C21.3912 13.8726 21.486 13.6437 21.486 13.405V2.803C21.485 2.0872 21.2003 1.401 20.6941 0.894861C20.188 0.388719 19.5018 0.103949 18.786 0.102997H3.63C2.91421 0.103949 2.22801 0.388719 1.72186 0.894861C1.21572 1.401 0.930953 2.0872 0.93 2.803V17.041C0.930953 17.7568 1.21572 18.443 1.72186 18.9491C2.22801 19.4553 2.91421 19.74 3.63 19.741H10.344C10.5827 19.741 10.8116 19.6462 10.9804 19.4774C11.1492 19.3086 11.244 19.0797 11.244 18.841C11.244 18.6023 11.1492 18.3734 10.9804 18.2046C10.8116 18.0358 10.5827 17.941 10.344 17.941ZM17.9274 17.941C17.6887 17.941 17.4598 18.0358 17.291 18.2046C17.1222 18.3734 17.0274 18.6023 17.0274 18.841V19.8562H16.5504C16.3117 19.8562 16.0828 19.951 15.914 20.1198C15.7452 20.2886 15.6504 20.5175 15.6504 20.7562C15.6504 20.9949 15.7452 21.2238 15.914 21.3926C16.0828 21.5614 16.3117 21.6562 16.5504 21.6562H17.9274C18.1661 21.6562 18.395 21.5614 18.5638 21.3926C18.7326 21.2238 18.8274 20.9949 18.8274 20.7562V18.841C18.8274 18.6023 18.7326 18.3734 18.5638 18.2046C18.395 18.0358 18.1661 17.941 17.9274 17.941Z" fill="black"/>
<path d="M19.5 24.5C3.01294 25.2429 0.707573 23.8394 5.50001 19C10.387 14.0601 12.8378 11.0765 10.4332 0.747223C18.6509 0.794296 24.272 -0.214377 24 8.5C18.5835 12.6303 19.5199 17.2458 19.5 24.5Z" fill="#4179D1" fill-opacity="0.34"/>
</g>
<defs>
<clipPath id="clip0_57_23">
<rect width="25" height="26" fill="white"/>
</clipPath>
</defs>
</svg>
