<svg width="22" height="22" viewBox="0 0 22 22" fill="none" xmlns="http://www.w3.org/2000/svg">
<path d="M9.55325 18.5724H5.88658C4.69847 18.5681 3.73517 17.6084 3.72644 16.4203V9.12679C3.72877 8.72907 3.90674 8.3527 4.21267 8.09853L4.85832 7.62027C5.09404 7.36913 5.118 6.98592 4.91542 6.70737C4.71284 6.42882 4.34088 6.33355 4.02934 6.48042L3.36774 6.97462C2.70038 7.491 2.30434 8.28307 2.29166 9.12679V16.4282C2.29604 18.4118 3.90298 20.0188 5.88658 20.0232H9.55325C9.94946 20.0232 10.2706 19.702 10.2706 19.3058C10.2706 18.9096 9.94946 18.5884 9.55325 18.5884V18.5724Z" fill="black"/>
<path d="M19.517 9.11086C19.5086 8.27334 19.1255 7.48362 18.4728 6.95869L12.9648 2.56666C11.7545 1.59375 10.0303 1.59375 8.81992 2.56666L7.07427 3.83405C6.7463 4.06957 6.67135 4.52637 6.90688 4.85434C7.1424 5.18231 7.5992 5.25725 7.92717 5.02173L9.69673 3.69854C10.3913 3.12673 11.3935 3.12673 12.088 3.69854L17.596 8.09057C17.913 8.34186 18.1003 8.72232 18.1062 9.1268V16.4283C18.1062 17.6169 17.1426 18.5804 15.954 18.5804H14.3199C14.1526 18.5804 14.017 18.4448 14.017 18.2775V14.9855C14.017 13.9365 13.1689 13.0848 12.1199 13.0804H9.72861C9.22336 13.0804 8.7388 13.2811 8.38152 13.6384C8.02425 13.9957 7.82354 14.4802 7.82354 14.9855V16.2449C7.82354 16.6411 8.14473 16.9623 8.54093 16.9623C8.93714 16.9623 9.25832 16.6411 9.25832 16.2449V14.9855C9.25619 14.8615 9.30395 14.7419 9.39088 14.6534C9.47782 14.565 9.59664 14.5152 9.72064 14.5152H12.1119C12.3673 14.5152 12.5743 14.7222 12.5743 14.9775V18.2775C12.5787 19.2385 13.3589 20.0152 14.3199 20.0152H15.9141C17.8995 20.0152 19.509 18.4057 19.509 16.4203L19.517 9.11086Z" fill="black"/>
</svg>
