<svg width="11" height="18" viewBox="0 0 11 18" fill="none" xmlns="http://www.w3.org/2000/svg">
<g clip-path="url(#clip0_40_4)">
<path d="M0.837486 9.9238L8.13423 17.2205C8.34641 17.4255 8.63059 17.5389 8.92556 17.5363C9.22053 17.5337 9.5027 17.4154 9.71128 17.2068C9.91986 16.9983 10.0382 16.7161 10.0407 16.4211C10.0433 16.1262 9.92991 15.842 9.72499 15.6298L3.22024 9.12505L9.72499 2.6203C9.92991 2.40812 10.0433 2.12394 10.0407 1.82897C10.0382 1.534 9.91986 1.25183 9.71128 1.04325C9.5027 0.834666 9.22053 0.716351 8.92556 0.713788C8.63059 0.711224 8.34641 0.824618 8.13423 1.02955L0.837486 8.3263C0.732663 8.43112 0.649658 8.55569 0.593273 8.69279C0.536888 8.82989 0.50824 8.97681 0.508986 9.12505C0.508986 9.4153 0.616986 9.7033 0.837486 9.9238Z" fill="#BEBEBE"/>
</g>
<defs>
<clipPath id="clip0_40_4">
<rect width="11" height="18" fill="white"/>
</clipPath>
</defs>
</svg>
