<svg width="286" height="214" viewBox="0 0 286 214" fill="none" xmlns="http://www.w3.org/2000/svg">
<g clip-path="url(#clip0_185_2)">
<path d="M286 188.063H0V188.207H286V188.063Z" fill="#EBEBEB"/>
<path d="M180.563 191.975H166V192.118H180.563V191.975Z" fill="#EBEBEB"/>
<path d="M260.512 195.082H226.003V195.225H260.512V195.082Z" fill="#EBEBEB"/>
<path d="M162.9 192.043H127.247V192.187H162.9V192.043Z" fill="#EBEBEB"/>
<path d="M104.127 196.339H96.668V196.483H104.127V196.339Z" fill="#EBEBEB"/>
<path d="M145.339 196.339H111.374V196.483H145.339V196.339Z" fill="#EBEBEB"/>
<path d="M52.0005 193.916H30.0071V194.059H52.0005V193.916Z" fill="#EBEBEB"/>
<path d="M135.57 162.448H25.1222C23.3204 162.448 21.8561 160.978 21.8561 159.169V3.27941C21.8561 1.47028 23.3204 0 25.1222 0H135.575C137.377 0 138.842 1.47028 138.842 3.27941V159.169C138.836 160.978 137.372 162.448 135.57 162.448ZM25.1222 0.143582C23.4005 0.143582 21.9991 1.55068 21.9991 3.27941V159.169C21.9991 160.898 23.4005 162.305 25.1222 162.305H135.575C137.297 162.305 138.699 160.898 138.699 159.169V3.27941C138.699 1.55068 137.297 0.143582 135.575 0.143582H25.1222Z" fill="#EBEBEB"/>
<path d="M259.293 162.448H148.84C147.038 162.448 145.574 160.978 145.574 159.169V3.27941C145.574 1.47028 147.038 0 148.84 0H259.293C261.095 0 262.559 1.47028 262.559 3.27941V159.169C262.559 160.978 261.095 162.448 259.293 162.448ZM148.84 0.143582C147.118 0.143582 145.717 1.55068 145.717 3.27941V159.169C145.717 160.898 147.118 162.305 148.84 162.305H259.293C261.015 162.305 262.416 160.898 262.416 159.169V3.27941C262.416 1.55068 261.015 0.143582 259.293 0.143582H148.84Z" fill="#EBEBEB"/>
<path d="M112.089 138.246H74.1083L71.8032 111.54H109.784L112.089 138.246Z" fill="#E6E6E6"/>
<path d="M114.057 138.246H76.076L73.7708 111.54H111.752L114.057 138.246Z" fill="#F0F0F0"/>
<path d="M81.2697 132.515L79.9999 117.278H106.558L107.828 132.515H81.2697Z" fill="white"/>
<path d="M120.629 138.246H116.173V188.058H120.629V138.246Z" fill="#E6E6E6"/>
<path d="M122.036 138.246H118.942V188.058H122.036V138.246Z" fill="#F0F0F0"/>
<path d="M78.9002 143.749H122.035V138.253H78.9002V143.749Z" fill="#F0F0F0"/>
<path d="M80.4232 143.748H75.9673V188.064H80.4232V143.748Z" fill="#E6E6E6"/>
<path d="M81.8303 143.748H78.7358V188.064H81.8303V143.748Z" fill="#F0F0F0"/>
<path d="M48.7058 143.748H44.2499V188.064H48.7058V143.748Z" fill="#E6E6E6"/>
<path d="M50.1129 143.748H47.0184V188.064H50.1129V143.748Z" fill="#F0F0F0"/>
<path d="M92.4294 143.748H87.9736V188.064H92.4294V143.748Z" fill="#E6E6E6"/>
<path d="M93.8309 143.748H90.7364V188.064H93.8309V143.748Z" fill="#F0F0F0"/>
<path d="M78.9017 138.246H44.2499V143.743H78.9017V138.246Z" fill="#E6E6E6"/>
<path d="M208.116 14.0481H74.0797V88.9748H208.116V14.0481Z" fill="#E0E0E0"/>
<path d="M215.478 14.0481H74.7547V88.9748H215.478V14.0481Z" fill="#F5F5F5"/>
<path d="M213.177 86.6659V16.3568L77.0527 16.3568V86.6659L213.177 86.6659Z" fill="white"/>
<path d="M132.172 86.6661L157.872 16.3569H115.458L89.7582 86.6661H132.172Z" fill="#F5F5F5"/>
<path d="M172.996 86.6661L198.696 16.3569H166.698L140.998 86.6661H172.996Z" fill="#F5F5F5"/>
<path d="M250.599 116.502H239.205V188.063H250.599V116.502Z" fill="#E6E6E6"/>
<path d="M247.602 188.063H250.599V182.55H244.461L247.602 188.063Z" fill="#FAFAFA"/>
<path d="M145.551 116.502H134.157V188.063H145.551V116.502Z" fill="#E6E6E6"/>
<path d="M250.599 116.502H142.931V186.576H250.599V116.502Z" fill="#FAFAFA"/>
<path d="M248.563 139.114H144.973V119.322H248.563V139.114ZM145.545 138.539H247.991V119.897H145.545V138.539Z" fill="#E6E6E6"/>
<path d="M230.327 128.931H165.216C162.191 128.931 159.279 126.484 157.231 122.211L157.031 121.798H238.501L238.301 122.211C236.259 126.478 233.347 128.931 230.327 128.931ZM157.952 122.372C159.885 126.18 162.517 128.356 165.216 128.356H230.321C233.021 128.356 235.653 126.185 237.592 122.372H157.952Z" fill="#E6E6E6"/>
<path d="M145.929 188.063H142.931V182.55H149.069L145.929 188.063Z" fill="#FAFAFA"/>
<path d="M248.563 161.432H144.973V141.641H248.563V161.432ZM145.545 160.858H247.991V142.215H145.545V160.858Z" fill="#E6E6E6"/>
<path d="M230.327 151.249H165.216C162.191 151.249 159.279 148.802 157.231 144.529L157.031 144.116H238.501L238.301 144.529C236.259 148.802 233.347 151.249 230.327 151.249ZM157.952 144.696C159.885 148.504 162.517 150.675 165.216 150.675H230.321C233.021 150.675 235.653 148.504 237.592 144.696H157.952Z" fill="#E6E6E6"/>
<path d="M248.563 183.756H144.973V163.965H248.563V183.756ZM145.545 183.182H247.991V164.539H145.545V183.182Z" fill="#E6E6E6"/>
<path d="M230.327 173.573H165.216C162.191 173.573 159.279 171.127 157.231 166.854L157.031 166.44H238.501L238.301 166.854C236.259 171.127 233.347 173.573 230.327 173.573ZM157.952 167.02C159.885 170.828 162.517 173.005 165.216 173.005H230.321C233.021 173.005 235.653 170.834 237.592 167.02H157.952Z" fill="#E6E6E6"/>
<path d="M69.2006 125.967V127.357H68.314L67.5875 138.246H56.811L56.0846 127.357H55.198V125.967H69.2006Z" fill="#E6E6E6"/>
<path d="M65.6541 98.9337C64.7675 92.4438 56.0503 90.5945 44.9821 90.3532C34.4516 90.1293 31.0768 86.3846 31.0768 86.3846C31.0768 86.3846 31.1111 101.535 46.2862 107.02C60.6949 112.229 66.5407 105.435 65.6541 98.9337Z" fill="#E6E6E6"/>
<path d="M60.2774 113.642C60.4604 110.972 64.7046 106.067 74.9148 108.301C82.2936 109.915 85.0392 106.073 85.0392 106.073C85.0392 106.073 84.3586 116.916 73.256 120.178C62.7141 123.268 59.9513 118.334 60.2774 113.642Z" fill="#E6E6E6"/>
<path d="M62.6054 130.057C62.7198 130.057 62.8285 130.011 62.9085 129.919C63.6464 129.04 63.0458 126.938 62.205 124.026C61.1296 120.293 59.7911 115.641 60.9237 112.27C61.5643 110.363 62.3537 108.686 63.1202 107.06C64.7218 103.66 66.106 100.72 64.9506 97.653C64.8762 97.4462 64.6474 97.3486 64.4415 97.4233C64.2356 97.4979 64.1383 97.7277 64.2127 97.9344C65.248 100.691 63.9953 103.35 62.4052 106.727C61.6673 108.295 60.8265 110.076 60.1744 112.023C58.9617 115.635 60.3403 120.414 61.4442 124.256C62.0963 126.519 62.7713 128.862 62.3022 129.419C62.1592 129.586 62.1821 129.833 62.348 129.976C62.4281 130.028 62.5139 130.057 62.6054 130.057Z" fill="#E6E6E6"/>
<path d="M143 214C204.251 214 253.905 211.089 253.905 207.499C253.905 203.908 204.251 200.997 143 200.997C81.7488 200.997 32.0949 203.908 32.0949 207.499C32.0949 211.089 81.7488 214 143 214Z" fill="#F5F5F5"/>
<path d="M142.977 175.802H61.7531L57.3087 44.6425H138.533L142.977 175.802Z" fill="#407BFF"/>
<path d="M147.033 171.73H65.8086L61.3584 40.5704H142.582L147.033 171.73Z" fill="#407BFF"/>
<path opacity="0.3" d="M147.033 171.73H65.8086L61.3584 40.5704H142.582L147.033 171.73Z" fill="white"/>
<path d="M119.823 94.5509C128.52 85.6684 128.151 71.1431 118.998 62.1077C109.845 53.0722 95.3748 52.9482 86.6772 61.8307C77.9796 70.7132 78.3486 85.2385 87.5015 94.2739C96.6543 103.309 111.125 103.433 119.823 94.5509Z" fill="#407BFF"/>
<path d="M122.105 78.1889C122.214 81.4568 121.493 84.5294 120.131 87.2058C117.151 93.1041 111.06 97.1187 103.892 97.1187C96.7252 97.1187 90.3589 93.1041 86.9783 87.2058C85.4339 84.5294 84.5073 81.4568 84.3929 78.1889C84.0383 67.7304 92.1893 59.2533 102.605 59.2533C113.021 59.2533 121.75 67.7304 122.105 78.1889Z" fill="white"/>
<path opacity="0.6" d="M120.131 87.2058C117.151 93.1041 111.06 97.1187 103.892 97.1187C96.7252 97.1187 90.3589 93.1041 86.9783 87.2058C91.6173 84.024 97.2515 82.1632 103.383 82.1632C109.515 82.1632 115.275 84.0183 120.131 87.2058Z" fill="#407BFF"/>
<path opacity="0.6" d="M109.126 77.7249C112.325 74.4587 112.189 69.1176 108.823 65.7952C105.458 62.4728 100.137 62.4272 96.9386 65.6934C93.7404 68.9595 93.8761 74.3006 97.2417 77.6231C100.607 80.9455 105.928 80.991 109.126 77.7249Z" fill="#407BFF"/>
<path d="M130.713 124.233H78.9017L78.5528 113.895H130.365L130.713 124.233Z" fill="white"/>
<path d="M131.343 142.709H79.5252L79.1762 132.371H130.994L131.343 142.709Z" fill="white"/>
<path d="M111.346 133.795L98.8588 135.501C98.344 135.57 98.0065 136.041 98.1037 136.54L99.7454 144.943C99.8426 145.443 100.34 145.799 100.855 145.724L113.342 144.018C113.857 143.949 114.194 143.484 114.097 142.979L112.455 134.576C112.358 134.077 111.855 133.721 111.346 133.795ZM107.759 142.301L105.5 142.611L105.271 139.9C104.79 139.688 104.441 139.257 104.344 138.752C104.184 137.93 104.739 137.166 105.574 137.057C106.409 136.942 107.221 137.517 107.382 138.338C107.479 138.844 107.313 139.343 106.935 139.671L107.759 142.301Z" fill="#407BFF"/>
<path d="M110.11 133.342C109.652 133.405 109.212 133.095 109.126 132.647L108.966 131.825C108.526 129.562 106.369 127.851 104.035 128.058C101.541 128.276 99.8712 130.487 100.335 132.876L100.518 133.818C100.603 134.266 100.306 134.68 99.8483 134.737C99.3907 134.8 98.9503 134.49 98.8645 134.042L98.71 133.238C98.0923 130.085 100.071 127.053 103.269 126.49C106.632 125.904 109.95 128.178 110.59 131.463L110.774 132.405C110.865 132.865 110.568 133.278 110.11 133.342Z" fill="#407BFF"/>
<path d="M122.791 157.188H89.0604L88.8316 150.456H122.562L122.791 157.188Z" fill="#407BFF"/>
<path d="M106.518 119.064C106.552 120.109 105.74 120.953 104.699 120.953C103.658 120.953 102.788 120.109 102.754 119.064C102.72 118.018 103.532 117.174 104.573 117.174C105.614 117.174 106.484 118.018 106.518 119.064Z" fill="#263238"/>
<path d="M98.4069 119.064C98.4412 120.109 97.629 120.953 96.5879 120.953C95.5469 120.953 94.6775 120.109 94.6431 119.064C94.6088 118.018 95.4211 117.174 96.4621 117.174C97.5031 117.174 98.3726 118.018 98.4069 119.064Z" fill="#263238"/>
<path d="M90.3016 119.064C90.336 120.109 89.5237 120.953 88.4827 120.953C87.4416 120.953 86.5722 120.109 86.5379 119.064C86.5036 118.018 87.3158 117.174 88.3568 117.174C89.3979 117.174 90.2673 118.018 90.3016 119.064Z" fill="#263238"/>
<path d="M114.623 119.064C114.657 120.109 113.845 120.953 112.804 120.953C111.763 120.953 110.894 120.109 110.859 119.064C110.825 118.018 111.637 117.174 112.678 117.174C113.719 117.174 114.589 118.018 114.623 119.064Z" fill="#263238"/>
<path d="M122.728 119.064C122.763 120.109 121.95 120.953 120.909 120.953C119.868 120.953 118.999 120.109 118.965 119.064C118.93 118.018 119.742 117.174 120.784 117.174C121.825 117.174 122.694 118.018 122.728 119.064Z" fill="#263238"/>
<path d="M190.996 68.5344C191.757 69.7577 192.392 70.9351 193.044 72.1584C193.696 73.3703 194.285 74.6108 194.863 75.8686C196.001 78.3841 197.02 80.9801 197.78 83.7541C197.883 84.0929 197.958 84.4548 198.044 84.8109L198.169 85.345L198.232 85.6092L198.307 86.0457C198.473 87.2115 198.324 88.1649 198.129 89.0034C197.717 90.6747 197.06 92.0129 196.35 93.2879C194.903 95.8092 193.216 97.9572 191.265 99.9903L188.857 98.1582C190.047 95.8954 191.22 93.5234 192.083 91.2433C192.501 90.1119 192.855 88.9575 192.958 88.0099C193.01 87.5447 192.976 87.1426 192.913 86.9933L192.684 86.2926C192.592 86.0055 192.507 85.7183 192.392 85.4254C191.568 83.1051 190.522 80.7791 189.378 78.4875C188.251 76.2017 187.004 73.8757 185.78 71.699L190.996 68.5344Z" fill="#FF8B7B"/>
<path d="M189.469 97.3312L186.844 98.7325L189.864 102.282C189.864 102.282 191.752 101.001 191.832 99.0484L189.469 97.3312Z" fill="#FF8B7B"/>
<path d="M183.309 100.921L186.541 103.499L189.858 102.282L186.838 98.7325L183.309 100.921Z" fill="#FF8B7B"/>
<path d="M172.258 49.7425C172.195 50.0641 171.972 50.2881 171.766 50.2422C171.56 50.202 171.44 49.909 171.508 49.5874C171.571 49.2658 171.794 49.0418 172 49.0878C172.206 49.1337 172.321 49.4266 172.258 49.7425Z" fill="#263238"/>
<path d="M172 50.2938C172 50.2938 170.902 51.9881 169.93 52.7175C170.387 53.3607 171.388 53.3148 171.388 53.3148L172 50.2938Z" fill="#FF5652"/>
<path d="M170.971 61.5621L170.994 57.8003L175.959 58.4033C175.959 58.4033 175.873 61.6425 173.099 62.5902L170.971 61.5621Z" fill="#FF8B7B"/>
<path d="M172.401 55.0837L175.896 56.0946L175.959 58.3976L170.994 57.7946L172.401 55.0837Z" fill="#FF8B7B"/>
<path opacity="0.2" d="M175.896 56.0946L172.401 55.0837L171.72 56.3932C171.806 58.6159 173.156 60.4422 174.946 61.2635C175.919 59.9827 175.959 58.3976 175.959 58.3976L175.896 56.0946Z" fill="black"/>
<path d="M173.779 48.209C173.825 48.209 173.871 48.1918 173.911 48.1573C173.991 48.0884 173.991 47.9621 173.922 47.8874C173.207 47.1121 172.338 47.2499 172.304 47.2556C172.201 47.2729 172.132 47.3705 172.149 47.4739C172.166 47.5773 172.269 47.6462 172.366 47.629C172.395 47.6232 173.076 47.5256 173.648 48.1459C173.682 48.1861 173.728 48.209 173.779 48.209Z" fill="#263238"/>
<path d="M181.089 55.5547C180.512 58.5125 180.163 62.6074 182.222 64.5774C182.222 64.5774 181.416 67.5754 175.947 67.5754C169.935 67.5754 173.053 64.9449 173.053 64.9449C175.553 64.1638 175.53 61.3094 174.958 59.0121L181.089 55.5547Z" fill="#FF8B7B"/>
<path d="M183.349 66.5531C183.887 65.7892 183.864 63.3828 183.292 62.9636C182.371 62.2801 178.418 62.1193 173.099 63.3484C173.671 65.6801 172.447 66.8977 172.447 66.8977L183.349 66.5531Z" fill="#407BFF"/>
<path d="M201.23 202.898C200.823 202.984 200.423 203.007 200.229 202.841C200.148 202.772 200.063 202.64 200.137 202.399C200.177 202.272 200.257 202.175 200.383 202.117C200.926 201.859 202.173 202.37 202.231 202.387C202.265 202.399 202.288 202.433 202.288 202.473C202.288 202.513 202.271 202.548 202.236 202.559C202.036 202.657 201.63 202.812 201.23 202.898ZM200.572 202.255C200.532 202.267 200.492 202.278 200.457 202.289C200.383 202.324 200.337 202.381 200.314 202.45C200.263 202.623 200.326 202.674 200.349 202.697C200.566 202.881 201.367 202.714 201.933 202.485C201.55 202.353 200.932 202.18 200.572 202.255Z" fill="#407BFF"/>
<path d="M202.208 202.577C202.191 202.582 202.179 202.577 202.162 202.577C201.704 202.445 200.732 201.75 200.721 201.29C200.721 201.21 200.749 201.055 200.966 200.98C201.109 200.928 201.247 200.94 201.39 201.014C201.927 201.29 202.265 202.41 202.282 202.456C202.294 202.491 202.282 202.525 202.259 202.554C202.242 202.559 202.225 202.571 202.208 202.577ZM201.069 201.147C201.058 201.152 201.041 201.152 201.029 201.158C200.909 201.198 200.915 201.256 200.915 201.284C200.921 201.554 201.561 202.1 202.036 202.318C201.916 201.997 201.647 201.359 201.304 201.181C201.218 201.141 201.144 201.129 201.069 201.147Z" fill="#407BFF"/>
<path d="M171.52 203.576C171.005 203.576 170.507 203.507 170.336 203.272C170.279 203.191 170.233 203.053 170.342 202.852C170.404 202.743 170.507 202.669 170.645 202.628C171.314 202.445 172.721 203.249 172.778 203.283C172.813 203.3 172.83 203.341 172.824 203.381C172.818 203.421 172.79 203.45 172.75 203.461C172.498 203.519 172.006 203.576 171.52 203.576ZM170.885 202.795C170.816 202.795 170.753 202.801 170.702 202.818C170.616 202.841 170.553 202.887 170.513 202.95C170.445 203.071 170.473 203.128 170.496 203.162C170.685 203.421 171.703 203.432 172.447 203.323C172.075 203.134 171.354 202.795 170.885 202.795Z" fill="#407BFF"/>
<path d="M172.738 203.467C172.727 203.467 172.71 203.467 172.698 203.461C172.212 203.243 171.251 202.37 171.325 201.91C171.343 201.801 171.417 201.669 171.68 201.641C171.875 201.623 172.052 201.675 172.206 201.807C172.715 202.226 172.824 203.318 172.83 203.364C172.835 203.398 172.818 203.432 172.79 203.45C172.778 203.461 172.755 203.467 172.738 203.467ZM171.754 201.83C171.737 201.83 171.714 201.83 171.697 201.836C171.526 201.853 171.514 201.922 171.514 201.945C171.468 202.221 172.126 202.904 172.618 203.203C172.567 202.887 172.424 202.232 172.086 201.956C171.983 201.87 171.875 201.83 171.754 201.83Z" fill="#407BFF"/>
<path d="M177.16 203.369H173.139L172.738 194.013H176.759L177.16 203.369Z" fill="#FF8B7B"/>
<path d="M206.692 201.503L202.757 202.358L198.81 193.64L202.745 192.79L206.692 201.503Z" fill="#FF8B7B"/>
<path d="M202.379 201.962L206.795 201.003C206.955 200.969 207.121 201.049 207.19 201.198L208.723 204.541C208.883 204.885 208.671 205.293 208.3 205.368C206.749 205.678 205.983 205.747 204.038 206.172C202.843 206.43 200.143 207.091 198.495 207.453C196.882 207.803 196.276 206.218 196.922 205.925C199.811 204.598 201.012 203.432 201.796 202.347C201.939 202.146 202.145 202.008 202.379 201.962Z" fill="#263238"/>
<path d="M173.167 202.904H177.56C177.726 202.904 177.869 203.019 177.903 203.18L178.699 206.769C178.779 207.143 178.498 207.493 178.121 207.487C176.536 207.458 174.248 207.367 172.252 207.367C169.924 207.367 167.911 207.493 165.182 207.493C163.529 207.493 163.071 205.816 163.764 205.667C166.91 204.977 169.484 204.903 172.201 203.22C172.492 203.036 172.818 202.904 173.167 202.904Z" fill="#263238"/>
<path d="M189.429 65.4905C193.199 66.3577 196.31 76.0236 196.31 76.0236L188.737 81.8186C188.737 81.8186 185.957 79.1882 184.722 74.3524C183.423 69.2868 185.574 64.6003 189.429 65.4905Z" fill="#407BFF"/>
<path opacity="0.4" d="M189.429 65.4905C193.199 66.3577 196.31 76.0236 196.31 76.0236L188.737 81.8186C188.737 81.8186 185.957 79.1882 184.722 74.3524C183.423 69.2868 185.574 64.6003 189.429 65.4905Z" fill="black"/>
<path d="M169.598 77.023C168.654 78.0453 167.716 78.947 166.749 79.8831C166.269 80.3484 165.771 80.8021 165.268 81.25L164.507 81.9163L164.318 82.0828C164.227 82.1632 164.113 82.2551 163.992 82.3528C163.741 82.5423 163.466 82.7548 162.888 83.0075C162.585 83.1281 162.191 83.2832 161.498 83.2947C161.172 83.3004 160.726 83.243 160.297 83.0822C159.863 82.9213 159.439 82.6399 159.153 82.3528C158.553 81.7497 158.375 81.2213 158.255 80.8652C158.147 80.4977 158.112 80.2392 158.089 80.0095C158.055 79.5615 158.078 79.2629 158.101 78.9815C158.129 78.7058 158.164 78.4646 158.209 78.2406C158.375 77.3561 158.616 76.6382 158.873 75.926C159.136 75.2196 159.422 74.5362 159.76 73.8527C160.12 73.1233 160.475 72.5892 160.824 71.9804C162.236 69.6084 163.895 67.4432 165.657 65.3986C167.459 63.3712 169.346 61.5162 171.52 59.8162L173.625 61.9929C172.143 63.98 170.69 66.1108 169.346 68.2071C168.002 70.3206 166.761 72.4743 165.686 74.6683C165.44 75.2081 165.136 75.7997 164.965 76.2534C164.765 76.7473 164.582 77.2814 164.427 77.8041C164.278 78.321 164.158 78.8608 164.101 79.2571C164.09 79.3548 164.084 79.4352 164.084 79.4869C164.084 79.5328 164.095 79.5558 164.09 79.4352C164.084 79.3663 164.078 79.2686 164.015 79.0619C163.947 78.8608 163.838 78.4818 163.357 77.9936C163.123 77.7639 162.774 77.5227 162.414 77.3963C162.065 77.2585 161.699 77.2183 161.453 77.2183C160.921 77.2298 160.686 77.3389 160.532 77.3963C160.251 77.5169 160.246 77.5514 160.246 77.5399L160.463 77.3389L161.15 76.7071L162.517 75.4206C163.42 74.5649 164.33 73.6517 165.194 72.8017L169.598 77.023Z" fill="#FF8B7B"/>
<path opacity="0.2" d="M186.197 72.6007C188.245 74.6338 188.914 78.344 189.075 81.566L188.743 81.8244C188.743 81.8244 185.963 79.1882 184.722 74.3581C184.647 74.0538 184.579 73.7551 184.527 73.4565L186.197 72.6007Z" fill="black"/>
<path d="M165.6 69.5395C164.776 73.9044 164.261 82.8639 166.652 100.616H188.171C188.32 97.2967 186.243 81.118 189.429 65.4905C189.429 65.4905 185.74 64.7496 182.228 64.5773C179.476 64.4452 175.495 64.3533 173.081 64.5773C172.075 64.6692 171.079 64.8186 170.199 64.9736C167.865 65.3871 166.04 67.2078 165.6 69.5395Z" fill="#407BFF"/>
<path opacity="0.4" d="M165.6 69.5395C164.776 73.9044 164.261 82.8639 166.652 100.616H188.171C188.32 97.2967 186.243 81.118 189.429 65.4905C189.429 65.4905 185.74 64.7496 182.228 64.5773C179.476 64.4452 175.495 64.3533 173.081 64.5773C172.075 64.6692 171.079 64.8186 170.199 64.9736C167.865 65.3871 166.04 67.2078 165.6 69.5395Z" fill="black"/>
<path opacity="0.2" d="M168.894 75.9893L165.005 75.0531C164.885 77.4193 164.873 80.3484 165.051 83.9724C166.835 81.9278 169.123 78.7403 168.894 75.9893Z" fill="black"/>
<path opacity="0.2" d="M172.738 194.019L172.944 198.844H176.971L176.765 194.019H172.738Z" fill="black"/>
<path opacity="0.2" d="M202.745 192.79L198.81 193.646L200.846 198.137L204.782 197.281L202.745 192.79Z" fill="black"/>
<path d="M183 51.2299C181.965 55.1009 181.559 57.4212 179.179 59.0293C175.598 61.453 171.142 58.6732 170.999 54.5668C170.874 50.8739 172.584 45.1593 176.725 44.3782C180.803 43.6144 184.035 47.359 183 51.2299Z" fill="#FF8B7B"/>
<path d="M173.974 51.3793C173.785 50.8624 172.893 46.8593 173.728 45.8198C174.563 44.7803 184.087 45.5269 185.494 46.9168C187.828 49.2256 186.209 51.2874 183.652 53.9408C181.73 55.9394 181.656 58.1908 180.683 58.5239C178.985 59.104 176.348 58.5584 175.816 56.7378C175.289 54.9171 173.974 51.3793 173.974 51.3793Z" fill="#263238"/>
<path d="M184.338 42.3681C180.975 40.9266 174.66 42.5232 171.257 41.6962C171.137 43.4708 172.201 46.308 175.61 47.0719C175.61 47.0719 180.449 48.0195 184.19 47.8644C187.931 47.7151 187.198 43.5914 184.338 42.3681Z" fill="#263238"/>
<path d="M184.865 47.0432C184.865 47.0432 186.947 47.2787 188.423 46.3597C189.057 47.8817 185.597 48.301 184.865 47.0432Z" fill="#263238"/>
<path d="M175.804 51.5401C175.741 52.5912 175.255 53.5733 174.672 54.2222C173.796 55.1929 172.881 54.5898 172.721 53.4067C172.584 52.3442 172.87 50.558 173.939 50.0239C175.003 49.4898 175.879 50.3398 175.804 51.5401Z" fill="#FF8B7B"/>
<path d="M174.283 100.616C174.283 100.616 178.847 131.486 181.353 143.053C184.098 155.717 198.816 197.62 198.816 197.62L206.017 196.052C206.017 196.052 195.727 161.903 193.422 144.196C191.654 130.596 188.165 100.611 188.165 100.611H174.283V100.616Z" fill="#407BFF"/>
<path d="M197.094 195.208C197.065 195.214 198.438 197.821 198.438 197.821L206.543 196.058L205.863 193.611L197.094 195.208Z" fill="#263238"/>
<path opacity="0.3" d="M177.171 111.615C182.451 112.654 181.89 132.423 181.255 142.588C179.734 135.403 177.503 121.574 175.982 111.758C176.33 111.58 176.725 111.529 177.171 111.615Z" fill="black"/>
<path d="M166.646 100.616C166.646 100.616 166.092 130.82 166.532 143.14C166.99 155.953 171.446 197.907 171.446 197.907H178.264C178.264 197.907 178.515 156.699 178.819 144.116C179.15 130.395 180.798 100.616 180.798 100.616H166.646Z" fill="#407BFF"/>
<path d="M170.136 195.179C170.107 195.179 170.519 198.022 170.519 198.022H178.807L179.03 195.489L170.136 195.179Z" fill="#263238"/>
<path d="M174.031 70.8663C175.959 76.0869 164.627 82.238 164.627 82.238L159.72 75.9031C159.72 75.9031 162.991 69.3615 167.013 66.4152C171.972 62.7683 172.561 66.8919 174.031 70.8663Z" fill="#407BFF"/>
<path opacity="0.4" d="M174.031 70.8663C175.959 76.0869 164.627 82.238 164.627 82.238L159.72 75.9031C159.72 75.9031 162.991 69.3615 167.013 66.4152C171.972 62.7683 172.561 66.8919 174.031 70.8663Z" fill="black"/>
<path d="M218.43 31.2319C229.831 31.2319 239.073 25.3178 239.073 18.0224C239.073 10.727 229.831 4.81287 218.43 4.81287C207.029 4.81287 197.786 10.727 197.786 18.0224C197.786 25.3178 207.029 31.2319 218.43 31.2319Z" fill="#407BFF"/>
<path d="M210.982 24.6732C209.838 24.6732 208.717 24.3286 207.745 23.6623C206.441 22.7721 205.577 21.4167 205.302 19.8546C204.787 16.8623 206.767 13.8873 209.712 13.2096C212.138 12.6582 214.603 13.6978 215.901 15.8055L229.155 13.0603C230.23 12.8363 231.317 13.4795 231.586 14.4961C231.729 15.0359 231.643 15.593 231.351 16.064C231.059 16.5349 230.602 16.8566 230.058 16.9714L229.709 17.0461C229.606 17.0691 229.521 17.1322 229.469 17.2241C229.418 17.316 229.412 17.4251 229.446 17.5228L229.681 18.1316C229.841 18.5451 229.692 19.0103 229.326 19.2343C229.046 19.4123 228.851 19.7167 228.811 20.0441C228.766 20.4519 228.497 20.762 228.125 20.8424L227.85 20.8998C227.479 20.9745 227.107 20.7964 226.907 20.4404C226.666 20.0269 226.192 19.8143 225.723 19.912C225.254 20.0096 224.899 20.3944 224.842 20.8711C224.796 21.2789 224.521 21.589 224.15 21.6694L223.881 21.7269C223.515 21.8015 223.137 21.6235 222.937 21.2674C222.771 20.9802 222.474 20.7735 222.142 20.7275C221.719 20.6644 221.398 20.2968 221.381 19.8546L221.353 19.1998C221.347 19.0964 221.301 18.9988 221.215 18.9356C221.135 18.8725 221.032 18.8437 220.924 18.8667L216.702 19.7397C216.342 22.1404 214.54 24.0644 212.155 24.5583C211.766 24.633 211.371 24.6732 210.982 24.6732ZM209.838 13.7667C207.184 14.3697 205.405 17.0576 205.869 19.7512C206.109 21.1583 206.892 22.3816 208.065 23.1856C209.238 23.9897 210.656 24.2769 212.046 23.984C214.26 23.5245 215.913 21.7039 216.17 19.4525L216.193 19.2458L220.815 18.2866C221.084 18.2292 221.358 18.2981 221.576 18.4647C221.793 18.6312 221.919 18.8839 221.93 19.1596L221.959 19.8143C221.965 19.9809 222.085 20.1187 222.233 20.1417C222.742 20.2164 223.183 20.515 223.44 20.963C223.503 21.0721 223.623 21.1755 223.778 21.1468L224.047 21.0894C224.195 21.0606 224.27 20.9113 224.281 20.785C224.367 20.0613 224.905 19.4812 225.614 19.3319C226.323 19.1826 227.044 19.51 227.404 20.136C227.467 20.2451 227.587 20.3542 227.742 20.3198L228.016 20.2623C228.165 20.2336 228.239 20.0843 228.251 19.9637C228.308 19.4525 228.594 19.0045 229.029 18.7289C229.155 18.6485 229.206 18.4704 229.149 18.3211L228.914 17.7123C228.817 17.4596 228.834 17.1724 228.966 16.9312C229.097 16.69 229.326 16.5235 229.589 16.466L229.938 16.3914C230.327 16.311 230.653 16.0812 230.859 15.7481C231.065 15.4093 231.128 15.013 231.025 14.6282C230.836 13.9045 230.047 13.4508 229.263 13.6116L215.61 16.443L215.507 16.265C214.368 14.2606 212.092 13.2555 209.838 13.7667ZM210.988 22.5481C210.279 22.5481 209.587 22.3414 208.98 21.9394C208.162 21.3995 207.602 20.5725 207.407 19.6076C207.207 18.6427 207.396 17.6606 207.933 16.8393C208.471 16.018 209.295 15.4609 210.256 15.2599C211.217 15.0589 212.195 15.2484 213.013 15.7883C213.831 16.3282 214.386 17.1552 214.586 18.1201C214.786 19.085 214.597 20.0613 214.06 20.8826C213.522 21.7039 212.698 22.2667 211.737 22.462C211.486 22.5252 211.234 22.5481 210.988 22.5481ZM211.005 15.7653C210.793 15.7653 210.582 15.7883 210.37 15.8285C209.564 15.9951 208.866 16.4718 208.414 17.161C207.962 17.8559 207.802 18.6829 207.968 19.4927C208.134 20.3025 208.608 21.0032 209.295 21.4569C209.987 21.9106 210.811 22.0715 211.617 21.9049C212.429 21.7383 213.121 21.2617 213.573 20.5725C214.025 19.8775 214.185 19.0505 214.02 18.2407C213.854 17.4251 213.379 16.7302 212.692 16.2708C212.183 15.9376 211.6 15.7653 211.005 15.7653Z" fill="white"/>
<path opacity="0.6" d="M201.63 38.9796C205.377 38.9796 208.414 37.0357 208.414 34.6377C208.414 32.2397 205.377 30.2958 201.63 30.2958C197.883 30.2958 194.846 32.2397 194.846 34.6377C194.846 37.0357 197.883 38.9796 201.63 38.9796Z" fill="#407BFF"/>
<path opacity="0.3" d="M190.836 40.7543C192.375 40.7543 193.622 39.9572 193.622 38.9739C193.622 37.9906 192.375 37.1935 190.836 37.1935C189.298 37.1935 188.051 37.9906 188.051 38.9739C188.051 39.9572 189.298 40.7543 190.836 40.7543Z" fill="#407BFF"/>
</g>
<defs>
<clipPath id="clip0_185_2">
<rect width="286" height="214" fill="white"/>
</clipPath>
</defs>
</svg>
