<svg width="18" height="18" viewBox="0 0 18 18" fill="none" xmlns="http://www.w3.org/2000/svg">
<g clip-path="url(#clip0_79_28)">
<path d="M17.075 7.71668C16.9833 7.62501 16.9833 7.53334 16.8917 7.44168L15.0583 5.60834C14.6917 5.24168 14.1417 5.24168 13.775 5.60834C13.4083 5.97501 13.4083 6.52501 13.775 6.89168L14.05 7.16668H11.6667C11.1167 7.16668 10.75 7.53334 10.75 8.08334C10.75 8.63334 11.1167 9.00001 11.6667 9.00001H14.05L13.775 9.27501C13.4083 9.64168 13.4083 10.1917 13.775 10.5583C13.9583 10.7417 14.2333 10.8333 14.4167 10.8333C14.6 10.8333 14.875 10.7417 15.0583 10.5583L16.8917 8.72501C16.9833 8.63334 17.075 8.54168 17.075 8.45001C17.1667 8.17501 17.1667 7.99168 17.075 7.71668Z" fill="white"/>
<path d="M12.5834 10.8333C12.0334 10.8333 11.6667 11.2 11.6667 11.75V12.6667C11.6667 13.2167 11.3001 13.5833 10.7501 13.5833H9.83341V5.7C9.83341 4.50833 9.10008 3.5 8.09175 3.13333L6.62508 2.58333H10.7501C11.3001 2.58333 11.6667 2.95 11.6667 3.5V4.41667C11.6667 4.96667 12.0334 5.33333 12.5834 5.33333C13.1334 5.33333 13.5001 4.96667 13.5001 4.41667V3.5C13.5001 1.94167 12.3084 0.75 10.7501 0.75H1.58341C1.49175 0.75 1.40008 0.75 1.30841 0.841667C1.21675 0.841667 1.12508 0.933333 1.12508 0.933333L1.03341 1.025C0.941748 1.025 0.850081 1.11667 0.850081 1.20833V1.3C0.758415 1.3 0.666748 1.39167 0.666748 1.48333V14.5C0.666748 14.8667 0.941748 15.2333 1.21675 15.325L7.26675 17.6167C7.45008 17.7083 7.72508 17.7083 7.90841 17.7083C8.27508 17.7083 8.64175 17.6167 8.91675 17.3417C9.37508 16.975 9.74175 16.425 9.74175 15.875V15.4167H10.6584C12.2167 15.4167 13.4084 14.225 13.4084 12.6667V11.75C13.5001 11.2917 13.1334 10.8333 12.5834 10.8333ZM2.50008 13.8583V2.95L7.35841 4.78333C7.72508 4.96667 8.00008 5.33333 8.00008 5.7V15.875L2.50008 13.8583Z" fill="white"/>
</g>
<defs>
<clipPath id="clip0_79_28">
<rect width="18" height="18" fill="white"/>
</clipPath>
</defs>
</svg>
