<svg width="20" height="30" viewBox="0 0 20 30" fill="none" xmlns="http://www.w3.org/2000/svg">
<g clip-path="url(#clip0_57_218)">
<path d="M6.01071 13.2293V11.2098C6.01071 10.1927 6.86829 9.37317 7.93261 9.37317H12.0827C13.147 9.37317 14.0046 10.1927 14.0046 11.2098V13.2293H15.9035V11.2098C15.9035 9.19756 14.1884 7.55853 12.0827 7.55853H7.93261C5.82695 7.55853 4.11179 9.19756 4.11179 11.2098V13.2293H6.01071Z" fill="url(#paint0_linear_57_218)"/>
<path d="M10 30C15.5228 30 20 25.7216 20 20.4439C20 15.1662 15.5228 10.8878 10 10.8878C4.47715 10.8878 0 15.1662 0 20.4439C0 25.7216 4.47715 30 10 30Z" fill="url(#paint1_linear_57_218)"/>
<path d="M10 29.5171C15.2437 29.5171 19.4946 25.4549 19.4946 20.4439C19.4946 15.4329 15.2437 11.3707 10 11.3707C4.75625 11.3707 0.505356 15.4329 0.505356 20.4439C0.505356 25.4549 4.75625 29.5171 10 29.5171Z" fill="url(#paint2_linear_57_218)"/>
<path d="M10 28.1781C14.4699 28.1781 18.0934 24.7154 18.0934 20.4439C18.0934 16.1725 14.4699 12.7098 10 12.7098C5.53013 12.7098 1.90659 16.1725 1.90659 20.4439C1.90659 24.7154 5.53013 28.1781 10 28.1781Z" fill="url(#paint3_linear_57_218)"/>
<path opacity="0.45" d="M2.44257 20.9561C2.44257 16.6829 6.06432 13.222 10.536 13.222C12.634 13.222 14.5406 13.9903 15.9801 15.2415C14.5023 13.6903 12.3737 12.7098 10 12.7098C5.52833 12.7098 1.90659 16.1708 1.90659 20.4439C1.90659 22.7122 2.93262 24.7464 4.5559 26.1586C3.24655 24.7829 2.44257 22.961 2.44257 20.9561Z" fill="white"/>
<path opacity="0.67" d="M15.1302 14.4512C16.2787 15.7829 17.343 17.8537 17.343 19.7195C17.343 23.9927 13.7213 27.4537 9.24962 27.4537C7.30475 27.4537 5.13783 26.4293 3.7366 25.339C5.22205 27.0732 7.4732 28.1781 10 28.1781C14.4717 28.1781 18.0934 24.7171 18.0934 20.4439C18.1011 18.0293 16.9449 15.8707 15.1302 14.4512Z" fill="#933116"/>
<path d="M11.0796 0L7.46554 9.3439C7.27412 9.83415 7.65696 10.3463 8.20061 10.3463H8.95099L12.9479 0H11.0796Z" fill="#1268C6"/>
<path d="M12.9479 0L8.95099 10.3463H10.8193L14.8162 0H12.9479Z" fill="white"/>
<path d="M14.8162 0L11.7611 7.90244L10.8269 10.3317L10.8193 10.3463H12.1439C12.3277 10.3463 12.4962 10.2878 12.634 10.178C12.7412 10.0976 12.8254 9.99512 12.879 9.86341L16.6922 0H14.8162Z" fill="#EB3723"/>
<path opacity="0.69" d="M13.8744 7.30247L12.8867 9.85613C12.8331 9.98783 12.7488 10.0903 12.6416 10.1708C12.5038 10.2805 12.3354 10.3391 12.1516 10.3391H8.2006C7.65696 10.3391 7.28177 9.81954 7.46554 9.33661L11.0643 0.0292969L13.8744 7.30247Z" fill="url(#paint4_linear_57_218)"/>
<path d="M8.71363 0H6.83768L10.827 10.3317L10.8346 10.3463H12.1516C12.3354 10.3463 12.5038 10.2878 12.6417 10.178L11.7611 7.90976L8.71363 0Z" fill="#1268C6"/>
<path d="M4.96938 0L8.96631 10.3463H10.8346L6.83768 0H4.96938Z" fill="white"/>
<path d="M3.09341 0L6.89893 9.8561C7.01378 10.1488 7.30475 10.3463 7.634 10.3463H8.95865L4.96937 0H3.09341Z" fill="#EB3723"/>
<path d="M13.1394 21.717C13.1394 23.2683 11.807 24.3439 9.7167 24.3439C8.49158 24.3439 7.22053 23.9561 6.40123 23.3561L7.28944 21.739C7.94794 22.3902 8.74426 22.7341 9.54824 22.7341C10.4747 22.7341 10.9878 22.3683 10.9878 21.739C10.9878 21.0951 10.4747 20.7658 9.53293 20.7658H8.11639V19.639L10.0842 17.839H6.85299L6.83768 16.2219H12.7259V17.4366L10.4594 19.4561L10.8806 19.5146C12.2052 19.7122 13.1394 20.4878 13.1394 21.717Z" fill="#6D2B07"/>
</g>
<defs>
<linearGradient id="paint0_linear_57_218" x1="4.10643" y1="10.3923" x2="15.8971" y2="10.3923" gradientUnits="userSpaceOnUse">
<stop stop-color="#91410D"/>
<stop offset="1" stop-color="#CC8139"/>
</linearGradient>
<linearGradient id="paint1_linear_57_218" x1="14.744" y1="24.9719" x2="4.73683" y2="14.5" gradientUnits="userSpaceOnUse">
<stop stop-color="#91410D"/>
<stop offset="1" stop-color="#CC8139"/>
</linearGradient>
<linearGradient id="paint2_linear_57_218" x1="4.53369" y1="15.2149" x2="16.645" y2="27.8888" gradientUnits="userSpaceOnUse">
<stop stop-color="#91410D"/>
<stop offset="1" stop-color="#CC8139"/>
</linearGradient>
<linearGradient id="paint3_linear_57_218" x1="19.8401" y1="29.8419" x2="1.15519" y2="10.289" gradientUnits="userSpaceOnUse">
<stop stop-color="#91410D"/>
<stop offset="1" stop-color="#CC8139"/>
</linearGradient>
<linearGradient id="paint4_linear_57_218" x1="12.2664" y1="4.92691" x2="10.4238" y2="5.86342" gradientUnits="userSpaceOnUse">
<stop stop-color="white"/>
<stop offset="1" stop-color="#121E3D"/>
</linearGradient>
<clipPath id="clip0_57_218">
<rect width="20" height="30" fill="white"/>
</clipPath>
</defs>
</svg>
