<svg width="18" height="29" viewBox="0 0 18 29" fill="none" xmlns="http://www.w3.org/2000/svg">
<g clip-path="url(#clip0_57_113)">
<path d="M5.40965 12.7883V10.8361C5.40965 9.85292 6.18147 9.06073 7.13936 9.06073H10.8744C11.8323 9.06073 12.6041 9.85292 12.6041 10.8361V12.7883H14.3132V10.8361C14.3132 8.89097 12.7695 7.30658 10.8744 7.30658H7.13936C5.24426 7.30658 3.70061 8.89097 3.70061 10.8361V12.7883H5.40965Z" fill="url(#paint0_linear_57_113)"/>
<path d="M9 29C13.9706 29 18 24.8642 18 19.7625C18 14.6607 13.9706 10.5249 9 10.5249C4.02944 10.5249 0 14.6607 0 19.7625C0 24.8642 4.02944 29 9 29Z" fill="url(#paint1_linear_57_113)"/>
<path d="M9 28.5332C13.7194 28.5332 17.5452 24.6064 17.5452 19.7624C17.5452 14.9185 13.7194 10.9917 9 10.9917C4.28063 10.9917 0.454826 14.9185 0.454826 19.7624C0.454826 24.6064 4.28063 28.5332 9 28.5332Z" fill="url(#paint2_linear_57_113)"/>
<path d="M9 27.2388C13.0229 27.2388 16.2841 23.8915 16.2841 19.7624C16.2841 15.6333 13.0229 12.2861 9 12.2861C4.97712 12.2861 1.71593 15.6333 1.71593 19.7624C1.71593 23.8915 4.97712 27.2388 9 27.2388Z" fill="url(#paint3_linear_57_113)"/>
<path opacity="0.45" d="M2.19832 20.2575C2.19832 16.1268 5.45789 12.7812 9.48239 12.7812C11.3706 12.7812 13.0865 13.5239 14.3821 14.7334C13.0521 13.2339 11.1363 12.2861 9 12.2861C4.9755 12.2861 1.71593 15.6317 1.71593 19.7624C1.71593 21.9551 2.63936 23.9214 4.10031 25.2866C2.9219 23.9568 2.19832 22.1956 2.19832 20.2575Z" fill="white"/>
<path opacity="0.67" d="M13.6171 13.9695C14.6508 15.2568 15.6087 17.2585 15.6087 19.0622C15.6087 23.1929 12.3492 26.5385 8.32465 26.5385C6.57427 26.5385 4.62404 25.5483 3.36294 24.4944C4.69984 26.1707 6.72588 27.2387 9 27.2387C13.0245 27.2387 16.2841 23.8931 16.2841 19.7624C16.291 17.4283 15.2504 15.3417 13.6171 13.9695Z" fill="#F44B16"/>
<g opacity="0.67">
<path d="M10.4265 15.5468V23.971H8.28331V17.3505H6.70521V15.5468H10.4265Z" fill="#CC3911"/>
</g>
<path d="M9.97167 0L6.71899 9.03244C6.54671 9.50634 6.89127 10.0015 7.38055 10.0015H8.0559L11.6531 0H9.97167Z" fill="#1268C6"/>
<path d="M11.6531 0L8.05589 10.0015H9.73736L13.3346 0H11.6531Z" fill="white"/>
<path d="M13.3346 0L10.585 7.63902L9.74426 9.98732L9.73737 10.0015H10.9296C11.0949 10.0015 11.2466 9.94488 11.3706 9.83878C11.4671 9.76098 11.5429 9.66195 11.5911 9.53463L15.023 0H13.3346Z" fill="#EB3723"/>
<path opacity="0.69" d="M12.487 7.05905L11.598 9.52759C11.5498 9.65491 11.474 9.75393 11.3775 9.83174C11.2534 9.93783 11.1018 9.99442 10.9364 9.99442H7.38055C6.89127 9.99442 6.55359 9.49222 6.71899 9.02539L9.95788 0.0283203L12.487 7.05905Z" fill="url(#paint4_linear_57_113)"/>
<path d="M7.84227 0H6.15391L9.74426 9.98732L9.75115 10.0015H10.9364C11.1018 10.0015 11.2534 9.94488 11.3775 9.83878L10.585 7.6461L7.84227 0Z" fill="#1268C6"/>
<path d="M4.47243 0L8.06968 10.0015H9.75115L6.15391 0H4.47243Z" fill="white"/>
<path d="M2.78407 0L6.20903 9.52756C6.3124 9.81049 6.57427 10.0015 6.8706 10.0015H8.06279L4.47243 0H2.78407Z" fill="#EB3723"/>
</g>
<defs>
<linearGradient id="paint0_linear_57_113" x1="3.69579" y1="10.0459" x2="14.3074" y2="10.0459" gradientUnits="userSpaceOnUse">
<stop stop-color="#F78614"/>
<stop offset="1" stop-color="#FFBE06"/>
</linearGradient>
<linearGradient id="paint1_linear_57_113" x1="13.2696" y1="24.1396" x2="3.58932" y2="14.7083" gradientUnits="userSpaceOnUse">
<stop stop-color="#F78614"/>
<stop offset="1" stop-color="#FFBE06"/>
</linearGradient>
<linearGradient id="paint2_linear_57_113" x1="4.08032" y1="14.7077" x2="15.796" y2="26.1221" gradientUnits="userSpaceOnUse">
<stop stop-color="#F78614"/>
<stop offset="1" stop-color="#FFBE06"/>
</linearGradient>
<linearGradient id="paint3_linear_57_113" x1="17.8561" y1="28.8472" x2="-0.218478" y2="11.2374" gradientUnits="userSpaceOnUse">
<stop stop-color="#F78614"/>
<stop offset="1" stop-color="#FFBE06"/>
</linearGradient>
<linearGradient id="paint4_linear_57_113" x1="11.0397" y1="4.76268" x2="9.33479" y2="5.56947" gradientUnits="userSpaceOnUse">
<stop stop-color="white"/>
<stop offset="1" stop-color="#121E3D"/>
</linearGradient>
<clipPath id="clip0_57_113">
<rect width="18" height="29" fill="white"/>
</clipPath>
</defs>
</svg>
