<svg width="18" height="29" viewBox="0 0 18 29" fill="none" xmlns="http://www.w3.org/2000/svg">
<g clip-path="url(#clip0_57_138)">
<path d="M5.40965 12.7883V10.8361C5.40965 9.85292 6.18147 9.06073 7.13936 9.06073H10.8744C11.8323 9.06073 12.6041 9.85292 12.6041 10.8361V12.7883H14.3132V10.8361C14.3132 8.89097 12.7695 7.30658 10.8744 7.30658H7.13936C5.24426 7.30658 3.70061 8.89097 3.70061 10.8361V12.7883H5.40965Z" fill="url(#paint0_linear_57_138)"/>
<path d="M9 29C13.9706 29 18 24.8642 18 19.7625C18 14.6607 13.9706 10.5249 9 10.5249C4.02944 10.5249 0 14.6607 0 19.7625C0 24.8642 4.02944 29 9 29Z" fill="url(#paint1_linear_57_138)"/>
<path d="M9 28.5332C13.7194 28.5332 17.5452 24.6064 17.5452 19.7624C17.5452 14.9185 13.7194 10.9917 9 10.9917C4.28063 10.9917 0.454823 14.9185 0.454823 19.7624C0.454823 24.6064 4.28063 28.5332 9 28.5332Z" fill="url(#paint2_linear_57_138)"/>
<path d="M9 27.2388C13.0229 27.2388 16.2841 23.8915 16.2841 19.7624C16.2841 15.6333 13.0229 12.2861 9 12.2861C4.97712 12.2861 1.71593 15.6333 1.71593 19.7624C1.71593 23.8915 4.97712 27.2388 9 27.2388Z" fill="url(#paint3_linear_57_138)"/>
<path opacity="0.45" d="M2.19832 20.2575C2.19832 16.1268 5.45789 12.7812 9.48239 12.7812C11.3706 12.7812 13.0865 13.5239 14.3821 14.7334C13.0521 13.2339 11.1363 12.2861 9 12.2861C4.9755 12.2861 1.71593 15.6317 1.71593 19.7624C1.71593 21.9551 2.63936 23.9214 4.10031 25.2866C2.9219 23.9568 2.19832 22.1956 2.19832 20.2575Z" fill="white"/>
<path opacity="0.67" d="M13.6171 13.9695C14.6508 15.2568 15.6087 17.2585 15.6087 19.0622C15.6087 23.1929 12.3492 26.5385 8.32465 26.5385C6.57427 26.5385 4.62404 25.5483 3.36294 24.4944C4.69984 26.1707 6.72588 27.2387 9 27.2387C13.0245 27.2387 16.2841 23.8931 16.2841 19.7624C16.291 17.4283 15.2504 15.3417 13.6171 13.9695Z" fill="#F44B16"/>
<g opacity="0.67">
<path d="M10.4265 15.5468V23.971H8.28331V17.3505H6.70521V15.5468H10.4265Z" fill="#CC3911"/>
</g>
<path d="M9.97167 0L6.71899 9.03244C6.54671 9.50634 6.89127 10.0015 7.38055 10.0015H8.0559L11.6531 0H9.97167Z" fill="#1268C6"/>
<path d="M11.6531 0L8.05589 10.0015H9.73736L13.3346 0H11.6531Z" fill="white"/>
<path d="M13.3346 0L10.585 7.63902L9.74426 9.98732L9.73737 10.0015H10.9296C11.0949 10.0015 11.2466 9.94488 11.3706 9.83878C11.4671 9.76098 11.5429 9.66195 11.5911 9.53463L15.023 0H13.3346Z" fill="#EB3723"/>
<path opacity="0.69" d="M12.487 7.05905L11.598 9.52759C11.5498 9.65491 11.474 9.75393 11.3775 9.83174C11.2534 9.93783 11.1018 9.99442 10.9364 9.99442H7.38055C6.89127 9.99442 6.55359 9.49222 6.71899 9.02539L9.95788 0.0283203L12.487 7.05905Z" fill="url(#paint4_linear_57_138)"/>
<path d="M7.84227 0H6.15391L9.74426 9.98732L9.75115 10.0015H10.9364C11.1018 10.0015 11.2534 9.94488 11.3775 9.83878L10.585 7.6461L7.84227 0Z" fill="#1268C6"/>
<path d="M4.47243 0L8.06968 10.0015H9.75115L6.15391 0H4.47243Z" fill="white"/>
<path d="M2.78407 0L6.20903 9.52756C6.3124 9.81049 6.57427 10.0015 6.8706 10.0015H8.06279L4.47243 0H2.78407Z" fill="#EB3723"/>
<g clip-path="url(#clip1_57_138)">
<path d="M5.40965 13.3161V11.436C5.40965 10.4891 6.18147 9.72619 7.13936 9.72619H10.8744C11.8323 9.72619 12.6041 10.4891 12.6041 11.436V13.3161H14.3132V11.436C14.3132 9.5627 12.7695 8.0368 10.8744 8.0368H7.13936C5.24426 8.0368 3.70061 9.5627 3.70061 11.436V13.3161H5.40965Z" fill="url(#paint5_linear_57_138)"/>
<path d="M9 28.9293C13.9706 28.9293 18 24.9462 18 20.0328C18 15.1194 13.9706 11.1363 9 11.1363C4.02944 11.1363 0 15.1194 0 20.0328C0 24.9462 4.02944 28.9293 9 28.9293Z" fill="url(#paint6_linear_57_138)"/>
<path d="M9 28.4797C13.7194 28.4797 17.5452 24.6979 17.5452 20.0328C17.5452 15.3677 13.7194 11.5859 9 11.5859C4.28063 11.5859 0.454823 15.3677 0.454823 20.0328C0.454823 24.6979 4.28063 28.4797 9 28.4797Z" fill="url(#paint7_linear_57_138)"/>
<path d="M9 27.2331C13.0229 27.2331 16.2841 24.0095 16.2841 20.0328C16.2841 16.0562 13.0229 12.8325 9 12.8325C4.97712 12.8325 1.71593 16.0562 1.71593 20.0328C1.71593 24.0095 4.97712 27.2331 9 27.2331Z" fill="url(#paint8_linear_57_138)"/>
<path opacity="0.45" d="M2.19832 20.5097C2.19832 16.5315 5.45789 13.3094 9.48239 13.3094C11.3706 13.3094 13.0865 14.0246 14.3821 15.1895C13.0521 13.7453 11.1363 12.8325 9 12.8325C4.9755 12.8325 1.71593 16.0546 1.71593 20.0328C1.71593 22.1446 2.63936 24.0383 4.10031 25.353C2.9219 24.0724 2.19832 22.3762 2.19832 20.5097Z" fill="white"/>
<path opacity="0.67" d="M13.6171 14.4538C14.6508 15.6936 15.6087 17.6214 15.6087 19.3585C15.6087 23.3367 12.3492 26.5588 8.32465 26.5588C6.57427 26.5588 4.62404 25.6051 3.36294 24.5901C4.69984 26.2045 6.72588 27.2332 9 27.2332C13.0245 27.2332 16.2841 24.0111 16.2841 20.0328C16.291 17.7849 15.2504 15.7753 13.6171 14.4538Z" fill="#93908F"/>
<g opacity="0.67">
<path d="M9.40658 17.9688C9.40658 17.5601 9.09648 17.3285 8.54517 17.3285C7.93185 17.3285 7.15314 17.6895 6.45023 18.2822L5.70597 16.838C6.67764 16.1296 7.7389 15.7072 8.8415 15.7072C10.3783 15.7072 11.4877 16.4974 11.4877 17.6827C11.4877 18.4933 10.8606 19.338 10.0199 20.1827L8.46248 21.7222H11.7083V23.2958H5.92649L5.91271 22.0015L8.66922 19.2018C9.08958 18.7658 9.40658 18.289 9.40658 17.9688Z" fill="#8E8A88"/>
</g>
<path d="M9.97167 1L6.71899 9.69896C6.54671 10.1554 6.89127 10.6322 7.38055 10.6322H8.0559L11.6531 1H9.97167Z" fill="#1268C6"/>
<path d="M11.6531 1L8.05589 10.6322H9.73736L13.3346 1H11.6531Z" fill="white"/>
<path d="M13.3346 1L10.585 8.35699L9.74426 10.6186L9.73737 10.6322H10.9296C11.0949 10.6322 11.2466 10.5777 11.3706 10.4755C11.4671 10.4006 11.5429 10.3052 11.5911 10.1826L15.023 1H13.3346Z" fill="#EB3723"/>
<path opacity="0.69" d="M12.487 7.79856L11.598 10.176C11.5498 10.2986 11.474 10.3939 11.3775 10.4689C11.2534 10.5711 11.1018 10.6256 10.9364 10.6256H7.38055C6.89127 10.6256 6.55359 10.1419 6.71899 9.69231L9.95788 1.0274L12.487 7.79856Z" fill="url(#paint9_linear_57_138)"/>
<path d="M7.84227 1H6.15391L9.74426 10.6186L9.75115 10.6322H10.9364C11.1018 10.6322 11.2534 10.5777 11.3775 10.4755L10.585 8.3638L7.84227 1Z" fill="#1268C6"/>
<path d="M4.47243 1L8.06968 10.6322H9.75115L6.15391 1H4.47243Z" fill="white"/>
<path d="M2.78407 1L6.20903 10.1758C6.3124 10.4483 6.57427 10.6322 6.8706 10.6322H8.06279L4.47243 1H2.78407Z" fill="#EB3723"/>
</g>
</g>
<defs>
<linearGradient id="paint0_linear_57_138" x1="3.69579" y1="10.0459" x2="14.3074" y2="10.0459" gradientUnits="userSpaceOnUse">
<stop stop-color="#F78614"/>
<stop offset="1" stop-color="#FFBE06"/>
</linearGradient>
<linearGradient id="paint1_linear_57_138" x1="13.2696" y1="24.1396" x2="3.58932" y2="14.7083" gradientUnits="userSpaceOnUse">
<stop stop-color="#F78614"/>
<stop offset="1" stop-color="#FFBE06"/>
</linearGradient>
<linearGradient id="paint2_linear_57_138" x1="4.08032" y1="14.7077" x2="15.796" y2="26.1221" gradientUnits="userSpaceOnUse">
<stop stop-color="#F78614"/>
<stop offset="1" stop-color="#FFBE06"/>
</linearGradient>
<linearGradient id="paint3_linear_57_138" x1="17.8561" y1="28.8472" x2="-0.218478" y2="11.2374" gradientUnits="userSpaceOnUse">
<stop stop-color="#F78614"/>
<stop offset="1" stop-color="#FFBE06"/>
</linearGradient>
<linearGradient id="paint4_linear_57_138" x1="11.0397" y1="4.76268" x2="9.33479" y2="5.56947" gradientUnits="userSpaceOnUse">
<stop stop-color="white"/>
<stop offset="1" stop-color="#121E3D"/>
</linearGradient>
<linearGradient id="paint5_linear_57_138" x1="3.69579" y1="10.675" x2="14.3074" y2="10.675" gradientUnits="userSpaceOnUse">
<stop stop-color="#BBBBBB"/>
<stop offset="1" stop-color="white"/>
</linearGradient>
<linearGradient id="paint6_linear_57_138" x1="13.2696" y1="24.2484" x2="3.94417" y2="14.8145" gradientUnits="userSpaceOnUse">
<stop stop-color="#BBBBBB"/>
<stop offset="1" stop-color="white"/>
</linearGradient>
<linearGradient id="paint7_linear_57_138" x1="4.08032" y1="15.1648" x2="15.3666" y2="26.5823" gradientUnits="userSpaceOnUse">
<stop stop-color="#BBBBBB"/>
<stop offset="1" stop-color="white"/>
</linearGradient>
<linearGradient id="paint8_linear_57_138" x1="17.8562" y1="28.7822" x2="0.444024" y2="11.1676" gradientUnits="userSpaceOnUse">
<stop stop-color="#BBBBBB"/>
<stop offset="1" stop-color="white"/>
</linearGradient>
<linearGradient id="paint9_linear_57_138" x1="11.0397" y1="5.58704" x2="9.35882" y2="6.41295" gradientUnits="userSpaceOnUse">
<stop stop-color="white"/>
<stop offset="1" stop-color="#121E3D"/>
</linearGradient>
<clipPath id="clip0_57_138">
<rect width="18" height="29" fill="white"/>
</clipPath>
<clipPath id="clip1_57_138">
<rect width="18" height="27.9293" fill="white" transform="translate(0 1)"/>
</clipPath>
</defs>
</svg>
