<svg width="35" height="47" viewBox="0 0 35 47" fill="none" xmlns="http://www.w3.org/2000/svg">
<path d="M22.75 17.3125H3.25C2.60353 17.3125 1.98355 17.0557 1.52643 16.5986C1.06931 16.1415 0.8125 15.5215 0.8125 14.875C0.8125 14.2285 1.06931 13.6085 1.52643 13.1514C1.98355 12.6943 2.60353 12.4375 3.25 12.4375H22.75C23.3965 12.4375 24.0165 12.6943 24.4736 13.1514C24.9307 13.6085 25.1875 14.2285 25.1875 14.875C25.1875 15.5215 24.9307 16.1415 24.4736 16.5986C24.0165 17.0557 23.3965 17.3125 22.75 17.3125ZM3.25 14.0625C3.03451 14.0625 2.82785 14.1481 2.67548 14.3005C2.5231 14.4528 2.4375 14.6595 2.4375 14.875C2.4375 15.0905 2.5231 15.2972 2.67548 15.4495C2.82785 15.6019 3.03451 15.6875 3.25 15.6875H22.75C22.9655 15.6875 23.1722 15.6019 23.3245 15.4495C23.4769 15.2972 23.5625 15.0905 23.5625 14.875C23.5625 14.6595 23.4769 14.4528 23.3245 14.3005C23.1722 14.1481 22.9655 14.0625 22.75 14.0625H3.25ZM22.6525 25.4375H4.875C4.65951 25.4375 4.45285 25.3519 4.30048 25.1995C4.1481 25.0472 4.0625 24.8405 4.0625 24.625C4.0625 24.4095 4.1481 24.2028 4.30048 24.0505C4.45285 23.8981 4.65951 23.8125 4.875 23.8125H22.75C22.9655 23.8125 23.1722 23.7269 23.3245 23.5745C23.4769 23.4222 23.5625 23.2155 23.5625 23C23.5625 22.7845 23.4769 22.5778 23.3245 22.4255C23.1722 22.2731 22.9655 22.1875 22.75 22.1875H3.25C3.12386 22.1875 2.99946 22.2169 2.88664 22.2733C2.77382 22.3297 2.67568 22.4116 2.6 22.5125C2.53064 22.6972 2.49221 22.8921 2.48625 23.0894C2.46416 23.289 2.3689 23.4734 2.21885 23.6069C2.06881 23.7405 1.87461 23.8137 1.67375 23.8125C1.55833 23.8133 1.44405 23.7896 1.33853 23.7428C1.23302 23.696 1.13868 23.6273 1.0618 23.5412C0.984926 23.4551 0.927279 23.3536 0.892697 23.2434C0.858116 23.1333 0.847396 23.0171 0.86125 22.9025C0.905639 22.4216 1.04657 21.9546 1.27563 21.5294C1.50598 21.2248 1.80467 20.9787 2.14762 20.8107C2.49056 20.6428 2.86817 20.5577 3.25 20.5625H22.75C23.1115 20.5624 23.4685 20.6428 23.7951 20.7977C24.1217 20.9526 24.4098 21.1782 24.6384 21.4582C24.8671 21.7382 25.0306 22.0655 25.1171 22.4165C25.2037 22.7675 25.211 23.1333 25.1388 23.4875C25.0118 24.0489 24.6952 24.5493 24.2423 24.9045C23.7894 25.2597 23.228 25.4479 22.6525 25.4375ZM22.75 33.5625H3.25C2.60353 33.5625 1.98355 33.3057 1.52643 32.8486C1.06931 32.3915 0.8125 31.7715 0.8125 31.125C0.8125 30.4785 1.06931 29.8585 1.52643 29.4014C1.98355 28.9443 2.60353 28.6875 3.25 28.6875H22.75C23.3965 28.6875 24.0165 28.9443 24.4736 29.4014C24.9307 29.8585 25.1875 30.4785 25.1875 31.125C25.1875 31.7715 24.9307 32.3915 24.4736 32.8486C24.0165 33.3057 23.3965 33.5625 22.75 33.5625ZM3.25 30.3125C3.03451 30.3125 2.82785 30.3981 2.67548 30.5505C2.5231 30.7028 2.4375 30.9095 2.4375 31.125C2.4375 31.3405 2.5231 31.5472 2.67548 31.6995C2.82785 31.8519 3.03451 31.9375 3.25 31.9375H22.75C22.9655 31.9375 23.1722 31.8519 23.3245 31.6995C23.4769 31.5472 23.5625 31.3405 23.5625 31.125C23.5625 30.9095 23.4769 30.7028 23.3245 30.5505C23.1722 30.3981 22.9655 30.3125 22.75 30.3125H3.25Z" fill="black"/>
<path d="M14.2174 19.5901C17.9969 1.84451 21.2696 -1.04927 25.6726 6.61537C34.5395 16.1912 30.178 24.067 25.3633 26.3072C20.5487 28.5474 25.8802 40.9201 20.7436 42.2522C4.87551 41.6506 -8.00074 41.9176 9.94554 34.3336C15.1716 30.6431 8.46724 24.6748 14.2174 19.5901Z" fill="#4179D1" fill-opacity="0.34"/>
</svg>
