<svg width="17" height="18" viewBox="0 0 17 18" fill="none" xmlns="http://www.w3.org/2000/svg">
<g clip-path="url(#clip0_57_679)">
<path d="M12.15 12V12.2385L12.3138 12.412L13.2275 13.3795C13.2714 13.4259 13.2863 13.4934 13.2576 13.5666C13.2438 13.6018 13.2242 13.6241 13.2091 13.6353C13.1974 13.644 13.1844 13.65 13.1608 13.65H3.83209C3.80866 13.65 3.79667 13.6441 3.78631 13.6364C3.77248 13.626 3.75359 13.6047 3.74019 13.5699C3.71222 13.4974 3.72672 13.4279 3.77246 13.3795L4.68621 12.412L4.85001 12.2385V12V8.25C4.85001 6.12459 5.89623 4.51525 7.5835 4.09197L8.03751 3.97807V3.51V3C8.03751 2.6761 8.27531 2.475 8.50001 2.475C8.7247 2.475 8.96251 2.6761 8.96251 3V3.51V3.97767L9.41603 4.09185C11.0971 4.51504 12.15 6.13265 12.15 8.25V12ZM9.10646 15.6C8.95112 15.7879 8.72785 15.9 8.50001 15.9C8.26899 15.9 8.04568 15.7882 7.89113 15.6H9.10646Z" stroke="#A6A6A6" stroke-width="1.2"/>
</g>
<defs>
<clipPath id="clip0_57_679">
<rect width="17" height="18" fill="white"/>
</clipPath>
</defs>
</svg>
