<svg width="18" height="18" viewBox="0 0 18 18" fill="none" xmlns="http://www.w3.org/2000/svg">
<g clip-path="url(#clip0_79_6)">
<path d="M14.0625 0.5625L7.09369 7.53075C6.33729 7.30145 5.5377 7.25244 4.75896 7.38765C3.98021 7.52287 3.24395 7.83854 2.60912 8.30941C1.97428 8.78027 1.45852 9.39323 1.10313 10.0992C0.747733 10.8052 0.562582 11.5846 0.5625 12.375C0.5625 13.7177 1.09587 15.0053 2.04527 15.9547C2.99467 16.9041 4.28234 17.4375 5.625 17.4375C6.41541 17.4374 7.19481 17.2521 7.90078 16.8967C8.60675 16.5412 9.21968 16.0254 9.69049 15.3905C10.1613 14.7556 10.4769 14.0193 10.612 13.2405C10.7472 12.4617 10.6981 11.6621 10.4687 10.9058L11.8125 9.5625V8.4375H12.9375L17.4375 3.9375V0.5625H14.0625ZM16.3125 3.47119L12.4718 7.3125H10.6875V9.09619L9.67331 10.1098L9.19631 10.5868L9.39206 11.232C9.50513 11.6044 9.5625 11.9886 9.5625 12.375C9.5625 14.5463 7.79569 16.3125 5.625 16.3125C3.45431 16.3125 1.6875 14.5463 1.6875 12.375C1.6875 10.2037 3.45431 8.4375 5.625 8.4375C6.01088 8.4375 6.39563 8.49487 6.76744 8.60738L7.41206 8.80312L7.88906 8.32613L14.5282 1.6875H16.3125V3.47119Z" fill="black"/>
<path d="M9 9.99998C17.3673 0.45117 19.5389 -2.84545 11.5 0.999983C7.49733 1.75387 5.17289 3.13936 1 7.49998L-0.5 14.5L3 15L9 9.99998Z" fill="#4179D1" fill-opacity="0.34"/>
<path d="M4.5 14.625C5.12132 14.625 5.625 14.1213 5.625 13.5C5.625 12.8787 5.12132 12.375 4.5 12.375C3.87868 12.375 3.375 12.8787 3.375 13.5C3.375 14.1213 3.87868 14.625 4.5 14.625Z" fill="black"/>
<path d="M11.6133 5.98895L14.9883 2.61395L15.386 3.01164L12.011 6.38664L11.6133 5.98895Z" fill="black"/>
</g>
<defs>
<clipPath id="clip0_79_6">
<rect width="18" height="18" fill="white"/>
</clipPath>
</defs>
</svg>
