<svg width="18" height="18" viewBox="0 0 18 18" fill="none" xmlns="http://www.w3.org/2000/svg">
<path d="M16.5 5.43C16.5006 5.33129 16.4817 5.23345 16.4443 5.14207C16.407 5.05069 16.352 4.96758 16.2825 4.8975L13.1025 1.7175C13.0324 1.64799 12.9493 1.59299 12.8579 1.55567C12.7666 1.51835 12.6687 1.49943 12.57 1.5C12.4713 1.49943 12.3735 1.51835 12.2821 1.55567C12.1907 1.59299 12.1076 1.64799 12.0375 1.7175L9.91501 3.84L1.71751 12.0375C1.648 12.1076 1.59301 12.1907 1.55568 12.2821C1.51836 12.3734 1.49944 12.4713 1.50001 12.57V15.75C1.50001 15.9489 1.57903 16.1397 1.71968 16.2803C1.86033 16.421 2.0511 16.5 2.25001 16.5H5.43001C5.53496 16.5057 5.63993 16.4893 5.73813 16.4518C5.83632 16.4144 5.92555 16.3567 6.00001 16.2825L14.1525 8.085L16.2825 6C16.351 5.92731 16.4067 5.84365 16.4475 5.7525C16.4547 5.69271 16.4547 5.63228 16.4475 5.5725C16.451 5.53759 16.451 5.50241 16.4475 5.4675L16.5 5.43ZM5.12251 15H3.00001V12.8775L10.4475 5.43L12.57 7.5525L5.12251 15ZM13.6275 6.495L11.505 4.3725L12.57 3.315L14.685 5.43L13.6275 6.495Z" fill="black"/>
<path d="M6.99998 11C10.0776 8.99673 11.3898 7.20162 12.5 2L18 6.5C17.3473 3.77804 18.165 1.98674 12 0.5C10.5854 0.704614 7.95797 2.3941 1.99998 6.5C0.213007 9.82502 0.556193 11.3545 1.49998 14C5.18922 8.85933 6.11101 8.92825 6.99998 11Z" fill="#4179D1" fill-opacity="0.34"/>
</svg>
