<svg width="22" height="22" viewBox="0 0 22 22" fill="none" xmlns="http://www.w3.org/2000/svg">
<path d="M11 9.13685C11.8365 9.13821 12.6547 8.89139 13.3509 8.42763C14.0471 7.96386 14.5901 7.30399 14.9112 6.53153C15.2322 5.75906 15.317 4.90871 15.1546 4.08808C14.9922 3.26745 14.5901 2.51343 13.999 1.92143C13.408 1.32943 12.6546 0.926053 11.8343 0.762352C11.0139 0.59865 10.1634 0.681979 9.39043 1.00179C8.61744 1.32161 7.95669 1.86353 7.49179 2.55899C7.02689 3.25445 6.77874 4.07219 6.77874 4.90872C6.77874 6.0289 7.22326 7.1033 8.0147 7.89603C8.80614 8.68876 9.87982 9.13503 11 9.13685ZM11 2.06247C11.5649 2.06111 12.1174 2.22746 12.5877 2.54045C13.0579 2.85343 13.4247 3.29896 13.6415 3.82058C13.8583 4.3422 13.9154 4.91643 13.8055 5.47052C13.6956 6.02462 13.4238 6.53362 13.0243 6.93305C12.6249 7.33248 12.1159 7.60436 11.5618 7.71423C11.0077 7.8241 10.4335 7.76702 9.91185 7.55022C9.39023 7.33342 8.9447 6.96666 8.63172 6.49642C8.31873 6.02617 8.15238 5.4736 8.15374 4.90872C8.15556 4.15441 8.45601 3.43151 8.9894 2.89813C9.52278 2.36474 10.2457 2.06429 11 2.06247ZM18.8237 18.4318C17.9987 20.5562 14.245 21.3125 11 21.3125C7.75499 21.3125 4.00124 20.5562 3.17624 18.4318C2.73624 17.2975 3.12812 15.6131 4.20062 14.0387C4.94666 12.9126 5.95549 11.985 7.14006 11.3358C8.32464 10.6866 9.64939 10.3354 11 10.3125C12.594 10.3474 14.1453 10.8344 15.4732 11.7168C16.8011 12.5993 17.851 13.8408 18.5006 15.2968C18.547 15.3802 18.5755 15.4724 18.5844 15.5674C18.5932 15.6624 18.5821 15.7582 18.5519 15.8487C18.5217 15.9393 18.473 16.0225 18.4088 16.0931C18.3447 16.1638 18.2665 16.2203 18.1793 16.2591C18.0922 16.2979 17.9979 16.3182 17.9024 16.3185C17.807 16.3189 17.7125 16.2994 17.6251 16.2612C17.5376 16.2231 17.459 16.1672 17.3943 16.097C17.3296 16.0269 17.2803 15.944 17.2494 15.8537C16.6986 14.6465 15.8219 13.617 14.7178 12.8809C13.6137 12.1449 12.3262 11.7316 11 11.6875C9.87377 11.7103 8.77005 12.007 7.78422 12.5521C6.7984 13.0971 5.96013 13.874 5.34187 14.8156C4.42062 16.1562 4.23499 17.3731 4.45499 17.9368C4.90874 19.0987 7.65874 19.9375 11 19.9375C14.3412 19.9375 17.0912 19.0987 17.545 17.9368C17.6195 17.7801 17.7504 17.6574 17.9116 17.5932C18.0728 17.529 18.2523 17.5281 18.4141 17.5908C18.576 17.6534 18.7081 17.7749 18.7841 17.9309C18.86 18.0869 18.8742 18.2658 18.8237 18.4318Z" fill="black"/>
</svg>
