<svg width="16" height="17" viewBox="0 0 16 17" fill="none" xmlns="http://www.w3.org/2000/svg">
<path fill-rule="evenodd" clip-rule="evenodd" d="M9.46133 11.0542C8.51645 11.805 7.33902 12.1475 6.16599 12.0131C4.99297 11.8786 3.91143 11.277 3.13903 10.3294C2.36664 9.38176 1.96073 8.15848 2.003 6.90571C2.04526 5.65294 2.53257 4.46368 3.36684 3.57727C4.20111 2.69085 5.32041 2.17309 6.49949 2.12819C7.67857 2.08328 8.8299 2.51456 9.72176 3.33522C10.6136 4.15589 11.1798 5.30503 11.3064 6.55137C11.433 7.79771 11.1106 9.04873 10.404 10.0527L13.852 13.7162C13.9734 13.8498 14.0406 14.0287 14.0391 14.2144C14.0376 14.4001 13.9675 14.5778 13.8439 14.7091C13.7203 14.8405 13.5531 14.9149 13.3783 14.9166C13.2035 14.9182 13.0351 14.8468 12.9093 14.7177L9.46133 11.0542ZM10 7.08333C10 8.02264 9.64881 8.92348 9.02369 9.58767C8.39857 10.2519 7.55072 10.625 6.66667 10.625C5.78261 10.625 4.93476 10.2519 4.30964 9.58767C3.68452 8.92348 3.33333 8.02264 3.33333 7.08333C3.33333 6.14402 3.68452 5.24319 4.30964 4.579C4.93476 3.9148 5.78261 3.54167 6.66667 3.54167C7.55072 3.54167 8.39857 3.9148 9.02369 4.579C9.64881 5.24319 10 6.14402 10 7.08333Z" fill="#A6A6A6"/>
</svg>
