<svg width="185" height="172" viewBox="0 0 185 172" fill="none" xmlns="http://www.w3.org/2000/svg">
<g clip-path="url(#clip0_43_183)">
<path d="M92.4969 171.684C143.582 171.684 184.994 134.618 184.994 88.8941C184.994 43.1705 143.582 6.10413 92.4969 6.10413C41.4123 6.10413 0 43.1705 0 88.8941C0 134.618 41.4123 171.684 92.4969 171.684Z" fill="#58B8F9"/>
<path d="M146.262 171.684H30.6362C29.3664 171.684 28.3258 170.73 28.3258 169.561V167.082C28.3258 165.913 29.3664 164.959 30.6362 164.959H146.262C147.532 164.959 148.572 165.913 148.572 167.082V169.561C148.572 170.73 147.532 171.684 146.262 171.684Z" fill="#9785A0"/>
<path d="M64.3632 67.7932H28.3258V168.319H64.3632V67.7932Z" fill="#FFDDB0"/>
<path d="M148.591 67.7932H64.3013V168.319H148.591V67.7932Z" fill="#FEFCEB"/>
<path d="M135.856 163.861C130.882 163.861 126.837 160.147 126.837 155.578C126.837 151.01 130.882 147.301 135.856 147.301C140.83 147.301 144.874 151.016 144.874 155.578C144.874 160.147 140.83 163.861 135.856 163.861ZM135.856 147.578C131.049 147.578 127.141 151.171 127.141 155.578C127.141 159.992 131.049 163.579 135.856 163.579C140.662 163.579 144.571 159.992 144.571 155.578C144.571 151.165 140.662 147.578 135.856 147.578Z" fill="#4AAAD3"/>
<path d="M107.313 78.0608C107.313 80.0179 105.585 81.5979 103.461 81.5979C101.33 81.5979 99.6078 80.0123 99.6078 78.0608C99.6078 76.1038 101.336 74.5237 103.461 74.5237C105.591 74.5237 107.313 76.1038 107.313 78.0608Z" fill="#FFF7E1"/>
<path d="M103.46 81.7366C101.249 81.7366 99.4529 80.0844 99.4529 78.0553C99.4529 76.0262 101.249 74.374 103.46 74.374C105.672 74.374 107.468 76.0262 107.468 78.0553C107.468 80.09 105.672 81.7366 103.46 81.7366ZM103.46 74.6623C101.416 74.6623 99.7564 76.1869 99.7564 78.0609C99.7564 79.9348 101.416 81.4594 103.46 81.4594C105.505 81.4594 107.165 79.9348 107.165 78.0609C107.165 76.1869 105.505 74.6623 103.46 74.6623Z" fill="#4AAAD3"/>
<path d="M120.228 78.0608C120.228 80.0179 118.5 81.5979 116.375 81.5979C114.245 81.5979 112.523 80.0123 112.523 78.0608C112.523 76.1038 114.251 74.5237 116.375 74.5237C118.5 74.5237 120.228 76.1038 120.228 78.0608Z" fill="#FFF7E1"/>
<path d="M116.375 81.7366C114.164 81.7366 112.368 80.0844 112.368 78.0553C112.368 76.0262 114.164 74.374 116.375 74.374C118.587 74.374 120.383 76.0262 120.383 78.0553C120.377 80.09 118.58 81.7366 116.375 81.7366ZM116.375 74.6623C114.331 74.6623 112.671 76.1869 112.671 78.0609C112.671 79.9348 114.331 81.4594 116.375 81.4594C118.419 81.4594 120.079 79.9348 120.079 78.0609C120.079 76.1869 118.413 74.6623 116.375 74.6623Z" fill="#FF3F00"/>
<path d="M148.647 89.8642H28.3258C28.2453 89.8642 28.1771 89.8033 28.1771 89.7256C28.1771 89.648 28.2453 89.587 28.3258 89.587H148.653C148.733 89.587 148.802 89.648 148.802 89.7256C148.802 89.8033 148.733 89.8642 148.647 89.8642Z" fill="#4AAAD3"/>
<path d="M106.446 148.992C91.1652 148.992 78.7397 137.577 78.7397 123.545C78.7397 109.513 91.1714 98.0972 106.446 98.0972C121.727 98.0972 134.152 109.513 134.152 123.545C134.159 137.577 121.727 148.992 106.446 148.992ZM106.446 98.3744C91.3324 98.3744 79.0371 109.668 79.0371 123.545C79.0371 137.421 91.3324 148.715 106.446 148.715C121.56 148.715 133.855 137.421 133.855 123.545C133.855 109.668 121.56 98.3744 106.446 98.3744Z" fill="#4AAAD3"/>
<path d="M124.867 131.916C124.124 133.297 123.176 134.616 122.037 135.836C114.647 143.742 101.677 144.645 93.0668 137.86C91.5431 136.656 90.2609 135.298 89.2203 133.823C85.2127 128.163 84.8038 120.883 88.2168 114.852C88.9291 113.587 89.8149 112.379 90.8679 111.253C98.2575 103.348 111.228 102.444 119.838 109.23C123.053 111.769 125.208 115.023 126.255 118.511C127.574 122.918 127.135 127.708 124.867 131.916Z" fill="#A2E9EC"/>
<path d="M124.867 131.916C124.124 133.297 123.176 134.616 122.037 135.836C114.647 143.742 101.677 144.645 93.0668 137.86C91.543 136.656 90.2608 135.298 89.2202 133.823C91.766 134.672 94.8445 134.771 97.8486 132.454C104.972 126.954 113.675 121.432 122.377 129.122C123.468 130.081 124.279 131.018 124.867 131.916Z" fill="#F7AF9F"/>
<path d="M126.249 118.516C122.514 117.324 118.816 109.69 116.375 112.955C112.857 117.651 100.11 126.328 99.7626 115.96C99.5459 109.474 93.0482 112.03 88.2168 114.852C88.9291 113.587 89.8149 112.379 90.8679 111.253C98.2575 103.348 111.228 102.444 119.838 109.23C123.053 111.769 125.202 115.023 126.249 118.516Z" fill="#64CCC9"/>
<path d="M120.736 126.827C118.841 126.827 117.298 125.407 117.298 123.667C117.298 121.926 118.841 120.506 120.736 120.506C122.631 120.506 124.174 121.926 124.174 123.667C124.174 125.407 122.631 126.827 120.736 126.827ZM120.736 120.817C119.026 120.817 117.633 122.098 117.633 123.667C117.633 125.241 119.026 126.516 120.736 126.516C122.446 126.516 123.839 125.236 123.839 123.667C123.839 122.098 122.446 120.817 120.736 120.817Z" fill="#FEFCEB"/>
<path d="M102.445 118.954C101.249 118.954 100.271 118.062 100.271 116.958C100.271 115.861 101.243 114.962 102.445 114.962C103.64 114.962 104.619 115.855 104.619 116.958C104.619 118.062 103.64 118.954 102.445 118.954ZM102.445 115.273C101.429 115.273 100.605 116.032 100.605 116.958C100.605 117.89 101.429 118.644 102.445 118.644C103.461 118.644 104.284 117.884 104.284 116.958C104.284 116.027 103.461 115.273 102.445 115.273Z" fill="#FEFCEB"/>
<path d="M109.964 121.704C109.215 121.704 108.602 121.144 108.602 120.457C108.602 119.769 109.209 119.209 109.964 119.209C110.714 119.209 111.327 119.769 111.327 120.457C111.321 121.144 110.714 121.704 109.964 121.704ZM109.964 119.414C109.339 119.414 108.825 119.88 108.825 120.457C108.825 121.033 109.333 121.499 109.964 121.499C110.59 121.499 111.104 121.033 111.104 120.457C111.098 119.88 110.59 119.414 109.964 119.414Z" fill="#FEFCEB"/>
<path d="M121.752 120.052C120.556 120.052 119.578 119.159 119.578 118.056C119.578 116.953 120.55 116.06 121.752 116.06C122.947 116.06 123.926 116.953 123.926 118.056C123.926 119.159 122.947 120.052 121.752 120.052ZM121.752 116.371C120.736 116.371 119.912 117.13 119.912 118.056C119.912 118.987 120.736 119.741 121.752 119.741C122.768 119.741 123.591 118.982 123.591 118.056C123.591 117.13 122.768 116.371 121.752 116.371Z" fill="#FEFCEB"/>
<path d="M106.446 124.326C105.251 124.326 104.272 123.434 104.272 122.33C104.272 121.233 105.244 120.335 106.446 120.335C107.642 120.335 108.62 121.227 108.62 122.33C108.62 123.428 107.648 124.326 106.446 124.326ZM106.446 120.645C105.43 120.645 104.606 121.405 104.606 122.33C104.606 123.262 105.43 124.016 106.446 124.016C107.462 124.016 108.286 123.256 108.286 122.33C108.286 121.399 107.462 120.645 106.446 120.645Z" fill="#FEFCEB"/>
<path d="M118.376 116.831C117.348 116.831 116.512 116.06 116.512 115.118C116.512 114.175 117.348 113.404 118.376 113.404C119.404 113.404 120.24 114.175 120.24 115.118C120.247 116.06 119.404 116.831 118.376 116.831ZM118.376 113.709C117.534 113.709 116.846 114.341 116.846 115.118C116.846 115.894 117.534 116.526 118.376 116.526C119.218 116.526 119.906 115.894 119.906 115.118C119.912 114.341 119.225 113.709 118.376 113.709Z" fill="#FEFCEB"/>
<path d="M115.446 122.486C113.656 122.486 112.2 121.15 112.2 119.503C112.2 117.862 113.656 116.52 115.446 116.52C117.236 116.52 118.692 117.856 118.692 119.503C118.692 121.15 117.236 122.486 115.446 122.486ZM115.446 116.831C113.842 116.831 112.535 118.028 112.535 119.503C112.535 120.978 113.842 122.175 115.446 122.175C117.05 122.175 118.357 120.978 118.357 119.503C118.357 118.028 117.05 116.831 115.446 116.831Z" fill="#FEFCEB"/>
<path d="M103.461 114.486C102.265 114.486 101.286 113.593 101.286 112.49C101.286 111.392 102.259 110.494 103.461 110.494C104.656 110.494 105.635 111.386 105.635 112.49C105.635 113.593 104.662 114.486 103.461 114.486ZM103.461 110.804C102.445 110.804 101.621 111.564 101.621 112.49C101.621 113.421 102.445 114.175 103.461 114.175C104.476 114.175 105.3 113.416 105.3 112.49C105.3 111.558 104.476 110.804 103.461 110.804Z" fill="#FEFCEB"/>
<path d="M89.245 126.394C89.1706 126.394 89.1025 126.344 89.0963 126.272C88.8485 124.487 88.9167 122.685 89.3007 120.922C89.3193 120.845 89.3936 120.8 89.4803 120.811C89.5609 120.828 89.6166 120.9 89.598 120.972C89.2202 122.708 89.1521 124.476 89.3936 126.234C89.406 126.311 89.3441 126.378 89.2635 126.389C89.2574 126.394 89.2512 126.394 89.245 126.394Z" fill="#FFF7E1"/>
<path d="M93.4137 113.643C93.3765 113.643 93.3455 113.632 93.3146 113.61C93.2526 113.56 93.2464 113.471 93.296 113.416C96.4302 110.067 100.791 108.038 105.585 107.705C110.379 107.373 115.025 108.77 118.673 111.647C118.735 111.697 118.741 111.786 118.692 111.841C118.636 111.902 118.543 111.908 118.481 111.858C114.895 109.03 110.324 107.655 105.61 107.982C100.896 108.309 96.6036 110.305 93.5252 113.599C93.4942 113.626 93.457 113.643 93.4137 113.643Z" fill="#FFF7E1"/>
<path d="M136.481 151.032H135.23C134.617 151.032 134.121 150.583 134.121 150.04V147.667C134.121 147.118 134.623 146.675 135.23 146.675H136.481C137.095 146.675 137.59 147.124 137.59 147.667V150.04C137.59 150.589 137.088 151.032 136.481 151.032Z" fill="#FEFCEB"/>
<path d="M136.494 151.171H135.218C134.53 151.171 133.973 150.655 133.973 150.023V147.678C133.973 147.046 134.53 146.53 135.218 146.53H136.494C137.181 146.53 137.739 147.046 137.739 147.678V150.023C137.745 150.661 137.181 151.171 136.494 151.171ZM135.218 146.813C134.697 146.813 134.276 147.201 134.276 147.678V150.023C134.276 150.5 134.697 150.888 135.218 150.888H136.494C137.014 150.888 137.435 150.5 137.435 150.023V147.678C137.435 147.201 137.014 146.813 136.494 146.813H135.218Z" fill="#4AAAD3"/>
<path d="M133.49 130.27H128.974C126.187 130.27 123.907 128.174 123.907 125.613V121.471C123.907 118.91 126.187 116.814 128.974 116.814H133.49C134.369 116.814 135.082 117.474 135.082 118.278V128.8C135.088 129.61 134.369 130.27 133.49 130.27Z" fill="#FFF7E1"/>
<path d="M133.49 130.408H128.974C126.094 130.408 123.752 128.257 123.752 125.613V121.471C123.752 118.827 126.094 116.675 128.974 116.675H133.49C134.45 116.675 135.236 117.396 135.236 118.278V128.8C135.236 129.693 134.456 130.408 133.49 130.408ZM128.98 116.958C126.267 116.958 124.062 118.982 124.062 121.477V125.618C124.062 128.107 126.267 130.137 128.98 130.137H133.496C134.289 130.137 134.939 129.543 134.939 128.811V118.289C134.939 117.557 134.289 116.964 133.496 116.964H128.98V116.958Z" fill="#4AAAD3"/>
<path d="M88.8362 76.9964H72.459C71.1892 76.9964 70.1486 76.0428 70.1486 74.873V73.2818C70.1486 72.112 71.1892 71.1584 72.459 71.1584H88.8362C90.106 71.1584 91.1466 72.112 91.1466 73.2818V74.873C91.1466 76.0428 90.106 76.9964 88.8362 76.9964Z" fill="#FFF7E1"/>
<path d="M88.8362 77.135H72.4589C71.1024 77.135 69.9937 76.1205 69.9937 74.873V73.2819C69.9937 72.0345 71.0962 71.0199 72.4589 71.0199H88.8362C90.1927 71.0199 91.3014 72.0345 91.3014 73.2819V74.873C91.3014 76.1205 90.1927 77.135 88.8362 77.135ZM72.4527 71.2971C71.2634 71.2971 70.291 72.1897 70.291 73.2819V74.873C70.291 75.9652 71.2634 76.8578 72.4527 76.8578H88.83C90.0193 76.8578 90.9917 75.9652 90.9917 74.873V73.2819C90.9917 72.1897 90.0193 71.2971 88.83 71.2971H72.4527Z" fill="#4AAAD3"/>
<path d="M93.2651 70.6262V85.4955H67.4418V70.6262H73.6111V71.3359C73.6111 72.5057 74.6517 73.4593 75.9215 73.4593H84.9773C86.2471 73.4593 87.2878 72.5057 87.2878 71.3359V70.6262H93.2651Z" fill="#FEFCEB"/>
<path d="M93.2651 85.6341H67.4417C67.3612 85.6341 67.2931 85.5732 67.2931 85.4955V70.6263C67.2931 70.5487 67.3612 70.4877 67.4417 70.4877H73.6111C73.6916 70.4877 73.7598 70.5487 73.7598 70.6263V71.3359C73.7598 72.4281 74.7322 73.3207 75.9215 73.3207H84.9773C86.1666 73.3207 87.1391 72.4281 87.1391 71.3359V70.6263C87.1391 70.5487 87.2072 70.4877 87.2877 70.4877H93.2589C93.3394 70.4877 93.4075 70.5487 93.4075 70.6263V85.4955C93.4199 85.5732 93.3518 85.6341 93.2651 85.6341ZM67.5966 85.3569H93.1164V70.7704H87.4426V71.3415C87.4426 72.5889 86.34 73.6034 84.9773 73.6034H75.9215C74.565 73.6034 73.4562 72.5889 73.4562 71.3415V70.7704H67.5904V85.3569H67.5966Z" fill="#4AAAD3"/>
<path d="M136.432 85.6728C141.009 85.6728 144.72 82.2648 144.72 78.0608C144.72 73.8568 141.009 70.4487 136.432 70.4487C131.855 70.4487 128.144 73.8568 128.144 78.0608C128.144 82.2648 131.855 85.6728 136.432 85.6728Z" fill="#FFF7E1"/>
<path d="M136.432 85.8115C131.78 85.8115 127.995 82.3353 127.995 78.0608C127.995 73.7863 131.78 70.3102 136.432 70.3102C141.084 70.3102 144.868 73.7863 144.868 78.0608C144.874 82.3353 141.09 85.8115 136.432 85.8115ZM136.432 70.5874C131.947 70.5874 128.299 73.9416 128.299 78.0608C128.299 82.1801 131.947 85.5343 136.432 85.5343C140.916 85.5343 144.565 82.1801 144.565 78.0608C144.571 73.9416 140.923 70.5874 136.432 70.5874Z" fill="#4AAAD3"/>
<path d="M134.927 41.1372H127.419V46.1768H134.927V41.1372Z" fill="#F4D095"/>
<path d="M127.419 43.2163L134.908 41.1871V46.1713H127.487L127.419 43.2163Z" fill="#FFBC39"/>
<path d="M135.478 43.2162H126.868V46.8697H135.478V43.2162Z" fill="#F7C2B5"/>
<path d="M136.085 48.9988C135.986 48.9821 135.893 48.9655 135.794 48.9489C135.571 48.9156 135.348 48.8934 135.125 48.8768C131.675 48.6273 128.361 50.4014 126.311 53.3121C125.394 54.6149 124.731 56.1451 124.421 57.825C123.765 61.3566 124.836 64.7163 126.998 66.9395H139.9C141.629 65.3538 142.905 63.1639 143.369 60.6358C144.397 55.0585 141.152 49.9191 136.085 48.9988ZM140.216 56.4556C140.086 56.5055 139.95 56.5276 139.82 56.5276C139.436 56.5276 139.077 56.3281 138.909 55.9954C138.773 55.7182 138.624 55.441 138.463 55.1804C137.801 54.0827 136.964 53.1402 136.091 52.5137C135.918 52.3918 135.744 52.2753 135.565 52.1811C135.1 51.9205 134.958 51.3716 135.249 50.9558C135.434 50.6897 135.757 50.54 136.091 50.54C136.184 50.54 136.271 50.5511 136.357 50.5733C136.45 50.5955 136.537 50.6287 136.618 50.6786C138.24 51.5879 139.739 53.2677 140.73 55.2858C140.941 55.7348 140.718 56.256 140.216 56.4556Z" fill="#9785A0"/>
<path d="M137.72 66.9339H126.843C125.202 65.2928 123.783 63.0253 122.848 60.3475C120.55 53.7334 122.074 47.0805 126.249 45.4006C126.28 45.3895 126.311 45.3784 126.342 45.3618C126.515 45.2953 126.682 45.2398 126.862 45.1955C127.041 45.1456 127.227 45.1068 127.413 45.0791C127.432 45.0791 127.444 45.0735 127.456 45.0735C128.962 44.8462 130.547 45.2565 132.053 46.1712C132.059 46.1712 132.059 46.1768 132.065 46.1768C132.399 46.3819 132.734 46.6148 133.062 46.8698C133.781 47.4298 134.468 48.1006 135.112 48.8712C135.447 49.2759 135.769 49.7028 136.079 50.1575C136.172 50.2905 136.258 50.4291 136.345 50.5677C136.258 50.5455 136.165 50.5345 136.079 50.5345C135.75 50.5345 135.428 50.6841 135.236 50.9503C134.945 51.3661 135.088 51.9149 135.552 52.1755C135.726 52.2753 135.905 52.3862 136.079 52.5081C136.952 53.1346 137.794 54.0771 138.451 55.1749C139.851 59.6933 139.479 64.1397 137.72 66.9339Z" fill="#9785A0"/>
<path d="M136.085 44.5081V50.54C135.757 50.54 135.435 50.6897 135.243 50.9558C134.951 51.3716 135.094 51.9205 135.558 52.1811C135.732 52.2809 135.911 52.3918 136.085 52.5137V53.3065H126.249V44.5081H136.085Z" fill="#9785A0"/>
<path d="M34.3031 15.7563C34.3031 15.7563 33.566 15.0966 31.045 12.4798C28.524 9.86296 31.5467 2.54475 38.2116 3.62585C44.8703 4.71249 45.6817 9.13668 45.6817 9.13668L34.3031 15.7563Z" fill="#8E685C"/>
<path d="M41.2219 14.5921C41.2219 14.5921 41.2157 14.6808 41.1723 15.1244C41.1104 15.6954 40.9741 16.8486 40.6768 19.1494C40.4972 20.48 40.268 22.1875 39.9707 24.3885C39.853 25.2701 39.7167 26.2292 39.5681 27.277C39.3822 28.6298 39.1654 30.1267 38.9301 31.7788C38.738 33.1316 37.5302 34.1961 36.0188 34.3291C32.8846 34.6008 30.4503 33.0706 29.0133 31.8176C28.0903 31.0137 27.7806 29.8051 28.2328 28.7296L32.7979 17.841L33.7394 15.6012L34.1606 14.5977L35.6286 11.0883L35.8268 10.6226L36.025 10.7667L40.4848 14.0377L41.2219 14.5921Z" fill="#8E685C"/>
<path d="M41.3024 15.3572C41.2405 15.9116 41.098 17.0315 40.7821 19.2602C40.5963 20.552 40.3609 22.2097 40.0512 24.3497C38.4098 24.6103 36.4648 24.1501 35.0959 21.3448C34.1111 19.3323 33.8633 17.4529 34.0243 15.8673C34.0491 15.6067 34.0863 15.3517 34.1358 15.1022C34.3898 13.766 34.9163 12.6849 35.4923 11.9476C35.6286 11.7702 35.7711 11.6149 35.9135 11.4763C36.0436 11.3544 36.1737 11.249 36.2976 11.1659C36.5453 10.9995 36.7745 10.9164 36.9727 10.9164C37.6417 10.9275 39.2274 12.2747 40.6397 14.3094C40.8627 14.642 41.0856 14.9913 41.3024 15.3572Z" fill="#7F594F"/>
<path d="M45.6569 9.17555C45.6569 9.17555 49.4539 20.7461 45.6135 21.234C40.7387 21.8549 34.9658 20.6352 33.3615 16.5437C32.2094 13.6108 35.6781 6.87475 35.6781 6.87475C35.6781 6.87475 43.9039 4.28012 45.6569 9.17555Z" fill="#8E685C"/>
<path d="M68.4141 41.8469L68.6247 46.7978C68.6247 46.7978 46.3259 57.9581 33.981 60.6248C28.3381 61.8445 24.7765 61.2956 26.356 57.0987C26.9878 55.4244 27.2294 54.0107 27.3718 52.8021C27.9231 48.1727 26.994 46.637 40.8564 45.4007C58.3425 43.8428 68.4141 41.8469 68.4141 41.8469Z" fill="#7F594F"/>
<path d="M31.782 46.77L29.837 61.229C25.687 61.545 21.9023 59.6656 25.0118 55.7625C26.2568 54.2047 27.4089 48.6495 28.0221 47.463L31.782 46.77Z" fill="#7F594F"/>
<path d="M65.639 47.0362C65.639 47.0362 70.0864 48.2725 73.4746 46.892C75.0975 46.2268 77.6061 45.2066 77.891 44.7021C78.0459 44.436 76.838 44.5968 76.5655 44.6467L74.2055 44.9572C74.2055 44.9572 76.0885 44.2974 79.5882 44.0535C79.8855 44.0313 80.0094 43.682 79.7554 43.5822C77.2654 42.5676 74.7506 43.6654 74.7506 43.6654C74.7506 43.6654 76.9185 42.3459 80.0589 43.0444C80.7837 43.2052 80.5049 42.6397 80.381 42.5288C78.1078 40.5441 74.6577 42.052 74.6577 42.052C74.6577 42.052 76.7699 41.5032 79.9475 41.481C80.1519 41.481 80.2448 41.2482 80.0837 41.1317C78.9378 40.3167 75.9213 39.1248 66.8221 42.4235C65.286 46.7368 65.639 47.0362 65.639 47.0362Z" fill="#7F594F"/>
<path d="M66.7787 42.4567C66.7787 42.4567 70.7553 39.6514 72.4092 39.8566C74.0568 40.0672 73.5551 40.483 72.7498 40.8933C71.9446 41.3091 69.5722 44.0756 69.5722 44.0756L66.7787 42.4567Z" fill="#7F594F"/>
<path d="M37.2701 122.985L36.6692 125.13L26.833 166.085L15.9871 162.121L20.2548 122.985H37.2701Z" fill="#7F594F"/>
<path d="M16.8109 113.288C17.2383 115.112 18.6134 118.688 18.539 120.54C18.4585 122.547 16.3711 123.983 16.1481 126.322C16.0118 127.775 16.7303 129.344 16.9967 130.896C20.3167 129.349 23.8908 128.64 27.7187 128.773C31.0945 128.784 34.3093 129.294 37.3816 130.303C38.9053 122.53 40.3609 115.057 41.1971 110.583C35.9941 85.8005 35.7587 72.7331 35.7587 72.7331C35.7587 72.7331 6.0207 71.1863 19.2452 101.357C19.462 101.878 16.6808 112.728 16.8109 113.288Z" fill="#D3422A"/>
<path d="M50.1539 122.985L49.553 125.13L39.7168 166.085L28.8708 162.121L33.1386 122.985H50.1539Z" fill="#8E685C"/>
<path d="M23.8783 98.6572C28.7407 103.292 29.2053 112.856 28.9079 120.013C28.7593 123.628 28.431 127.647 28.0222 131.633C29.292 130.974 30.6361 130.436 32.0669 130.02C35.4056 128.451 39.0044 127.73 42.8633 127.858C45.6383 127.864 49.3671 129.311 51.9377 129.998C51.8634 129.66 50.9962 127.11 51.0272 126.744C51.3059 123.672 53.0526 124.52 52.8978 121.732C52.7491 119.082 50.6741 116.958 50.6741 114.973C50.6741 111.459 52.9721 108.232 52.3032 104.767C48.2088 83.5995 47.4841 73.0102 47.4841 73.0102L17.9505 72.162L18.0992 77.8613L18.0372 78.0609C15.764 85.5288 16.0056 91.1561 23.8783 98.6572Z" fill="#EB6449"/>
<path d="M15.2809 80.9162C17.2073 82.1193 19.4619 82.8012 21.8838 83.1117C34.1792 84.6806 50.8166 76.5419 50.8166 76.5419C50.8166 76.5419 51.4484 72.3173 51.7705 66.2742C52.1731 58.7731 52.0988 48.4721 49.745 40.0008C48.8159 36.6577 47.5399 33.6029 45.7932 31.1136C43.4518 27.7816 40.2804 25.4642 36.0126 24.8488C17.3373 22.1599 21.2582 53.4729 17.9629 72.2286C17.7833 73.2598 17.5789 74.2522 17.3497 75.1947C16.8232 77.3735 16.1543 79.3139 15.2809 80.9162Z" fill="#FEFCEB"/>
<path d="M29.3539 22.3151C29.3539 22.3151 34.5818 25.0317 40.9679 24.0448C41.5873 26.0462 41.8103 27.4822 41.8103 27.4822C41.8103 27.4822 32.2094 29.8495 28.016 26.5951C29.3725 23.9949 29.3539 22.3151 29.3539 22.3151Z" fill="#FFEED2"/>
<path d="M16.3277 158.545C16.3277 158.545 16.1666 161.272 15.5039 163.695C14.8039 166.24 13.6456 168.502 15.3614 169.295H35.2755C36.0746 169.295 36.6754 168.657 36.5515 167.953C36.2728 166.423 34.6189 164.105 27.2479 163.922C23.4571 158.545 16.3277 158.545 16.3277 158.545Z" fill="#7F594F"/>
<path d="M39.3265 165.331C38.2735 163.767 30.7972 162.015 28.4682 161.505C28.2204 161.45 27.9789 161.616 27.9789 161.849V164.743C27.9789 166.872 26.0525 168.596 23.6739 168.596H11.9608C11.1866 168.596 10.5486 169.145 10.5238 169.838H40.4352C40.4352 169.832 40.5777 167.182 39.3265 165.331Z" fill="#FFCF61"/>
<path d="M29.0442 160.712C29.0442 160.712 28.8832 163.44 28.2204 165.863C27.5205 168.407 26.3622 170.669 28.0779 171.462H47.9921C48.7911 171.462 49.3919 170.825 49.2681 170.121C48.9893 168.59 47.3355 166.273 39.9645 166.09C36.1737 160.712 29.0442 160.712 29.0442 160.712Z" fill="#8E685C"/>
<path d="M52.043 167.498C50.99 165.935 43.5137 164.183 41.1847 163.673C40.937 163.617 40.6954 163.784 40.6954 164.017V166.911C40.6954 169.04 38.769 170.764 36.3905 170.764H24.6774C23.9031 170.764 23.2651 171.313 23.2404 172.006H53.1518C53.1518 172 53.2943 169.35 52.043 167.498Z" fill="#FFCF61"/>
<path d="M45.5763 7.05769C45.5763 7.05769 45.6754 8.41045 39.3203 8.41045C39.8096 10.3232 35.7277 11.5983 35.7277 11.5983C35.7277 11.5983 35.6409 17.4418 32.7607 17.8021C28.7221 17.0814 22.8996 12.0197 24.7393 7.05214C26.5851 2.08463 32.5749 1.90168 32.5749 1.90168C32.5749 1.90168 34.303 -0.0831085 36.0312 0.637624C36.7249 -0.266064 39.6052 -0.266064 40.5281 0.909285C43.7553 0.277258 44.5605 2.17334 44.5605 2.17334C44.5605 2.17334 47.4222 4.88994 45.5763 7.05769Z" fill="#2D292A"/>
<path d="M34.0924 13.9823C34.5817 14.958 35.6843 15.4681 36.5638 15.1133C37.4434 14.764 37.7593 13.6829 37.27 12.7071C36.7806 11.7314 35.6781 11.2213 34.7985 11.5761C33.9251 11.931 33.6092 13.0065 34.0924 13.9823Z" fill="#8E685C"/>
<path d="M97.8734 30.7975L79.5822 37.8663L84.0233 47.075L107.208 38.1157L104.879 33.2868C103.708 30.8696 100.574 29.7552 97.8734 30.7975ZM100.202 37.3507C100.246 37.4449 100.277 37.5392 100.295 37.6445C100.407 38.3098 99.8989 38.9363 99.1556 39.0416L90.5891 40.2336C89.8458 40.3334 89.1459 39.8788 89.0282 39.2135C88.9105 38.5482 89.4246 37.9217 90.1679 37.8164L98.7344 36.6244C99.3662 36.5357 99.9608 36.8517 100.202 37.3507ZM92.4783 36.9515C92.4412 36.9681 92.404 36.9792 92.3668 36.9903C91.7722 37.1566 91.1156 36.896 90.8617 36.3749C90.8059 36.2585 90.7749 36.1365 90.7626 36.0145C90.7254 35.5655 91.0103 35.1164 91.4997 34.9279L99.7007 31.7622C100.01 31.6402 100.351 31.6458 100.648 31.7511C100.94 31.8565 101.193 32.0616 101.324 32.3388C101.59 32.8932 101.305 33.5474 100.679 33.7914L100.035 34.0408L92.4783 36.9515Z" fill="#4BBCB6"/>
<path d="M103.669 35.9476L107.017 42.8904L112.835 40.6427L109.487 33.6999L103.669 35.9476Z" fill="#FFEB88"/>
<path d="M110.441 41.5696L109.438 33.7358L103.683 35.959L106.991 42.8226L110.441 41.5696Z" fill="#FFEB88"/>
<path d="M102.627 35.7472L106.469 43.7131L110.688 42.0829L106.847 34.117L102.627 35.7472Z" fill="#FFEB88"/>
<path d="M69.7582 43.3715L77.7734 59.9927C78.1575 60.7855 79.1919 61.1569 80.0838 60.8132L89.0653 57.3426C89.9511 56.9988 90.3661 56.073 89.9821 55.2746L81.9669 38.6534C81.5828 37.8606 80.5484 37.4892 79.6564 37.8329L70.675 41.3035C69.7892 41.6472 69.3742 42.5787 69.7582 43.3715Z" fill="#4BBCB6"/>
<path d="M80.2387 37.7109C80.0281 37.8052 79.8299 37.905 79.6565 38.0159C78.6592 38.6313 78.1761 39.4906 78.5849 40.3333L86.2966 56.328C86.7735 57.3149 88.1177 57.5255 89.5671 57.0488C90.1246 56.8658 90.6944 56.583 91.2395 56.2005L108.818 43.9037C109.19 43.6431 109.351 43.1331 109.264 42.6341C109.24 42.49 109.196 42.3458 109.134 42.2128L105.728 35.144C105.647 34.9722 105.529 34.8169 105.393 34.6783C105.046 34.3346 104.563 34.1295 104.136 34.1849L97.1859 35.1329L92.4907 36.9459C92.4535 36.9625 92.4164 36.9736 92.3792 36.9847C91.7846 37.151 91.128 36.8904 90.874 36.3693C90.8183 36.2528 90.7873 36.1309 90.7749 36.0089L90.2484 36.081L82.0846 37.1953C81.3846 37.2951 80.7652 37.4725 80.2387 37.7109ZM100.202 37.3506C100.246 37.4448 100.277 37.5391 100.295 37.6444C100.407 38.3097 99.8989 38.9362 99.1556 39.0415L90.5891 40.2335C89.8458 40.3333 89.1459 39.8787 89.0282 39.2134C88.9105 38.5481 89.4246 37.9216 90.1679 37.8163L98.7344 36.6243C99.3662 36.5356 99.9608 36.8516 100.202 37.3506Z" fill="#4BBCB6"/>
<path d="M89.0281 39.2135C89.1458 39.8788 89.8458 40.3389 90.5891 40.2336L99.1555 39.0416C99.8988 38.9418 100.413 38.3098 100.295 37.6445C100.277 37.5392 100.246 37.4394 100.202 37.3507C99.9608 36.8517 99.3599 36.5357 98.7343 36.6244L90.1679 37.8164C89.4246 37.9217 88.9104 38.5537 89.0281 39.2135Z" fill="#4BBCB6"/>
<path d="M91.4935 34.9279L91.0846 35.0831C90.5891 35.2716 90.2732 35.6708 90.2299 36.0866C90.2113 36.2529 90.236 36.4192 90.3166 36.58C90.5829 37.1344 91.3696 37.3728 92.0571 37.1067L92.3606 36.9903C91.766 37.1566 91.1094 36.896 90.8555 36.3749C90.7997 36.2584 90.7687 36.1365 90.7564 36.0145C90.7254 35.5654 91.0041 35.1164 91.4935 34.9279Z" fill="#64CCC9"/>
<path d="M87.1203 53.1235L86.6558 59.6545C86.6558 59.6545 62.381 66.7731 49.6892 67.2665C43.8915 67.4938 40.5095 66.3407 42.9624 62.4931C43.9411 60.9573 44.4862 59.6101 44.8826 58.4514C46.4187 54.005 45.8365 52.3363 59.7051 53.5061C77.1973 54.9864 87.1203 53.1235 87.1203 53.1235Z" fill="#8E685C"/>
<path d="M54.0623 53.24L43.266 66.4294C41.0485 65.5257 40.237 62.8146 41.928 60.9574C43.2783 59.4716 45.8117 54.3876 46.6603 53.3342L54.0623 53.24Z" fill="#7F594F"/>
<path d="M85.3923 59.6324C85.3923 59.6324 90.044 59.3995 92.6765 57.0488C93.9402 55.9178 95.8913 54.177 95.9656 53.617C96.0028 53.3176 94.9374 53.8443 94.702 53.9774L92.6084 55.003C92.6084 55.003 94.1136 53.7944 97.3036 52.4694C97.5761 52.3585 97.5575 51.9926 97.2788 51.9704C94.5472 51.7985 92.6208 53.6115 92.6208 53.6115C92.6208 53.6115 94.1384 51.6988 97.3531 51.3717C98.0964 51.294 97.6133 50.8505 97.4522 50.784C94.5472 49.6364 91.9023 52.1256 91.9023 52.1256C91.9023 52.1256 93.6676 50.9503 96.6346 49.9413C96.8266 49.8747 96.8204 49.6308 96.6284 49.5754C95.2347 49.1706 91.9456 48.9988 84.7047 54.931C84.9463 59.466 85.3923 59.6324 85.3923 59.6324Z" fill="#8E685C"/>
<path d="M85.4294 53.6336C85.4294 53.6336 88.7929 50.2462 90.4591 50.1907C92.1253 50.1353 91.7103 50.6232 91.0042 51.1609C90.2918 51.6932 88.5017 54.7923 88.5017 54.7923L85.4294 53.6336Z" fill="#8E685C"/>
<path d="M41.3458 64.6221L43.4703 62.3601L54.0623 53.24C54.0623 53.24 48.1531 38.8919 39.9149 32.7934C36.5267 30.2875 32.8102 29.539 29.0504 32.4053C20.3043 39.086 41.3458 64.6221 41.3458 64.6221Z" fill="#FFEED2"/>
<path d="M43.4704 62.3657L54.0624 53.2456C54.0624 53.2456 48.1532 38.8975 39.915 32.799C38.0691 32.4608 36.1613 32.8711 34.2411 34.3403C27.2666 39.6626 40.5468 58.4127 43.4704 62.3657Z" fill="#FFEED2"/>
<path d="M40.8502 62.4044C40.8192 62.4044 40.7883 62.3877 40.7635 62.3655C40.7201 62.3212 40.7263 62.2491 40.7759 62.2103L53.35 52.4139C53.3995 52.3751 53.48 52.3806 53.5234 52.425C53.5668 52.4693 53.5606 52.5414 53.511 52.5802L40.9369 62.3766C40.9121 62.3988 40.8812 62.4044 40.8502 62.4044Z" fill="white"/>
<path d="M41.8909 60.0426C41.8599 60.0426 41.8289 60.026 41.8041 60.0038C41.7608 59.9595 41.767 59.8874 41.8165 59.8486L52.7677 51.3162C52.8173 51.2774 52.8978 51.283 52.9412 51.3273C52.9845 51.3717 52.9783 51.4438 52.9288 51.4826L41.9776 60.0149C41.9528 60.0371 41.9218 60.0426 41.8909 60.0426Z" fill="white"/>
<path d="M162.497 61.4841C159.709 61.4841 157.448 64.5832 157.448 68.4031C157.448 64.5832 155.188 61.4841 152.4 61.4841C155.188 61.4841 157.448 58.3849 157.448 54.5651C157.455 58.3849 159.709 61.4841 162.497 61.4841Z" fill="white"/>
<path d="M165.792 54.565C163.971 54.565 162.497 56.5886 162.497 59.0779C162.497 56.5831 161.022 54.565 159.201 54.565C161.022 54.565 162.497 52.5414 162.497 50.0521C162.497 52.5414 163.971 54.565 165.792 54.565Z" fill="white"/>
</g>
<defs>
<clipPath id="clip0_43_183">
<rect width="185" height="172" fill="white"/>
</clipPath>
</defs>
</svg>
