<svg width="185" height="183" viewBox="0 0 185 183" fill="none" xmlns="http://www.w3.org/2000/svg">
<path d="M92.4969 175.684C143.582 175.684 184.994 138.618 184.994 92.894C184.994 47.1703 143.582 10.104 92.4969 10.104C41.4123 10.104 0 47.1703 0 92.894C0 138.618 41.4123 175.684 92.4969 175.684Z" fill="#58B8F9"/>
<g clip-path="url(#clip0_167_5)">
<path d="M162.707 74.1521H74.2275V176.586H162.707V74.1521Z" fill="#F5F6FD"/>
<path d="M118.332 157.422C134.732 157.422 148.027 144.203 148.027 127.896C148.027 111.59 134.732 98.3712 118.332 98.3712C101.932 98.3712 88.637 111.59 88.637 127.896C88.637 144.203 101.932 157.422 118.332 157.422Z" fill="#769AB8"/>
<path d="M118.332 156.93C110.532 156.93 103.199 153.91 97.6843 148.426C92.1688 142.942 89.1316 135.651 89.1316 127.897C89.1316 120.141 92.1688 112.85 97.6843 107.367C103.2 101.883 110.533 98.863 118.332 98.863C126.131 98.863 133.465 101.883 138.98 107.367C144.496 112.851 147.533 120.142 147.533 127.897C147.533 135.652 144.496 142.943 138.98 148.426C133.465 153.91 126.132 156.93 118.332 156.93Z" fill="#E7E9FB"/>
<path d="M118.332 152.144C111.819 152.144 105.694 149.622 101.088 145.042C96.4827 140.462 93.9453 134.373 93.9453 127.897C93.9453 121.42 96.482 115.331 101.088 110.751C105.695 106.172 111.819 103.649 118.332 103.649C124.846 103.649 130.971 106.171 135.576 110.751C140.183 115.331 142.719 121.42 142.719 127.897C142.719 134.373 140.183 140.463 135.576 145.042C130.971 149.622 124.847 152.144 118.332 152.144Z" fill="#769AB8"/>
<path d="M118.332 151.279C112.051 151.279 106.145 148.847 101.704 144.43C97.2618 140.014 94.8157 134.142 94.8157 127.896C94.8157 121.651 97.2618 115.779 101.704 111.363C106.145 106.946 112.051 104.514 118.332 104.514C124.614 104.514 130.519 106.946 134.961 111.363C139.403 115.779 141.849 121.651 141.849 127.896C141.849 134.142 139.403 140.014 134.961 144.43C130.519 148.847 124.614 151.279 118.332 151.279Z" fill="#7BC6F7"/>
<path d="M112.677 117.068C114.381 117.068 115.763 115.694 115.763 113.999C115.763 112.304 114.381 110.93 112.677 110.93C110.972 110.93 109.59 112.304 109.59 113.999C109.59 115.694 110.972 117.068 112.677 117.068Z" fill="white"/>
<path d="M119.046 133.965C119.266 133.041 118.69 132.114 117.76 131.895C116.829 131.677 115.897 132.25 115.678 133.175C115.458 134.1 116.034 135.026 116.964 135.245C117.894 135.463 118.827 134.89 119.046 133.965Z" fill="white"/>
<path d="M119.276 120.072C119.399 119.553 119.077 119.034 118.555 118.912C118.034 118.789 117.512 119.11 117.389 119.628C117.266 120.147 117.589 120.666 118.11 120.788C118.631 120.911 119.153 120.59 119.276 120.072Z" fill="white"/>
<path d="M105.772 119.486C105.895 118.968 105.572 118.449 105.051 118.326C104.53 118.204 104.007 118.525 103.884 119.043C103.761 119.561 104.084 120.081 104.605 120.203C105.126 120.325 105.649 120.004 105.772 119.486Z" fill="white"/>
<path d="M108.716 121.508C108.77 121.177 108.544 120.865 108.211 120.811C107.878 120.758 107.564 120.982 107.51 121.313C107.456 121.644 107.682 121.956 108.015 122.01C108.348 122.064 108.662 121.839 108.716 121.508Z" fill="white"/>
<path d="M108.348 135.233C108.659 135.105 108.807 134.749 108.678 134.44C108.549 134.13 108.192 133.983 107.881 134.111C107.569 134.239 107.421 134.595 107.55 134.904C107.679 135.214 108.036 135.361 108.348 135.233Z" fill="white"/>
<path d="M109.761 131.293C110 131.056 110 130.671 109.761 130.434C109.523 130.197 109.136 130.197 108.898 130.434C108.659 130.671 108.659 131.056 108.898 131.293C109.136 131.53 109.523 131.53 109.761 131.293Z" fill="white"/>
<path d="M128.819 123.252C128.896 122.925 128.693 122.598 128.365 122.521C128.037 122.444 127.708 122.646 127.631 122.973C127.553 123.299 127.756 123.626 128.084 123.703C128.413 123.78 128.742 123.578 128.819 123.252Z" fill="white"/>
<path d="M129.492 144.041C129.141 144.041 128.796 143.877 128.578 143.571C128.222 143.069 128.342 142.376 128.846 142.021C132.306 139.59 134.889 135.853 135.934 131.77C136.978 127.687 136.504 123.178 134.633 119.399C134.361 118.848 134.588 118.181 135.143 117.911C135.697 117.639 136.367 117.866 136.639 118.417C138.742 122.664 139.275 127.731 138.101 132.319C136.928 136.906 134.025 141.105 130.137 143.837C129.94 143.975 129.715 144.041 129.492 144.041Z" fill="#F2F2F2"/>
<path d="M146.133 124.929H144.728V130.864H146.133V124.929Z" fill="#769AB8"/>
<path d="M146.681 127.326H146.411V128.467H146.681V127.326Z" fill="#769AB8"/>
<path d="M161.876 77.4993H75.0581C74.1011 77.4993 73.3184 76.7211 73.3184 75.7695V71.9982C73.3184 71.0466 74.1011 70.2684 75.0581 70.2684H161.876C162.833 70.2684 163.616 71.0466 163.616 71.9982V75.7695C163.615 76.7211 162.833 77.4993 161.876 77.4993Z" fill="#E7E9FB"/>
<path d="M163.716 165.874H73.2173V178.327H163.716V165.874Z" fill="#E7E9FB"/>
<path d="M146.951 90.0444H89.3036C87.5489 90.0444 86.1272 88.6301 86.1272 86.8862V80.4908H150.128V86.8862C150.128 88.6301 148.705 90.0444 146.951 90.0444Z" fill="#E7E9FB"/>
<path d="M120.755 82.8761H112.677V84.9347H120.755V82.8761Z" fill="white"/>
<path d="M120.755 85.7114H112.677V87.77H120.755V85.7114Z" fill="white"/>
<path d="M122.542 88.6152C122.513 88.6152 122.49 88.5914 122.49 88.5631V82.2414C122.49 82.2124 122.513 82.1893 122.542 82.1893C122.571 82.1893 122.594 82.2124 122.594 82.2414V88.5631C122.594 88.5914 122.57 88.6152 122.542 88.6152Z" fill="white"/>
<path d="M132.517 82.7958H124.439V84.8544H132.517V82.7958Z" fill="white"/>
<path d="M132.517 85.6311H124.439V87.6897H132.517V85.6311Z" fill="white"/>
<path d="M134.304 88.5341C134.275 88.5341 134.252 88.5103 134.252 88.482V82.1604C134.252 82.1313 134.276 82.1083 134.304 82.1083C134.333 82.1083 134.356 82.1321 134.356 82.1604V88.482C134.356 88.5111 134.333 88.5341 134.304 88.5341Z" fill="white"/>
<path d="M110.143 89.8242C110.102 89.8242 110.069 89.7907 110.069 89.7505V80.7847C110.069 80.7438 110.103 80.7111 110.143 80.7111C110.184 80.7111 110.217 80.7445 110.217 80.7847V89.7505C110.217 89.7915 110.184 89.8242 110.143 89.8242Z" fill="white"/>
<path d="M107.499 82.9252H92.718V87.4047H107.499V82.9252Z" fill="white"/>
<path d="M97.0177 89.0795C96.6533 89.0795 96.3569 88.7849 96.3569 88.4226C96.3569 88.0602 96.6533 87.7656 97.0177 87.7656C97.3821 87.7656 97.6784 88.0602 97.6784 88.4226C97.6784 88.7849 97.3821 89.0795 97.0177 89.0795ZM97.0177 87.8155C96.6809 87.8155 96.4071 88.0878 96.4071 88.4226C96.4071 88.7574 96.6809 89.0297 97.0177 89.0297C97.3544 89.0297 97.6282 88.7574 97.6282 88.4226C97.6282 88.0878 97.3544 87.8155 97.0177 87.8155Z" fill="white"/>
<path d="M99.0777 89.0795C98.7133 89.0795 98.417 88.7849 98.417 88.4226C98.417 88.0602 98.7133 87.7656 99.0777 87.7656C99.4421 87.7656 99.7384 88.0602 99.7384 88.4226C99.7384 88.7849 99.4421 89.0795 99.0777 89.0795ZM99.0777 87.8155C98.741 87.8155 98.4671 88.0878 98.4671 88.4226C98.4671 88.7574 98.741 89.0297 99.0777 89.0297C99.4144 89.0297 99.6883 88.7574 99.6883 88.4226C99.6891 88.0878 99.4144 87.8155 99.0777 87.8155Z" fill="white"/>
<path d="M101.139 89.0795C100.774 89.0795 100.478 88.7849 100.478 88.4226C100.478 88.0602 100.774 87.7656 101.139 87.7656C101.503 87.7656 101.799 88.0602 101.799 88.4226C101.798 88.7849 101.502 89.0795 101.139 89.0795ZM101.139 87.8155C100.802 87.8155 100.528 88.0878 100.528 88.4226C100.528 88.7574 100.802 89.0297 101.139 89.0297C101.475 89.0297 101.749 88.7574 101.749 88.4226C101.749 88.0878 101.475 87.8155 101.139 87.8155Z" fill="white"/>
<path d="M103.198 89.0795C102.834 89.0795 102.538 88.7849 102.538 88.4226C102.538 88.0602 102.834 87.7656 103.198 87.7656C103.563 87.7656 103.859 88.0602 103.859 88.4226C103.859 88.7849 103.563 89.0795 103.198 89.0795ZM103.198 87.8155C102.862 87.8155 102.588 88.0878 102.588 88.4226C102.588 88.7574 102.862 89.0297 103.198 89.0297C103.535 89.0297 103.809 88.7574 103.809 88.4226C103.809 88.0878 103.535 87.8155 103.198 87.8155Z" fill="white"/>
<path d="M138.754 84.7681C138.114 84.7681 137.593 84.2503 137.593 83.6134C137.593 82.9766 138.114 82.4587 138.754 82.4587C139.395 82.4587 139.915 82.9766 139.915 83.6134C139.915 84.2503 139.395 84.7681 138.754 84.7681ZM138.754 82.5458C138.162 82.5458 137.68 83.0249 137.68 83.6134C137.68 84.2019 138.162 84.681 138.754 84.681C139.346 84.681 139.828 84.2019 139.828 83.6134C139.828 83.0249 139.346 82.5458 138.754 82.5458Z" fill="white"/>
<path d="M142.376 84.7681C141.735 84.7681 141.214 84.2503 141.214 83.6134C141.214 82.9766 141.735 82.4587 142.376 82.4587C143.016 82.4587 143.537 82.9766 143.537 83.6134C143.537 84.2503 143.016 84.7681 142.376 84.7681ZM142.376 82.5458C141.784 82.5458 141.302 83.0249 141.302 83.6134C141.302 84.2019 141.784 84.681 142.376 84.681C142.968 84.681 143.449 84.2019 143.449 83.6134C143.449 83.0249 142.968 82.5458 142.376 82.5458Z" fill="white"/>
<path d="M138.754 87.9813C138.114 87.9813 137.593 87.4635 137.593 86.8267C137.593 86.1898 138.114 85.672 138.754 85.672C139.395 85.672 139.915 86.1898 139.915 86.8267C139.915 87.4635 139.395 87.9813 138.754 87.9813ZM138.754 85.7598C138.162 85.7598 137.68 86.2389 137.68 86.8274C137.68 87.4159 138.162 87.895 138.754 87.895C139.346 87.895 139.828 87.4159 139.828 86.8274C139.828 86.2382 139.346 85.7598 138.754 85.7598Z" fill="white"/>
<path d="M142.376 87.9813C141.735 87.9813 141.214 87.4635 141.214 86.8267C141.214 86.1898 141.735 85.672 142.376 85.672C143.016 85.672 143.537 86.1898 143.537 86.8267C143.537 87.4635 143.016 87.9813 142.376 87.9813ZM142.376 85.7598C141.784 85.7598 141.302 86.2389 141.302 86.8274C141.302 87.4159 141.784 87.895 142.376 87.895C142.968 87.895 143.449 87.4159 143.449 86.8274C143.449 86.2382 142.968 85.7598 142.376 85.7598Z" fill="white"/>
<path d="M155.449 70.29H146.605C145.917 70.29 145.36 69.735 145.36 69.0512V55.0635H156.694V69.0512C156.695 69.7357 156.137 70.29 155.449 70.29Z" fill="#E7E9FB"/>
<path d="M155.024 66.7427H147.018V68.494H155.024V66.7427Z" fill="#65AFEF"/>
<path d="M157.124 56.236H144.852V54.4081C144.852 54.1231 145.084 53.8917 145.371 53.8917H156.605C156.892 53.8917 157.125 54.1231 157.125 54.4081V56.236H157.124Z" fill="#65AFEF"/>
<path d="M153.226 55.7264C153.122 55.7264 153.037 55.6416 153.037 55.5382V54.5889C153.037 54.4854 153.122 54.4006 153.226 54.4006C153.33 54.4006 153.415 54.4854 153.415 54.5889V55.5382C153.415 55.6424 153.33 55.7264 153.226 55.7264Z" fill="#5695CC"/>
<path d="M152.331 55.7264C152.227 55.7264 152.142 55.6416 152.142 55.5382V54.5889C152.142 54.4854 152.227 54.4006 152.331 54.4006C152.435 54.4006 152.521 54.4854 152.521 54.5889V55.5382C152.52 55.6424 152.435 55.7264 152.331 55.7264Z" fill="#5695CC"/>
<path d="M151.436 55.7264C151.332 55.7264 151.246 55.6416 151.246 55.5382V54.5889C151.246 54.4854 151.332 54.4006 151.436 54.4006C151.54 54.4006 151.625 54.4854 151.625 54.5889V55.5382C151.625 55.6424 151.54 55.7264 151.436 55.7264Z" fill="#5695CC"/>
<path d="M150.54 55.7264C150.436 55.7264 150.351 55.6416 150.351 55.5382V54.5889C150.351 54.4854 150.436 54.4006 150.54 54.4006C150.644 54.4006 150.729 54.4854 150.729 54.5889V55.5382C150.729 55.6424 150.644 55.7264 150.54 55.7264Z" fill="#5695CC"/>
<path d="M149.645 55.7264C149.541 55.7264 149.456 55.6416 149.456 55.5382V54.5889C149.456 54.4854 149.541 54.4006 149.645 54.4006C149.749 54.4006 149.834 54.4854 149.834 54.5889V55.5382C149.834 55.6424 149.749 55.7264 149.645 55.7264Z" fill="#5695CC"/>
<path d="M148.749 55.7264C148.645 55.7264 148.56 55.6416 148.56 55.5382V54.5889C148.56 54.4854 148.645 54.4006 148.749 54.4006C148.853 54.4006 148.939 54.4854 148.939 54.5889V55.5382C148.939 55.6424 148.853 55.7264 148.749 55.7264Z" fill="#5695CC"/>
<path d="M141.468 70.29H134.856C133.872 70.29 133.102 69.4433 133.203 68.4694L135.506 46.0991H140.819L143.122 68.4694C143.222 69.4433 142.454 70.29 141.468 70.29Z" fill="#E7E9FB"/>
<path d="M138.878 42.0094H137.447C136.857 42.0094 136.353 42.4327 136.255 43.0116L135.793 45.7316H140.531L140.069 43.0116C139.972 42.4327 139.467 42.0094 138.878 42.0094Z" fill="#F6A577"/>
<path d="M141.175 45.4325H135.15V46.4867H141.175V45.4325Z" fill="#F6A577"/>
<path d="M138.162 46.3089C138.108 46.3089 138.063 46.2643 138.063 46.21V45.71C138.063 45.6557 138.108 45.6111 138.162 45.6111C138.217 45.6111 138.262 45.6557 138.262 45.71V46.21C138.262 46.2643 138.217 46.3089 138.162 46.3089Z" fill="#D17D4D"/>
<path d="M137.68 46.3089C137.626 46.3089 137.581 46.2643 137.581 46.21V45.71C137.581 45.6557 137.626 45.6111 137.68 45.6111C137.735 45.6111 137.78 45.6557 137.78 45.71V46.21C137.78 46.2643 137.736 46.3089 137.68 46.3089Z" fill="#D17D4D"/>
<path d="M137.199 46.3089C137.145 46.3089 137.1 46.2643 137.1 46.21V45.71C137.1 45.6557 137.145 45.6111 137.199 45.6111C137.254 45.6111 137.299 45.6557 137.299 45.71V46.21C137.299 46.2643 137.254 46.3089 137.199 46.3089Z" fill="#D17D4D"/>
<path d="M136.717 46.3089C136.663 46.3089 136.618 46.2643 136.618 46.21V45.71C136.618 45.6557 136.663 45.6111 136.717 45.6111C136.772 45.6111 136.817 45.6557 136.817 45.71V46.21C136.817 46.2643 136.772 46.3089 136.717 46.3089Z" fill="#D17D4D"/>
<path d="M136.236 46.3089C136.181 46.3089 136.136 46.2643 136.136 46.21V45.71C136.136 45.6557 136.181 45.6111 136.236 45.6111C136.29 45.6111 136.335 45.6557 136.335 45.71V46.21C136.335 46.2643 136.29 46.3089 136.236 46.3089Z" fill="#D17D4D"/>
<path d="M140.571 46.3089C140.516 46.3089 140.471 46.2643 140.471 46.21V45.71C140.471 45.6557 140.516 45.6111 140.571 45.6111C140.626 45.6111 140.67 45.6557 140.67 45.71V46.21C140.67 46.2643 140.626 46.3089 140.571 46.3089Z" fill="#D17D4D"/>
<path d="M140.089 46.3089C140.034 46.3089 139.99 46.2643 139.99 46.21V45.71C139.99 45.6557 140.034 45.6111 140.089 45.6111C140.144 45.6111 140.189 45.6557 140.189 45.71V46.21C140.189 46.2643 140.144 46.3089 140.089 46.3089Z" fill="#D17D4D"/>
<path d="M139.608 46.3089C139.553 46.3089 139.508 46.2643 139.508 46.21V45.71C139.508 45.6557 139.553 45.6111 139.608 45.6111C139.662 45.6111 139.707 45.6557 139.707 45.71V46.21C139.707 46.2643 139.662 46.3089 139.608 46.3089Z" fill="#D17D4D"/>
<path d="M139.126 46.3089C139.072 46.3089 139.027 46.2643 139.027 46.21V45.71C139.027 45.6557 139.072 45.6111 139.126 45.6111C139.181 45.6111 139.226 45.6557 139.226 45.71V46.21C139.226 46.2643 139.181 46.3089 139.126 46.3089Z" fill="#D17D4D"/>
<path d="M138.644 46.3089C138.59 46.3089 138.545 46.2643 138.545 46.21V45.71C138.545 45.6557 138.59 45.6111 138.644 45.6111C138.699 45.6111 138.744 45.6557 138.744 45.71V46.21C138.744 46.2643 138.699 46.3089 138.644 46.3089Z" fill="#D17D4D"/>
<path d="M135.754 46.3089C135.699 46.3089 135.654 46.2643 135.654 46.21V45.71C135.654 45.6557 135.699 45.6111 135.754 45.6111C135.808 45.6111 135.853 45.6557 135.853 45.71V46.21C135.853 46.2643 135.808 46.3089 135.754 46.3089Z" fill="#D17D4D"/>
<path d="M140.034 52.6893H136.291V58.2722H140.034V52.6893Z" fill="#F6A577"/>
<path d="M131.742 50.1881C131.742 47.4405 129.493 45.2048 126.73 45.2048H120.822C120.434 45.2048 120.057 45.2502 119.694 45.3336L119.666 45.3075C119.666 44.5129 119.018 43.8694 118.219 43.8694H110.852C109.83 43.8694 109.002 44.693 109.002 45.7093V68.4494C109.002 69.4656 109.83 70.2892 110.852 70.2892H129.891C130.914 70.2892 131.742 69.4656 131.742 68.4494V56.1586L131.74 56.1564C131.74 56.1251 131.742 56.0939 131.742 56.0619V50.1881ZM120.916 47.6913H125.881C127.655 47.6913 129.107 49.1346 129.107 50.8986V55.0501L120.916 47.6913Z" fill="#E7E9FB"/>
<path d="M116.799 41.8011H112.063V44.3084H116.799V41.8011Z" fill="#E7E9FB"/>
<path d="M116.816 43.3687H112.046C111.748 43.3687 111.506 43.1284 111.506 42.8323V41.3733C111.506 41.0772 111.748 40.8369 112.046 40.8369H116.816C117.114 40.8369 117.356 41.0772 117.356 41.3733V42.8323C117.356 43.1284 117.115 43.3687 116.816 43.3687Z" fill="#65AFEF"/>
<path d="M116.669 42.5377C116.565 42.5377 116.48 42.4529 116.48 42.3495V41.4001C116.48 41.2967 116.565 41.2119 116.669 41.2119C116.773 41.2119 116.859 41.2967 116.859 41.4001V42.3495C116.859 42.4529 116.773 42.5377 116.669 42.5377Z" fill="#5695CC"/>
<path d="M115.775 42.5377C115.671 42.5377 115.585 42.4529 115.585 42.3495V41.4001C115.585 41.2967 115.671 41.2119 115.775 41.2119C115.879 41.2119 115.964 41.2967 115.964 41.4001V42.3495C115.963 42.4529 115.879 42.5377 115.775 42.5377Z" fill="#5695CC"/>
<path d="M114.879 42.5377C114.775 42.5377 114.689 42.4529 114.689 42.3495V41.4001C114.689 41.2967 114.775 41.2119 114.879 41.2119C114.983 41.2119 115.068 41.2967 115.068 41.4001V42.3495C115.068 42.4529 114.983 42.5377 114.879 42.5377Z" fill="#5695CC"/>
<path d="M113.983 42.5377C113.879 42.5377 113.794 42.4529 113.794 42.3495V41.4001C113.794 41.2967 113.879 41.2119 113.983 41.2119C114.087 41.2119 114.172 41.2967 114.172 41.4001V42.3495C114.172 42.4529 114.087 42.5377 113.983 42.5377Z" fill="#5695CC"/>
<path d="M113.088 42.5377C112.984 42.5377 112.899 42.4529 112.899 42.3495V41.4001C112.899 41.2967 112.984 41.2119 113.088 41.2119C113.192 41.2119 113.278 41.2967 113.278 41.4001V42.3495C113.277 42.4529 113.192 42.5377 113.088 42.5377Z" fill="#5695CC"/>
<path d="M112.192 42.5377C112.088 42.5377 112.003 42.4529 112.003 42.3495V41.4001C112.003 41.2967 112.088 41.2119 112.192 41.2119C112.296 41.2119 112.382 41.2967 112.382 41.4001V42.3495C112.382 42.4529 112.296 42.5377 112.192 42.5377Z" fill="#5695CC"/>
<path d="M34.1986 7.50305C34.1986 7.50305 35.633 4.52932 36.59 3.47508C37.5463 2.42159 35.3285 2.05704 34.3011 3.0525C33.2737 4.04796 32.693 4.12756 30.9316 4.84923C29.1702 5.5709 26.8296 7.08716 26.629 7.89513C26.4285 8.70311 29.0587 11.961 29.7366 13.0822C30.4138 14.2034 32.9721 14.3225 33.2999 13.0621C33.6269 11.8026 33.6912 8.5052 34.1986 7.50305Z" fill="#F8A588"/>
<path d="M65.4152 7.4153C59.8929 13.679 56.4382 21.8614 56.8692 30.1799C57.0106 32.9119 57.7604 35.9771 60.1571 37.32C61.5137 38.0804 63.1442 38.1295 64.7013 38.16C70.1697 38.2664 75.7047 38.3668 81.0346 37.1444C83.3146 36.6214 85.8355 35.5768 86.5464 33.3605C86.9774 32.0168 86.6138 30.5393 86.0062 29.2656C85.3986 27.9919 84.5538 26.8394 83.9462 25.5657C81.1611 19.7246 84.4385 12.1017 81.1379 6.53293C80.2362 5.01296 67.2081 5.38198 65.4152 7.4153Z" fill="#4D1912"/>
<path d="M95.7485 63.4713C96.4227 62.705 97.5032 60.2163 97.4396 58.8013C97.376 57.3862 91.3173 42.0496 91.3173 42.0496C91.3173 42.0496 84.2543 44.283 84.0037 47.2761C84.0037 47.2761 90.5608 62.3791 91.1093 62.8627C92.3327 63.9415 95.0362 64.2807 95.7485 63.4713Z" fill="#F8A588"/>
<path d="M94.5289 56.5008C95.1066 56.419 97.4404 58.8012 98.809 61.5421C99.8005 63.5278 102.229 79.3213 102.229 79.3213C102.229 79.3213 101.672 81.6358 100.536 82.3009C100.536 82.3009 91.3637 66.1028 90.724 62.5525C90.3648 60.5615 93.9513 56.5827 94.5289 56.5008Z" fill="#F8A588"/>
<path d="M85.1561 31.0586C86.5097 31.6612 88.9147 32.9959 89.2716 33.9386C89.6285 34.882 93.8473 45.6096 95.8923 51.0905C94.2184 54.3834 90.5534 54.8916 86.9332 55.7189C84.1646 51.7438 82.9853 47.6273 81.4297 43.0465L80.427 31.4983C80.427 31.4983 83.7276 30.4225 85.1561 31.0586Z" fill="#C35376"/>
<path d="M105.154 80.5169C105.154 80.5169 107.665 81.5354 108.826 81.6515C109.988 81.7675 108.845 83.199 107.672 83.1573C106.501 83.1149 106.105 83.3842 104.639 83.908C103.174 84.4325 100.918 84.7918 100.351 84.4117C99.7833 84.0315 99.5775 80.6218 99.368 79.5728C99.1593 78.5237 100.643 77.0551 101.537 77.6399C102.431 78.2246 104.293 80.1865 105.154 80.5169Z" fill="#F8A588"/>
<path d="M85.9192 44.3165C84.7482 43.0971 82.7443 31.2698 82.7443 31.2698L71.6676 30.4105L58.4427 31.1084C58.4427 31.1084 58.5863 43.0971 57.4153 44.3165C53.2279 48.677 57.9929 53.8522 59.5905 56.3393C61.7957 63.5144 61.2023 70.1508 61.2434 76.785C64.88 77.4084 68.2533 77.7015 71.6669 77.8012C75.0805 77.7008 78.4537 77.4077 82.0903 76.785C82.1315 70.1515 81.5381 63.5151 83.7432 56.3393C85.3416 53.8522 90.1065 48.677 85.9192 44.3165Z" fill="#C35376"/>
<path d="M68.3462 35.8098H73.9156C75.6523 35.8098 77.0605 34.4096 77.0605 32.6828V21.7841H65.2012V32.682C65.2012 34.4096 66.6087 35.8098 68.3462 35.8098Z" fill="#F8A588"/>
<path d="M77.0598 21.7841V26.097C74.1109 28.4696 70.1248 30.0721 65.2004 30.4099V21.7841H77.0598Z" fill="#B36650"/>
<path d="M76.6077 22.5012C77.1157 22.6426 77.6725 22.5362 78.1439 22.3048C78.6145 22.0734 79.0119 21.7275 79.3868 21.3688C80.3745 20.4232 81.2926 19.2314 81.223 17.8952C81.1998 17.448 81.0472 16.9853 80.6962 16.6899C80.2779 16.3387 79.6404 16.2963 79.1234 16.4935C78.6063 16.6906 78.1992 17.0931 77.8992 17.5418L76.6077 22.5012Z" fill="#F8A588"/>
<path d="M64.2568 22.5012C63.7487 22.6426 63.192 22.5362 62.7206 22.3048C62.2499 22.0734 61.8526 21.7275 61.4777 21.3688C60.49 20.4232 59.5718 19.2314 59.6414 17.8952C59.6646 17.448 59.8173 16.9853 60.1682 16.6899C60.5865 16.3387 61.224 16.2963 61.7411 16.4935C62.2581 16.6906 62.6652 17.0931 62.9652 17.5418L64.2568 22.5012Z" fill="#F8A588"/>
<path d="M78.6274 22.3011C79.018 18.2969 80.1142 15.9623 80.7922 13.6485C81.2763 11.915 81.7657 8.95388 79.6503 6.34247C77.5596 3.62988 72.3127 2.08908 67.5088 3.38585C62.6712 4.68412 58.9568 8.21138 59.542 11.2789C59.8375 13.1158 61.1463 14.824 61.468 16.7189C61.7352 18.2939 61.2323 19.8742 61.8437 21.4083C62.9825 24.0487 67.3831 28.68 70.8484 28.68C73.6813 28.6808 78.3573 24.048 78.6274 22.3011Z" fill="#F8A588"/>
<path d="M73.2196 14.9728C73.6573 14.8798 74.1123 14.8612 74.5582 14.9155C75.0042 14.9691 75.4412 15.0948 75.843 15.2897C76.2426 15.4869 76.613 15.748 76.8913 16.0955C76.4611 15.9787 76.0652 15.8626 75.6664 15.7733C75.2691 15.6818 74.8747 15.6126 74.4774 15.5643C74.0801 15.5159 73.6797 15.4891 73.2719 15.4824C72.8626 15.4728 72.7833 15.0688 73.2196 14.9728Z" fill="#1A1A1A"/>
<path d="M67.4071 14.9006C66.9679 14.8158 66.5122 14.8069 66.0677 14.8694C65.6232 14.9311 65.1885 15.0658 64.7911 15.2689C64.396 15.4735 64.0316 15.7421 63.76 16.0947C64.1873 15.9697 64.5809 15.8455 64.9782 15.7488C65.3733 15.6498 65.7661 15.5725 66.1627 15.5159C66.5593 15.4601 66.9581 15.4251 67.3659 15.411C67.7745 15.3939 67.8448 14.9877 67.4071 14.9006Z" fill="#1A1A1A"/>
<path d="M71.3287 19.834C71.3003 19.918 71.2651 19.9909 71.2255 20.0653C71.1843 20.1375 71.1424 20.2179 71.0676 20.2565C70.9965 20.2945 70.8895 20.2677 70.8065 20.1479C70.7653 20.0892 70.7354 20.0095 70.7241 19.918C70.7144 19.8273 70.7234 19.7253 70.7578 19.6271C70.793 19.5289 70.8498 19.4441 70.9149 19.3809C70.9815 19.3176 71.0541 19.2752 71.123 19.2566C71.2621 19.2172 71.3617 19.2656 71.3931 19.3407C71.4268 19.4188 71.4088 19.5073 71.3953 19.5899C71.3789 19.6718 71.3602 19.7506 71.3287 19.834Z" fill="#F2F2F2"/>
<path d="M70.4488 20.1182C70.4353 20.061 70.4241 20.0096 70.4151 19.9635C70.4069 19.9174 70.3994 19.8779 70.3934 19.837C70.3881 19.7953 70.3852 19.7485 70.3867 19.6949C70.3881 19.6413 70.3949 19.5826 70.4024 19.5223C70.4181 19.401 70.4368 19.2768 70.4308 19.1719C70.4256 19.0662 70.3956 18.9799 70.335 18.9271C70.2752 18.8743 70.216 18.8758 70.1524 18.9197C70.0888 18.9636 70.0178 19.0514 69.9444 19.1793C69.8733 19.3065 69.797 19.4829 69.7776 19.6942C69.7678 19.7991 69.7768 19.9114 69.8 20.0148C69.8232 20.1197 69.8621 20.2187 69.907 20.3132C69.9519 20.4077 70.005 20.491 70.0589 20.5676C70.1135 20.645 70.1726 20.7134 70.228 20.7729C70.341 20.8935 70.448 20.9865 70.5363 21.0564C70.7159 21.194 70.8236 21.2439 70.8828 21.1487C70.9381 21.0594 70.9329 20.9493 70.8356 20.7901C70.7885 20.7105 70.7181 20.6182 70.6411 20.5073C70.6029 20.4515 70.5632 20.3913 70.5288 20.3266C70.4967 20.2626 70.4675 20.1919 70.4488 20.1182Z" fill="#D1785E"/>
<path d="M73.1187 18.0514C73.1187 17.4644 73.9552 16.582 74.6174 16.582C75.1697 16.585 75.6186 17.0366 75.6156 17.5857L75.6126 18.0626C75.6111 18.3364 75.1854 17.3855 74.5628 17.3878C73.9395 17.39 73.1187 18.3453 73.1187 18.0514Z" fill="#1A1A1A"/>
<path d="M74.3833 16.6156C74.3833 16.6156 75.1069 16.4638 75.7347 16.8975C76.3625 17.3313 76.8002 17.0925 76.8002 17.0925C76.8002 17.0925 76.2802 17.5887 75.6516 17.2926C75.0231 16.9965 74.7185 17.1252 74.7185 17.1252L74.3833 16.6156Z" fill="#1A1A1A"/>
<path d="M67.5456 18.0514C67.5456 17.4644 66.709 16.582 66.0468 16.582C65.4946 16.585 65.0456 17.0366 65.0486 17.5857L65.0516 18.0626C65.0531 18.3341 65.6801 17.5276 66.2967 17.5329C66.9268 17.5373 67.5456 18.3475 67.5456 18.0514Z" fill="#1A1A1A"/>
<path d="M66.2817 16.6156C66.2817 16.6156 65.5581 16.4638 64.9303 16.8975C64.3025 17.3313 63.8647 17.0925 63.8647 17.0925C63.8647 17.0925 64.3848 17.5887 65.0133 17.2926C65.6419 16.9965 65.9464 17.1252 65.9464 17.1252L66.2817 16.6156Z" fill="#1A1A1A"/>
<path d="M68.3288 22.5681C69.9982 23.263 71.9834 22.961 73.3954 21.8494C73.6131 21.6776 73.3056 21.3755 73.0901 21.5459C71.7933 22.5667 69.9616 22.7861 68.4441 22.1545C68.3356 22.1091 68.2076 22.2036 68.1784 22.3048C68.1425 22.4275 68.2218 22.5242 68.3288 22.5681Z" fill="#A33939"/>
<path d="M79.5567 10.9842C79.541 10.738 79.5186 10.584 79.4886 10.5483C79.2103 10.2097 79.0015 14.4721 79.0015 14.4721C74.4752 14.0257 62.7932 14.6752 62.7932 14.6752L62.2888 10.4977C61.5061 11.4113 61.9499 20.5244 61.9499 20.5244C60.7923 17.387 59.2785 11.8688 59.0623 8.63843C58.9403 6.81267 60.4114 5.57244 61.5944 5.34924C62.3061 2.35022 64.839 1.27589 67.9054 0.386825C71.4791 -0.649554 75.5348 0.4642 78.2802 2.91937C81.0256 5.37454 82.5199 8.10796 81.815 11.6665C81.0787 15.382 81.378 18.3773 79.3779 21.4388C79.3786 21.4395 79.6884 13.0302 79.5567 10.9842Z" fill="#62271B"/>
<path d="M75.4966 5.14395C79.0943 9.7128 80.3648 16.0427 78.8107 21.6576C78.0429 24.4319 76.6474 26.9845 75.6567 29.6867C74.666 32.3882 74.0921 35.4073 75.0237 38.1303C75.1995 35.8804 76.2246 33.7087 77.8469 32.1508C79.6921 36.5791 81.5658 41.1419 81.6519 45.9429C81.7214 49.8303 80.3439 53.9535 77.5386 56.4957C83.6041 55.7785 88.7156 50.4329 89.3463 44.3575C90.1732 36.3908 84.1257 29.3296 83.0616 21.3912C82.6104 18.0224 83.0751 14.5845 82.6718 11.209C82.2692 7.83423 80.7031 4.26605 77.6 2.92017L75.4966 5.14395Z" fill="#62271B"/>
<path d="M33.1629 30.9173C33.7945 30.116 36.0528 28.5968 37.4633 28.3959C38.8738 28.1951 55.1569 31.2573 55.1569 31.2573C55.1569 31.2573 54.265 38.573 51.3534 39.375C51.3534 39.375 35.7497 37.5314 34.4171 35.8835C32.8157 33.9037 32.4955 31.764 33.1629 30.9173Z" fill="#F8A588"/>
<path d="M63.445 33.8806C63.3425 32.4097 61.5175 31.3198 60.523 31.1219C59.438 30.9061 52.3347 29.3221 45.6788 28.8356C43.1294 31.5169 42.7942 36.5694 43.2379 40.2357C47.6871 41.4135 54.1118 43.2876 59.0571 44.9943C59.0564 44.9951 63.5483 35.3686 63.445 33.8806Z" fill="#C35376"/>
<path d="M38.5169 35.6401C39.0557 35.4177 40.134 30.7826 39.9125 28.3215C39.691 25.8604 33.6345 9.03948 33.6345 9.03948C33.6345 9.03948 30.791 8.21663 29.6035 9.36684C29.6035 9.36684 31.6089 31.8331 32.64 33.8702C34.712 37.9599 37.9789 35.8626 38.5169 35.6401Z" fill="#F8A588"/>
<path d="M63.6851 8.78647C61.0227 13.4372 59.6803 18.7329 58.9889 24.0405C58.5841 27.1474 58.4285 30.4671 59.8823 33.2459C60.8349 35.0665 62.7033 36.5068 64.672 36.8915C62.9435 37.4889 61.001 37.4837 59.2905 36.8297C57.0157 35.9607 55.2086 33.9661 54.5763 31.6262C53.9283 29.2313 54.4693 26.6951 55.0111 24.2741C55.8499 20.5244 56.6895 16.7747 57.5283 13.0257C58.0408 10.7342 58.3851 8.07001 60.0163 6.2078C60.8139 5.2979 63.6851 8.78647 63.6851 8.78647Z" fill="#62271B"/>
<path d="M55.906 151.131C55.9965 158.281 56.0796 165.455 56.0399 167.149L59.9991 167.324C60.7376 162.464 61.6984 156.677 62.6719 151.131H55.906Z" fill="#F0B59C"/>
<path d="M61.2898 167.471C61.2644 165.315 59.8838 164.865 59.8838 164.865L55.3425 166.637C55.3425 166.637 47.8598 181.678 48.9882 182.015L57.0711 182.23C59.3997 182.281 58.7966 178.602 59.6975 176.653L59.6548 182.281H60.6687L61.1417 174.441C61.2187 174.166 61.2719 173.931 61.2936 173.756C61.4036 172.83 61.3242 170.354 61.2898 167.471Z" fill="#C35376"/>
<path d="M56.0818 164.438C55.6852 165.543 53.9866 169.812 53.5496 171.168C53.2107 172.22 52.4459 174.577 51.9461 176.117C51.7111 176.841 52.2379 177.588 53.0034 177.614L57.7938 177.715L60.3178 165.798C60.3612 165.446 60.3874 163.634 59.6241 163.182C58.8609 162.73 56.4784 163.333 56.0818 164.438Z" fill="#F0B59C"/>
<path d="M98.5068 142.026L94.4287 145.46C98.2299 149.473 101.991 153.5 103.213 154.763L106.361 152.342C103.255 149.322 100.709 145.716 98.5068 142.026Z" fill="#F0B59C"/>
<path d="M105.816 150.766C105.816 150.766 114.812 157.082 116.241 158.165C117.669 159.249 118.798 161.543 118.76 162.432L112.855 167.404C111.665 167.929 102.71 154.212 102.71 154.212L105.816 150.766Z" fill="#C35376"/>
<path d="M101.132 152.435C101.907 153.344 104.773 156.964 105.762 158.048C106.949 159.35 110.413 163.167 110.413 163.167C110.413 163.167 114.074 160.498 114.149 159.73C114.365 157.547 111.746 155.561 111.746 155.561L105.692 150.519C105.382 150.282 103.635 149.192 102.611 149.415C101.587 149.638 100.358 151.526 101.132 152.435Z" fill="#F0B59C"/>
<path d="M60.7122 71.833C60.7122 71.833 54.0429 90.4558 54.096 93.5456C54.1484 96.6354 54.096 118.853 54.096 118.853C54.096 118.853 62.9675 126.178 66.4238 121.065C68.2855 118.311 68.308 95.047 68.308 95.047L73.7913 92.5829L72.7243 72.9944L60.7122 71.833Z" fill="#869AC9"/>
<path d="M53.8858 162.176C53.8858 162.176 62.2395 164.839 62.8718 162.176C63.5041 159.512 64.8143 134.453 65.5731 128.964C66.3318 123.475 67.6368 116.459 67.1908 113.947C66.7441 111.434 54.6775 111.999 54.3864 115.426C54.0953 118.854 52.9976 124.821 53.0403 128.151C53.0837 131.479 53.8858 162.176 53.8858 162.176Z" fill="#869AC9"/>
<path d="M82.5714 71.833C82.5714 71.833 87.2818 90.4886 86.9031 93.5784C86.5245 96.6682 84.2348 118.886 84.2348 118.886C84.2348 118.886 74.5903 126.211 71.6736 121.098C70.1022 118.344 72.7234 91.5778 72.7234 91.5778L68.4822 91.6105L69.0838 72.7846L82.5714 71.833Z" fill="#869AC9"/>
<path d="M106.412 148.707C106.412 148.707 101.429 156.141 99.5551 154.481C97.6814 152.822 83.2076 135.692 79.761 131.922C76.3145 128.152 71.747 123.508 71.343 119.239C71.0003 115.612 79.5972 110.302 81.6093 112.773C83.6221 115.244 87.5767 119.166 89.2828 121.776C90.9896 124.386 106.412 148.707 106.412 148.707Z" fill="#869AC9"/>
<path d="M83.0886 73.9222L82.7878 70.5958C82.7878 70.5958 76.518 71.0466 71.0534 71.0466C65.5887 71.0466 60.8207 70.1122 60.8207 70.1122L60.1436 73.4408C60.1436 73.4408 66.2854 74.4697 70.9381 74.4697C75.5909 74.4697 83.0886 73.9222 83.0886 73.9222Z" fill="#6C7ABD"/>
<path d="M27.6842 9.64137C29.3641 19.5082 33.5245 29.2991 29.6649 38.541C27.9334 42.6872 25.3092 47.3148 27.3206 51.3346C28.5537 53.798 31.3336 55.3656 32.0968 58.0104C33.0434 61.29 30.5127 64.4675 29.7375 67.7917C28.9361 71.2245 30.0832 74.8775 32.0459 77.8118C34.0079 80.7461 36.7249 83.0889 39.4067 85.3923C49.7126 94.2443 60.0919 103.148 71.8458 109.989C81.7836 115.772 100.928 126.143 103.864 122.516C105.463 120.54 104.924 110.055 101.905 99.1613C99.1016 89.0438 103.836 82.484 106.581 78.9739C75.3724 64.4489 34.0371 11.1755 31.9696 6.97714C29.9029 2.7788 26.5888 3.21106 27.6842 9.64137Z" fill="#FFDA82"/>
<path d="M104.901 81.4714C104.901 81.4714 105.337 82.0978 106.735 83.9318C108.135 85.765 106.458 86.4323 105.648 85.3751C104.839 84.3179 103.872 82.3181 103.312 81.5265C102.753 80.7341 104.142 80.4358 104.901 81.4714Z" fill="#F8A588"/>
<path d="M106.326 85.8461C106.105 85.7821 105.911 85.6497 105.758 85.483C105.681 85.4005 105.619 85.3045 105.553 85.2122C105.486 85.12 105.426 85.0233 105.362 84.9288C105.115 84.5464 104.886 84.152 104.663 83.7555L103.995 82.5614C103.883 82.3627 103.771 82.1641 103.653 81.9677C103.595 81.8687 103.534 81.772 103.472 81.6753C103.41 81.5786 103.339 81.4841 103.291 81.3918C103.266 81.345 103.25 81.2951 103.239 81.2453C103.232 81.1954 103.233 81.1456 103.246 81.0995C103.276 81.0079 103.358 80.9373 103.457 80.9008C103.656 80.8249 103.89 80.8502 104.097 80.9187C104.307 80.9886 104.5 81.1106 104.661 81.2639C104.743 81.339 104.812 81.4261 104.88 81.5153L105.083 81.7914C105.627 82.5242 106.187 83.2459 106.757 83.9594L105.951 82.853C105.68 82.4855 105.411 82.1172 105.146 81.7452L104.949 81.4655C104.881 81.3718 104.807 81.2795 104.721 81.1999C104.553 81.0377 104.351 80.9068 104.126 80.8309C103.904 80.7572 103.655 80.7237 103.42 80.81C103.305 80.8517 103.193 80.9402 103.151 81.0682C103.131 81.1314 103.13 81.1977 103.139 81.2609C103.151 81.3226 103.17 81.3822 103.199 81.4357C103.258 81.5451 103.327 81.6321 103.388 81.7274C103.449 81.8226 103.51 81.9186 103.568 82.016C103.686 82.2102 103.8 82.4081 103.913 82.6053C104.14 83.0011 104.361 83.4006 104.593 83.7927C104.825 84.1855 105.062 84.5769 105.319 84.9548C105.386 85.0478 105.45 85.1423 105.52 85.2331C105.589 85.3231 105.655 85.4183 105.737 85.5002C105.899 85.6668 106.102 85.7925 106.326 85.8461Z" fill="#B36650"/>
<path d="M104.048 82.3486C104.048 82.3486 104.366 83.0427 105.418 85.0947C106.47 87.1458 104.668 87.5387 104.059 86.3557C103.45 85.172 102.861 83.0256 102.451 82.1462C102.041 81.2668 103.486 81.1947 104.048 82.3486Z" fill="#F8A588"/>
<path d="M105.276 86.9747C105.037 87.0521 104.773 86.9992 104.562 86.875C104.349 86.75 104.186 86.5543 104.078 86.3356C103.86 85.8907 103.682 85.4272 103.515 84.9607C103.349 84.4927 103.189 84.024 103.029 83.5531C102.866 83.0836 102.713 82.6112 102.51 82.1521C102.459 82.0428 102.419 81.9304 102.432 81.8203C102.438 81.7668 102.457 81.7154 102.488 81.673C102.52 81.6314 102.566 81.5994 102.617 81.5763C102.719 81.5294 102.841 81.525 102.958 81.5384C103.076 81.554 103.192 81.5904 103.3 81.6425C103.518 81.7459 103.706 81.9096 103.849 82.1045C103.923 82.202 103.98 82.3069 104.033 82.4185L104.198 82.7533C104.42 83.1982 104.646 83.6409 104.874 84.0821L105.222 84.7412L105.398 85.0701C105.454 85.1802 105.507 85.2925 105.561 85.4041C105.511 85.2903 105.463 85.1757 105.411 85.0626L105.246 84.7286L104.919 84.059C104.7 83.6133 104.482 83.167 104.269 82.7183L104.112 82.3813C104.06 82.2682 103.997 82.1536 103.922 82.0517C103.772 81.8464 103.575 81.6708 103.342 81.5584C103.226 81.5026 103.102 81.4617 102.972 81.4439C102.843 81.429 102.705 81.4312 102.578 81.487C102.515 81.5146 102.455 81.5555 102.411 81.612C102.367 81.6693 102.342 81.7385 102.334 81.8077C102.318 81.9476 102.366 82.0785 102.418 82.1931C102.62 82.6417 102.777 83.1149 102.942 83.5821C103.106 84.0508 103.265 84.5218 103.442 84.9868C103.618 85.4518 103.806 85.9138 104.034 86.3579C104.152 86.5796 104.327 86.7768 104.55 86.8981C104.768 87.0201 105.04 87.0632 105.276 86.9747Z" fill="#B36650"/>
<path d="M102.497 82.7049C102.497 82.7049 102.78 83.3909 103.724 85.4242C104.669 87.4568 102.935 87.7432 102.388 86.5707C101.841 85.3981 101.342 83.2971 100.976 82.4281C100.611 81.5577 101.994 81.5621 102.497 82.7049Z" fill="#F8A588"/>
<path d="M102.933 87.1577C102.737 87.0513 102.58 86.8847 102.47 86.695C102.414 86.6005 102.375 86.4963 102.332 86.3951C102.288 86.294 102.251 86.1891 102.211 86.0864C102.056 85.672 101.921 85.2494 101.792 84.8261L101.408 83.5524C101.343 83.3403 101.278 83.1283 101.207 82.917C101.173 82.8113 101.135 82.7064 101.097 82.6015C101.059 82.4966 101.01 82.3925 100.984 82.2943C100.97 82.2444 100.966 82.1938 100.966 82.144C100.969 82.0949 100.981 82.048 101.003 82.0071C101.051 81.926 101.143 81.8762 101.244 81.862C101.449 81.8315 101.666 81.9044 101.849 82.0123C102.035 82.1224 102.191 82.2779 102.312 82.4572C102.375 82.5457 102.423 82.6432 102.468 82.7414L102.603 83.0464C102.966 83.8566 103.347 84.6579 103.739 85.4547L103.204 84.2361C103.024 83.8306 102.845 83.4244 102.672 83.0167L102.544 82.7102C102.499 82.6067 102.448 82.5041 102.384 82.4103C102.257 82.2214 102.093 82.0547 101.896 81.9364C101.7 81.8204 101.47 81.737 101.229 81.7698C101.111 81.7854 100.986 81.8464 100.918 81.9595C100.886 82.016 100.871 82.0785 100.867 82.1403C100.866 82.2013 100.871 82.2623 100.888 82.3188C100.921 82.4349 100.968 82.5323 101.006 82.635C101.044 82.7384 101.082 82.8418 101.117 82.9467C101.189 83.1558 101.254 83.3671 101.321 83.5784C101.453 84.001 101.579 84.4265 101.718 84.8484C101.857 85.2702 101.999 85.6906 102.164 86.1035C102.208 86.2054 102.249 86.3088 102.297 86.41C102.344 86.5105 102.387 86.6139 102.447 86.7091C102.565 86.8988 102.732 87.061 102.933 87.1577Z" fill="#B36650"/>
<path d="M101.226 83.4824C101.226 83.4824 101.466 84.1088 102.276 85.9644C103.085 87.8199 101.485 88.0669 101.016 86.9963C100.546 85.9257 100.148 84.0114 99.8371 83.2183C99.5251 82.4252 100.796 82.4401 101.226 83.4824Z" fill="#F8A588"/>
<path d="M102.048 87.6048C101.833 87.6599 101.605 87.5989 101.428 87.4783C101.248 87.3571 101.115 87.177 101.032 86.9791C100.866 86.5774 100.735 86.1615 100.615 85.7433C100.496 85.3245 100.38 84.9041 100.266 84.483C100.148 84.0627 100.041 83.6401 99.8872 83.2264C99.8491 83.1275 99.8199 83.027 99.8378 82.9311C99.8461 82.8842 99.8648 82.8403 99.8954 82.8053C99.9261 82.7704 99.968 82.7451 100.014 82.7272C100.106 82.6915 100.213 82.6945 100.315 82.7123C100.418 82.7324 100.517 82.7711 100.609 82.8224C100.795 82.9251 100.95 83.0791 101.066 83.2569C101.125 83.3462 101.17 83.4414 101.21 83.5419L101.336 83.8447C101.506 84.2472 101.68 84.6475 101.856 85.047L102.125 85.6444L102.26 85.9427C102.303 86.0424 102.343 86.1436 102.386 86.2448C102.348 86.1429 102.312 86.0395 102.273 85.9375L102.147 85.6355L101.897 85.0306C101.729 84.6281 101.563 84.2249 101.4 83.8201L101.28 83.5158C101.241 83.4139 101.193 83.3098 101.132 83.2168C101.011 83.0285 100.848 82.8641 100.65 82.7533C100.552 82.6982 100.445 82.6558 100.332 82.6327C100.22 82.6126 100.1 82.6067 99.9852 82.6491C99.9291 82.6699 99.8737 82.7027 99.8318 82.7495C99.7899 82.7971 99.7645 82.8567 99.7533 82.9169C99.7308 83.0389 99.7667 83.1565 99.8057 83.2592C99.9583 83.6631 100.07 84.0865 100.189 84.5053C100.306 84.925 100.42 85.3468 100.55 85.7634C100.679 86.1808 100.818 86.596 100.994 86.9977C101.086 87.1986 101.228 87.3809 101.417 87.4992C101.6 87.6175 101.836 87.6695 102.048 87.6048Z" fill="#B36650"/>
<path d="M33.1811 6.84468C33.1811 6.84468 33.0584 5.92065 32.8114 3.11655C32.5645 0.312445 30.494 1.07727 30.634 2.69619C30.7739 4.31512 31.5499 6.91685 31.6965 8.09236C31.8432 9.26712 33.3495 8.4026 33.1811 6.84468Z" fill="#F8A588"/>
<path d="M30.8592 1.71631C30.7125 1.95439 30.6444 2.23338 30.6444 2.50866C30.6422 2.6463 30.6661 2.78394 30.6818 2.92232C30.6975 3.05996 30.723 3.19759 30.7432 3.33449C30.8345 3.88281 30.9527 4.42741 31.0784 4.96978L31.46 6.59689C31.5221 6.86844 31.585 7.14075 31.6404 7.41453C31.6695 7.55143 31.6942 7.68907 31.7189 7.8267C31.7429 7.96509 31.7556 8.10868 31.7885 8.23144C31.8042 8.29467 31.8312 8.35271 31.8618 8.40702C31.8963 8.45761 31.9382 8.50225 31.989 8.53275C32.0916 8.59153 32.224 8.58781 32.3437 8.54168C32.5869 8.44794 32.7777 8.23367 32.9094 8.00154C33.0426 7.76644 33.1159 7.49861 33.1354 7.22854C33.1474 7.09313 33.1391 6.95698 33.1264 6.82157L33.0823 6.40568C32.9708 5.29639 32.8817 4.18561 32.8084 3.07335L32.991 4.73468C33.0501 5.28821 33.11 5.84248 33.1773 6.39527L33.2297 6.80893C33.2454 6.95028 33.2544 7.09387 33.2424 7.23598C33.2237 7.52092 33.1489 7.80438 33.0082 8.05585C32.8675 8.30435 32.6692 8.53796 32.3856 8.65179C32.2472 8.70759 32.0729 8.71875 31.9284 8.63765C31.8581 8.59599 31.802 8.53722 31.7586 8.47323C31.7197 8.40702 31.6867 8.33708 31.6688 8.26491C31.6314 8.1176 31.6224 7.98294 31.5992 7.84679C31.5752 7.71064 31.5521 7.57375 31.5244 7.4376C31.4712 7.1653 31.4106 6.893 31.3508 6.62144C31.2295 6.07758 31.0993 5.53596 30.9864 4.98987C30.8719 4.44378 30.7634 3.8962 30.6841 3.34342C30.6683 3.20429 30.6474 3.06665 30.6362 2.92753C30.6249 2.7884 30.6055 2.64927 30.6122 2.50791C30.6197 2.22743 30.7005 1.94695 30.8592 1.71631Z" fill="#B36650"/>
<path d="M31.6843 6.74573C31.6843 6.74573 31.3984 5.8574 30.6569 3.13886C29.9154 0.421064 27.9586 1.53556 28.3844 3.10538C28.8102 4.6752 30.0501 7.10136 30.4047 8.23297C30.7587 9.36532 32.1273 8.25157 31.6843 6.74573Z" fill="#F8A588"/>
<path d="M28.9749 1.55042C28.6935 1.67615 28.4982 1.93952 28.4099 2.22373C28.3194 2.51091 28.3336 2.8219 28.4159 3.10833C28.5865 3.68939 28.8073 4.25482 29.0415 4.8143C29.2779 5.37304 29.5196 5.93029 29.7643 6.48679C30.0045 7.04553 30.2559 7.59906 30.4512 8.18086C30.4961 8.32147 30.553 8.45614 30.6555 8.54467C30.7056 8.58857 30.764 8.61981 30.8276 8.63172C30.892 8.64288 30.9593 8.63544 31.0244 8.61461C31.1553 8.57369 31.2706 8.47771 31.3656 8.37058C31.4591 8.26047 31.534 8.1325 31.5901 7.99709C31.7016 7.72554 31.7367 7.42348 31.7061 7.13035C31.6926 6.98229 31.6582 6.84019 31.614 6.69586L31.4861 6.25764C31.3192 5.67361 31.1583 5.08735 31.0012 4.50108L30.7715 3.61945L30.6577 3.17827C30.6173 3.03244 30.5724 2.88737 30.5298 2.74154C30.5784 2.88513 30.6293 3.02872 30.6757 3.1738L30.8029 3.61127L31.0596 4.48546C31.2294 5.06875 31.4 5.65129 31.5774 6.23161L31.7128 6.6661C31.7592 6.81117 31.7974 6.96592 31.8123 7.11993C31.846 7.42869 31.8116 7.7486 31.6941 8.04025C31.635 8.18607 31.5557 8.32445 31.4532 8.44647C31.3491 8.5655 31.2219 8.67561 31.0611 8.72844C30.9817 8.75448 30.8934 8.76638 30.8066 8.7515C30.7198 8.73588 30.6398 8.69347 30.5754 8.63767C30.4445 8.52458 30.3809 8.36611 30.3337 8.22029C30.1459 7.64891 29.8975 7.09166 29.6618 6.53292C29.4231 5.97418 29.1777 5.41768 28.9547 4.8515C28.7302 4.28607 28.5184 3.71468 28.3583 3.12619C28.2827 2.82785 28.2782 2.50719 28.38 2.21554C28.4773 1.9239 28.6883 1.6635 28.9749 1.55042Z" fill="#B36650"/>
<path d="M29.9845 7.68982C29.9845 7.68982 29.674 6.83721 28.8509 4.22357C28.0278 1.60993 26.22 2.76609 26.6929 4.27639C27.1658 5.78595 28.4491 8.09753 28.8359 9.18375C29.2221 10.27 30.4717 9.13614 29.9845 7.68982Z" fill="#F8A588"/>
<path d="M26.7003 3.2981C26.6105 3.55477 26.6053 3.83377 26.6629 4.09565C26.6898 4.22734 26.7415 4.35307 26.7848 4.48104C26.829 4.60901 26.8821 4.734 26.93 4.86048C27.132 5.36267 27.3588 5.85519 27.5922 6.34474L28.2964 7.81189C28.4123 8.0574 28.5291 8.30292 28.6391 8.55141C28.6952 8.67492 28.7476 8.80139 28.7999 8.92713C28.8516 9.05361 28.8942 9.18753 28.9511 9.29764C28.9795 9.35492 29.0169 9.40403 29.0581 9.44867C29.1015 9.48959 29.1509 9.52307 29.2055 9.54167C29.3155 9.57589 29.4405 9.54539 29.5445 9.47619C29.7555 9.33632 29.8924 9.09304 29.9687 8.84604C30.0458 8.59531 30.0593 8.32524 30.0211 8.0641C30.0039 7.93241 29.9673 7.80519 29.9268 7.67946L29.7974 7.29333C29.4584 6.26215 29.1404 5.22503 28.8374 4.1827L29.3597 5.72425C29.5318 6.23835 29.7054 6.75244 29.8849 7.26357L30.0219 7.64598C30.066 7.77692 30.1049 7.91158 30.1236 8.04922C30.1655 8.32375 30.1536 8.6087 30.0735 8.87728C29.9919 9.14289 29.8528 9.40626 29.6073 9.57291C29.4876 9.65475 29.3237 9.70162 29.1696 9.65401C29.094 9.62946 29.0289 9.58482 28.9735 9.53274C28.9227 9.47768 28.877 9.41816 28.8448 9.35344C28.7782 9.22175 28.7408 9.09453 28.6907 8.97028C28.6398 8.84529 28.5889 8.7203 28.5336 8.5968C28.4258 8.34905 28.3113 8.10279 28.1968 7.85727C27.9679 7.36624 27.7299 6.87743 27.5077 6.38194C27.2847 5.88718 27.0662 5.38871 26.8746 4.87982C26.8305 4.75111 26.7819 4.62463 26.7414 4.49443C26.7018 4.36498 26.6539 4.23627 26.6307 4.10086C26.5806 3.83377 26.5985 3.55031 26.7003 3.2981Z" fill="#B36650"/>
<path d="M28.1892 8.02391C28.1892 8.02391 27.8899 7.26058 27.0907 4.91775C26.2915 2.57492 24.6371 3.65892 25.0966 5.01224C25.556 6.36555 26.7764 8.42566 27.1491 9.39806C27.5217 10.3705 28.6606 9.3192 28.1892 8.02391Z" fill="#F8A588"/>
<path d="M25.5292 3.61572C25.2897 3.74146 25.1326 3.98251 25.0712 4.23696C25.0076 4.49363 25.0368 4.76593 25.1251 5.01219C25.3062 5.51216 25.5307 5.99575 25.7679 6.47339C26.0058 6.95029 26.2483 7.4257 26.4929 7.90037C26.7339 8.37726 26.9846 8.84895 27.1881 9.34817C27.2352 9.46944 27.2921 9.58402 27.3871 9.65618C27.4335 9.6919 27.4866 9.71645 27.5428 9.72314C27.5996 9.72984 27.6587 9.71868 27.7141 9.6971C27.8271 9.65395 27.9221 9.56393 28 9.46423C28.0763 9.36231 28.1347 9.24624 28.1758 9.12423C28.2589 8.8802 28.2731 8.61385 28.2304 8.35792C28.2102 8.22847 28.1721 8.10571 28.1257 7.9822L27.9895 7.605C27.8106 7.10206 27.6385 6.59689 27.4679 6.09098L27.218 5.33062L27.0946 4.9497C27.0512 4.82396 27.004 4.69897 26.9584 4.57324C27.0085 4.69674 27.0616 4.8195 27.1103 4.94375L27.2457 5.32021L27.5188 6.07238C27.6992 6.57457 27.881 7.07602 28.0688 7.57524L28.2117 7.94872C28.2604 8.07372 28.3023 8.20689 28.324 8.34155C28.3704 8.61088 28.3584 8.89285 28.2708 9.15473C28.2274 9.28568 28.1653 9.41141 28.0823 9.52375C27.997 9.63386 27.8922 9.73728 27.7538 9.79233C27.6857 9.81986 27.6086 9.83474 27.5315 9.82581C27.4545 9.81689 27.3819 9.78415 27.322 9.73802C27.2016 9.64577 27.1365 9.51036 27.0871 9.38537C26.891 8.89434 26.6426 8.41967 26.4054 7.94277C26.1652 7.46588 25.9198 6.99121 25.693 6.50761C25.4648 6.02402 25.2478 5.53447 25.0757 5.02707C24.9927 4.76965 24.9717 4.48842 25.0443 4.22728C25.1131 3.97061 25.2837 3.7303 25.5292 3.61572Z" fill="#B36650"/>
<path d="M80.6012 13.696C77.84 10.7037 72.3829 8.51116 68.5383 9.64203C65.0528 10.6672 61.7701 12.8851 60.6425 16.4414C59.9496 12.0808 61.8173 7.78354 65.6065 5.72045C69.5746 3.55916 75.8721 4.2161 78.2037 6.97557C79.2019 8.15702 79.5266 8.91366 79.9786 10.2491C80.4268 11.5705 80.6012 13.696 80.6012 13.696Z" fill="#F14950"/>
<path d="M66.7357 6.50159C66.7357 6.67494 66.6003 6.81555 66.4327 6.81555C66.2651 6.81555 66.1296 6.67494 66.1296 6.50159C66.1296 6.32824 66.2651 6.18762 66.4327 6.18762C66.6003 6.18762 66.7357 6.32824 66.7357 6.50159Z" fill="white"/>
<path d="M61.8158 13.2213C61.8158 13.3947 61.6804 13.5353 61.5128 13.5353C61.3452 13.5353 61.2097 13.3947 61.2097 13.2213C61.2097 13.048 61.3452 12.9073 61.5128 12.9073C61.6804 12.9073 61.8158 13.048 61.8158 13.2213Z" fill="white"/>
<path d="M70.8175 5.59692C70.8175 5.77027 70.6821 5.91089 70.5145 5.91089C70.3469 5.91089 70.2114 5.77027 70.2114 5.59692C70.2114 5.42357 70.3469 5.28296 70.5145 5.28296C70.6813 5.28296 70.8175 5.42357 70.8175 5.59692Z" fill="white"/>
<path d="M75.8617 6.00317C75.8617 6.17652 75.7263 6.31714 75.5587 6.31714C75.3911 6.31714 75.2556 6.17652 75.2556 6.00317C75.2556 5.82982 75.3911 5.68921 75.5587 5.68921C75.7263 5.68921 75.8617 5.82982 75.8617 6.00317Z" fill="white"/>
<path d="M77.1269 9.69482C77.1269 9.86817 76.9914 10.0088 76.8238 10.0088C76.6562 10.0088 76.5208 9.86817 76.5208 9.69482C76.5208 9.52147 76.6562 9.38086 76.8238 9.38086C76.9914 9.3816 77.1269 9.52147 77.1269 9.69482Z" fill="white"/>
<path d="M72.9921 7.95984C72.9921 8.13319 72.8567 8.2738 72.689 8.2738C72.5214 8.2738 72.386 8.13319 72.386 7.95984C72.386 7.78649 72.5214 7.64587 72.689 7.64587C72.8559 7.64587 72.9921 7.78649 72.9921 7.95984Z" fill="white"/>
<path d="M77.8387 7.11986C77.9973 7.04844 78.1821 7.11391 78.251 7.26568C78.3198 7.41746 78.2465 7.59825 78.0871 7.66893C77.9277 7.73961 77.7436 7.67488 77.6748 7.5231C77.6059 7.37207 77.6793 7.19128 77.8387 7.11986Z" fill="white"/>
<path d="M79.9794 10.8763C79.9794 11.0497 79.844 11.1903 79.6763 11.1903C79.5087 11.1903 79.3733 11.0497 79.3733 10.8763C79.3733 10.703 79.5087 10.5624 79.6763 10.5624C79.8432 10.5631 79.9794 10.7037 79.9794 10.8763Z" fill="white"/>
<path d="M68.9813 8.25525C68.9813 8.4286 68.8459 8.56921 68.6783 8.56921C68.5107 8.56921 68.3752 8.4286 68.3752 8.25525C68.3752 8.0819 68.5107 7.94128 68.6783 7.94128C68.8459 7.94128 68.9813 8.0819 68.9813 8.25525Z" fill="white"/>
<path d="M65.6124 9.62122C65.6124 9.79457 65.477 9.93518 65.3094 9.93518C65.1418 9.93518 65.0063 9.79457 65.0063 9.62122C65.0063 9.44787 65.1418 9.30725 65.3094 9.30725C65.477 9.30725 65.6124 9.44787 65.6124 9.62122Z" fill="white"/>
<path d="M62.5109 9.84289C62.5109 10.0162 62.3754 10.1569 62.2078 10.1569C62.0402 10.1569 61.9048 10.0162 61.9048 9.84289C61.9048 9.66955 62.0402 9.52893 62.2078 9.52893C62.3754 9.52893 62.5109 9.66955 62.5109 9.84289Z" fill="white"/>
</g>
<defs>
<clipPath id="clip0_167_5">
<rect width="139" height="183" fill="white" transform="translate(25)"/>
</clipPath>
</defs>
</svg>
