<svg width="24" height="24" viewBox="0 0 24 24" fill="none" xmlns="http://www.w3.org/2000/svg">
<g clip-path="url(#clip0_57_432)">
<path d="M10.5217 14.4381C10.5217 13.9727 10.1275 13.5808 9.65942 13.5808H6.45652C5.9884 13.5808 5.5942 13.9727 5.5942 14.4381V17.6225C5.5942 18.0879 5.9884 18.4798 6.45652 18.4798H9.65942C10.1275 18.4798 10.5217 18.0879 10.5217 17.6225V14.4381ZM7.31884 15.2955H8.7971V16.7652H7.31884V15.2955ZM23.0623 7.06515L20.8696 4.86061V2.31313C20.8696 1.77424 20.4261 1.33334 19.8594 1.33334H4.14058C3.57391 1.33334 3.13043 1.77424 3.13043 2.31313V4.86061L0.937679 7.06515C0.765215 7.23662 0.666664 7.48157 0.666664 7.75101V10.2495C0.666664 10.7884 1.11014 11.1313 1.65217 11.1313H22.3478C22.8899 11.1313 23.3333 10.7884 23.3333 10.225V7.75101C23.3333 7.48157 23.2348 7.23662 23.0623 7.06515ZM18.8985 3.29293V4.51768H5.10145V3.29293H18.8985ZM21.3623 9.17172H2.63768V8.14293L4.65797 6.23233H19.342L21.3623 8.14293V9.17172ZM21.8551 13.1154V21.9091C21.8551 22.448 21.4116 22.8889 20.8696 22.8889H17.4942C16.9522 22.8889 16.5087 22.497 16.5087 21.9581V16.7652H14.2174V21.9091C14.2174 22.448 13.7493 22.8889 13.2072 22.8889H3.15507C2.61304 22.8889 2.14492 22.448 2.14492 21.9091V13.1154C2.14492 12.5765 2.5884 12.1356 3.13043 12.1356C3.67246 12.1356 4.11594 12.5765 4.11594 13.1154V20.9293H12.2464V15.6874C12.2464 15.1485 12.6652 14.8056 13.2072 14.8056H17.4696C18.0116 14.8056 18.3812 15.1485 18.3812 15.6874V20.9293H19.8594V13.1154C19.8594 12.5765 20.3029 12.1356 20.8449 12.1356C21.387 12.1356 21.8551 12.5765 21.8551 13.1154Z" fill="black"/>
<path d="M12.75 13.5L0.375 7.125C0.375 7.125 2.40038 5.22249 11.4375 3.75C20.4746 2.27751 23.3838 -1.35623 22.5 0.374999V22.875H16.125L12.75 13.5Z" fill="#4179D1" fill-opacity="0.34"/>
</g>
<defs>
<clipPath id="clip0_57_432">
<rect width="24" height="24" fill="white"/>
</clipPath>
</defs>
</svg>
